<?xml version="1.0" standalone="no"?>
<!DOCTYPE svg PUBLIC "-//W3C//DTD SVG 1.1//EN" "http://www.w3.org/Graphics/SVG/1.1/DTD/svg11.dtd">
<svg xmlns="http://www.w3.org/2000/svg">
<metadata>Generated by Fontastic.me</metadata>
<defs>
<font id="zingicons-2022" horiz-adv-x="512">
<font-face font-family="zingicons-2022" units-per-em="512" ascent="480" descent="-32"/>
<missing-glyph horiz-adv-x="512" />

<glyph glyph-name="finance" unicode="&#97;" d="M329 395l45 90c6 11-3 25-15 25l-206 0c-13 0-21-14-15-25l45-89c-118-49-243-249-132-360 23-22 53-33 85-33l240 0c32 0 62 11 85 33 107 129-10 300-132 359z m-114 12l-34 69 150 0-34-69c-28 6-54 6-82 0z m222-347c-17-16-38-25-61-25l-240 0c-23 0-45 9-61 25-110 110 62 324 181 324 119 0 290-214 181-324z m-165 164l-32 0c-8 0-14 6-14 14 0 7 6 14 14 14 0 0 0 0 0 0l31 0c6 0 11-3 15-7 6-6 16-6 22-1 6 6 6 15 0 21-10 11-24 17-37 17l0 13c0 8-6 15-15 15-8 0-15-7-15-15l0-13c-27 0-45-21-45-44 0-25 20-44 44-44l32 0c8 0 14-7 14-14 0-8-5-14-14-14l-34 0c-3 0-8 1-11 4-7 4-16 3-21-4-5-7-3-16 4-21 10-7 20-9 31-9l0-14c0-8 7-15 15-15 9 0 15 7 15 15l0 14c28 0 46 21 46 44 0 24-20 44-45 44z"/>
<glyph glyph-name="investment-verfication" unicode="&#98;" d="M376 279l0 131 11 0c11 0 19 8 19 19 0 5-2 10-5 13l-63 63c-4 4-10 4-14 0l-63-63c-3-3-5-8-5-13 0-11 8-19 19-19l11 0 0-82c-10 2-20 3-30 3-11 0-21-1-31-3l0 34 11 0c11 0 20 8 20 19 0 5-2 10-6 13l-63 63c-4 4-10 4-14 0l-62-63c-4-3-6-8-6-13 0-11 9-19 19-19l11 0 0-83c-28-29-45-69-45-113 0-92 74-166 166-166 91 0 165 74 165 166 0 44-17 84-45 113z m-75 161l30 30 30-30-15 0 0-136c-9 6-20 12-30 16l0 120z m-121-18l30-30-15 0 0-72c-10-4-20-10-30-16l0 88-15 0z m76-392c-75 0-136 61-136 136 0 74 61 135 136 135 74 0 135-61 135-135 0-75-61-136-135-136z m15 42l0 12c26 0 44 21 44 44 0 24-19 43-43 43l-32 0c-7 0-13 6-13 14 0 7 5 13 13 13l31 0c5 0 10-2 14-6 6-6 15-7 21-1 6 6 7 15 1 21-9 10-23 16-36 16l0 13c0 8-7 15-15 15-8 0-15-7-15-15l0-13c-26 0-44-20-44-43 0-24 19-44 43-44l32 0c7 0 13-6 13-13 0-7-6-13-13-13 0 0 0 0-1 0l-33 0c-3 0-7 1-11 3-7 5-16 3-21-3-4-7-3-17 4-21 10-7 20-10 31-10l0-12c0-8 7-15 15-15 8 0 15 7 15 15z"/>
<glyph glyph-name="payroll" unicode="&#99;" d="M492 249l-100 0c-1 12-4 24-8 35l109 0c9 0 15 7 16 15 1 119-95 213-211 213-8 0-15-7-15-15l0-115c-11 4-22 6-34 7l0 57c0 8-7 15-15 15-127 0-231-103-231-231 0-127 104-230 231-230 51 0 99 16 140 47 6 5 8 15 2 21l-34 45c10 10 19 21 27 32l43-56c5-6 14-7 21-2 46 35 73 89 74 147 0 8-7 15-15 15z m-179 232c87-7 159-76 165-167l-109 0c-14 23-33 41-56 55z m30-419c-32-21-70-32-109-32-111 0-200 90-200 200 0 106 81 193 185 200l0-41c-81-8-144-76-144-159 0-87 71-159 159-159 31 0 59 9 84 24z m-109 39c-71 0-129 58-129 129 0 72 58 130 129 130 71 0 129-58 129-130 0-71-58-129-129-129z m192 19l-43 55c6 14 9 29 10 44l83 0c-4-38-22-73-50-99z m-176 126l-32 0c-8 0-14 6-14 14 0 7 6 13 14 13 0 0 0 0 0 0l31 0c5 0 11-2 15-6 6-6 15-7 21-1 6 6 7 15 1 21-10 11-24 17-37 17l0 13c0 8-7 15-15 15-8 0-15-7-15-15l0-13c-27 0-45-21-45-44 0-25 19-45 44-45l32 0c8 0 14-6 14-14 0-7-6-14-14-14l-34 0c-4 0-8 2-12 4-6 5-16 3-21-3-4-7-3-17 4-21 11-8 20-10 32-10l0-13c0-8 7-15 15-15 8 0 15 7 15 15l0 13c27 0 45 21 45 44 0 25-20 45-44 45z"/>
<glyph glyph-name="savings" unicode="&#100;" d="M257 201c-82 0-148 66-148 148 0 82 66 148 148 148 82 0 148-66 148-148 0-82-66-148-148-148z m0 269c-67 0-121-54-121-121 0-67 54-121 121-121 67 0 121 54 121 121 0 67-54 121-121 121z m63-454c-7 0-13 6-13 14l0 92c0 17 6 33 18 45l41 41c12 12 28 19 45 19 8 0 15-1 22-4l0 62c0 17 7 33 20 45 12 13 28 19 45 19 8 0 14-6 14-14l0-145c0-16-7-32-18-44l-59-83 0-33c0-8-6-14-13-14z m88 27l0 25c0 3 1 5 2 8 26 36 41 56 50 69 13 18 13 18 14 20l0 0c7 7 11 16 11 25l0 129c-14-6-24-20-24-34l0-84c1-4-1-9-4-13l-70-69c-2-3-6-4-9-4-4 0-7 1-10 4-5 5-5 14 0 19l58 58c-4 2-9 3-15 3-9 0-19-4-26-11l-40-40c-7-7-11-17-11-26l0-79z m-316-27c-7 0-13 6-13 14l0 34-58 82c-12 12-19 29-19 45l0 145c0 7 6 13 14 13 17 0 33-6 45-19 13-12 20-28 20-45l0-62c7 3 14 4 22 4 17 0 33-7 45-19l41-41c12-12 18-28 18-45l0-92c0-8-6-14-13-14l-102 0z m88 27l0 79c0 9-4 19-11 26l-40 41c-7 7-17 10-26 10-6 0-10-1-15-3l58-58c5-5 5-14 0-19-3-3-6-4-10-4-3 0-7 1-9 4l-70 70c-3 3-5 8-4 12l0 84c0 15-9 29-24 34l0-128c0-9 5-19 12-26l0 0c1-2 1-2 14-20 9-13 24-34 49-69 1-3 2-5 2-8l0-24 74 0z m91 221l0 12c26 0 45 21 45 44 0 24-20 43-44 43l-32 0c-7 0-13 6-13 14 0 7 6 13 14 13l30 0c5 0 11-2 14-6 6-6 16-7 22-1 6 6 6 15 0 21-9 10-22 16-36 16l0 13c0 8-6 15-15 15-8 0-15-7-15-15l0-13c-26 0-44-20-44-43 0-24 19-44 43-44l32 0c7 0 13-6 13-13 0-7-6-13-13-13 0 0 0 0 0 0l-33 0c-4 0-8 1-11 3-7 5-17 3-21-3-5-7-3-17 3-21 11-7 20-10 31-10l0-12c0-8 7-15 15-15 9 0 15 7 15 15z"/>
<glyph glyph-name="virtual-payroll" unicode="&#101;" d="M497 276l-56 0 0 221c0 8-7 15-15 15l-340 0c-8 0-15-7-15-15l0-181-56 0c-8 0-15-7-15-15l0-286c0-8 7-15 15-15l482 0c8 0 15 7 15 15l0 246c0 8-7 15-15 15z m-396 206l310 0 0-206-166 0-16 32c-2 5-7 8-13 8l-115 0z m381-452l-452 0 0 256 177 0 16-32c2-5 7-8 13-8l246 0z m-226 346c0 8-7 15-15 15l-100 0c-8 0-15-7-15-15 0-8 7-15 15-15l100 0c8 0 15 7 15 15z m-114 36l99 0c8 0 15 7 15 15 0 8-7 15-15 15l-99 0c-8 0-15-7-15-15 0-8 7-15 15-15z m140-358l152 0c8 0 15 7 15 15 0 8-7 15-15 15l-3 0 0 24c0 8-7 15-15 15-8 0-15-7-15-15l0-24-25 0 0 40c0 8-7 15-15 15-8 0-15-7-15-15l0-40-25 0 0 73c0 8-7 15-15 15-8 0-15-7-15-15l0-73-9 0c-8 0-15-7-15-15 0-8 7-15 15-15z m-128 123l-32 0c-8 0-14 6-14 14 0 7 6 14 14 14 0 0 0 0 0 0l31 0c6 0 11-3 15-7 6-6 16-7 22-1 6 6 6 15 0 21-10 11-24 17-37 17l0 13c0 8-6 15-15 15-8 0-15-7-15-15l0-13c-27 0-45-21-45-44 0-25 20-44 44-44l32 0c8 0 14-7 14-14 0-8-5-14-14-14l-34 0c-3 0-8 1-11 4-7 4-16 3-21-4-5-7-3-16 4-21 10-8 20-10 31-10l0-13c0-8 7-15 15-15 9 0 15 7 15 15l0 13c28 0 46 22 46 45 0 24-20 44-45 44z m169 244c5 6 5 16 0 21-6 6-16 6-22 0-6-5-6-15 0-21 6-6 16-6 22 0z m35-35c-6-6-6-15 0-21 6-6 15-6 21 0 6 6 6 15 0 21-6 6-15 6-21 0z m-42-28l70 70c6 6 6 16 0 22-6 5-15 5-21 0l-70-70c-6-6-6-16 0-22 6-6 15-6 21 0z"/>
<glyph glyph-name="tax" unicode="&#102;" d="M87 116c-7 0-13 6-13 13 0 7 6 13 13 13l148 0c7 0 13-6 13-13 0-7-6-13-13-13z m0-52c-7 0-13 5-13 12 0 7 6 13 13 13l148 0c7 0 13-6 13-13 0-7-6-12-13-12z m0 105c-7 0-13 6-13 13 0 7 6 13 13 13l148 0c7 0 13-6 13-13 0-7-6-13-13-13z m0 53c-7 0-13 6-13 13 0 7 6 13 13 13l84 0c7 0 13-6 13-13 0-7-6-13-13-13z m-53-222c-7 0-13 6-13 13l0 444c0 30 25 55 55 55l350 0c30 0 55-25 55-55l0-42c0-7-6-13-13-13l-72 0 0-145c26-3 50-15 67-34 18-20 28-46 28-73 0-27-9-53-27-73-18-19-42-31-68-34l0-30c0-7-6-13-13-13l-349 0z m337 25l0 17c-26 3-49 14-67 32-19 18-30 42-32 68-4 59 40 110 99 115 0 47-1 83-1 112 0 99 0 105 9 118l-303 0c-16 0-30-13-30-30l0-432 325 0z m12 208c-45 0-82-37-82-83 0-45 37-82 82-82 46 0 83 37 83 82 0 46-37 83-83 83z m72 194l0 30c0 16-13 30-29 30-17 0-30-14-30-30l0-30z m-326-120c-7 0-13 6-13 13l0 72-19 0c-7 0-12 5-12 12 0 7 5 13 12 13l64 0c7 0 12-6 12-13 0-7-5-12-12-12l-19 0 0-72c0-8-6-13-13-13z m117 0c-6 0-10 3-12 8l-5 13-30 0-5-13c-2-5-7-8-12-8-2 0-3 0-4 1-4 1-6 3-8 6-1 3-1 7 0 10l32 85c1 3 4 6 7 7 2 1 3 1 5 1 5 0 10-3 12-8l31-85c2-3 1-7 0-10-1-3-4-5-7-6-1-1-3-1-4-1z m-27 46l-5 15-6-15z m100-46c-4 0-8 3-11 7l0 0-10 19-9-19 0-1c-3-3-7-6-11-6-2 0-4 1-5 1-7 3-10 10-7 17l0 0 18 37-18 36 0 0c-2 6 0 13 5 16 2 1 4 2 7 2 4 0 8-2 11-6l0 0 9-20 10 20 0 0c3 4 7 6 11 6 2 0 4 0 5-1 3-1 6-4 7-7 1-3 1-6 0-9l0 0-18-37 18-37 0 0c2-6 0-12-5-16-2-1-4-2-7-2z m32-148c-12 0-23 10-23 23 0 13 11 23 23 23 13 0 24-10 24-23 0-13-11-23-24-23z m64-64c-13 0-23 11-23 23 0 13 10 24 23 24 13 0 23-11 23-24 0-12-10-23-23-23z m-66 0c-2 0-5 1-7 3-3 2-5 5-5 8-1 4 0 7 2 10l68 84c3 3 6 5 10 5 3 0 5-1 8-3 2-2 4-5 4-8 1-3 0-7-2-9-16-21-29-36-38-49-33-41-33-41-39-41z"/>
<glyph glyph-name="payslip" unicode="&#103;" d="M17 2c-8 0-15 7-15 15l0 390c0 50 32 105 84 105l342 0c23 0 45-12 61-32 15-20 23-46 23-73 0-9-7-15-15-15l-123 0 0-375c0-8-7-15-15-15z m69 480c-37 0-54-45-54-75l0-375 312 0 0 374c0 45 21 71 24 74l1 2-283 0z m342 0c-32 0-49-35-53-59l0-1 106 0 0 1c-4 24-21 59-53 59z m-312-413c-8 0-15 7-15 15 0 8 7 15 15 15l144 0c8 0 15-7 15-15 0-8-7-15-15-15z m0 62c-8 0-15 7-15 15 0 8 7 15 15 15l144 0c8 0 15-7 15-15 0-8-7-15-15-15z m72 67c-69 0-125 56-125 125 0 69 56 125 125 125 69 0 125-56 125-125 0-69-56-125-125-125z m0 220c-52 0-95-42-95-95 0-52 43-95 95-95 52 0 95 43 95 95 0 53-43 95-95 95z m-1-171c-8 0-14 7-14 16l0 0c0 0-3 1-4 1-7 2-12 3-18 6-5 2-8 7-8 13 0 7 6 14 13 14 1 0 1 0 1 0 5-1 10-2 15-3 6-2 12-3 17-3 4 0 7 0 9 1 4 2 7 5 7 10 0 5-4 10-10 10l-16 0c-21 0-38 17-38 38 0 19 13 34 31 38l1 0 0 0c0 8 5 16 14 16 8 0 14-6 14-15l0-1 1 0c2-1 4-1 7-2 6-1 12-2 17-6 3-3 4-9 3-13-1-5-4-7-8-9-1 0-3 0-4 0-3 0-6 1-9 1-2 1-4 2-6 2-5 1-11 2-15 2-15 0-18-7-18-13 0-6 5-10 10-10l16 0c21 0 38-17 38-38 0-19-13-35-31-38l-1 0 0-1c0-8-5-16-14-16z"/>
<glyph glyph-name="payroll-processing" unicode="&#104;" d="M117 73l-8 58c-1 8-9 14-17 13-8-1-14-9-13-17l2-13c-16 19-28 41-37 64-61 167 87 335 258 299 8-2 16 3 18 11 2 9-3 17-11 18-194 42-363-148-293-338 10-27 24-51 41-73l-14 3c-8 1-16-4-18-12-1-8 4-16 12-18l61-12c11-3 21 7 19 17z m379 271c-9 27-23 51-41 73l14-3c9-1 16 4 18 12 2 9-4 16-12 18l-61 12c-11 3-20-7-19-17l8-58c1-7 8-13 15-13 9 0 16 8 15 17l-2 13c16-19 28-41 37-64 43-117-17-247-134-290-40-14-83-17-124-9-8 2-16-3-18-11-2-8 4-16 12-18 47-10 95-7 140 10 133 49 201 195 152 328z m-84-89c0 86-70 157-156 157-86 0-156-71-156-157 0-86 70-156 156-156 86 0 156 70 156 156z m-282 0c0 70 57 126 126 126 70 0 126-56 126-126 0-69-56-126-126-126-69 0-126 57-126 126z m141-84l0 12c26 0 44 21 44 44 0 24-19 43-43 43l-32 0c-7 0-13 6-13 14 0 7 6 13 14 13l30 0c5 0 10-2 14-6 6-6 15-7 22-1 6 6 6 15 0 21-9 10-22 16-36 16l0 13c0 8-7 15-15 15-8 0-15-7-15-15l0-13c-26 0-44-20-44-43 0-24 19-44 43-44l32 0c7 0 13-6 13-13 0-8-6-14-13-14 0 0 0 0 0 0l-33 0c-4 0-8 2-12 4-6 5-16 3-20-4-5-6-4-16 3-20 11-8 20-10 31-10l0-12c0-9 7-15 15-15 8 0 15 6 15 15z"/>
<glyph glyph-name="pay-cheque" unicode="&#105;" d="M497 360c8 0 15 7 15 15l0 62c0 8-7 15-15 15l-45 0 0 15c0 25-20 45-45 45-25 0-45-20-45-45l0-137-347 0c-8 0-15-7-15-15l0-300c0-8 7-15 15-15l482 0c8 0 15 7 15 15l0 300c0 8-7 15-15 15l-45 0 0 92 30 0 0-47c0-8 7-15 15-15z m-75-118l-15-20-15 20 0 180 30 0z m-30 225c0 8 7 15 15 15 8 0 15-7 15-15l0-15-30 0z m90-167l0-270-452 0 0 270 332 0 0-63c0-3 1-6 3-9l30-40c3-4 7-6 12-6 5 0 9 2 12 6l30 40c2 3 3 6 3 9l0 63z m-45-210l-220 0c-8 0-15-7-15-15 0-8 7-15 15-15l220 0c8 0 15 7 15 15 0 8-7 15-15 15z m0 60l-130 0c-8 0-15-7-15-15 0-8 7-15 15-15l130 0c8 0 15 7 15 15 0 8-7 15-15 15z m-299-65l0 12c26 0 45 21 45 44 0 24-20 43-44 43l-32 0c-7 0-13 6-13 14 0 7 6 13 14 13l30 0c5 0 11-2 14-6 6-6 16-7 22-1 6 6 6 15 0 21-9 10-22 16-36 16l0 13c0 8-6 15-15 15-8 0-15-7-15-15l0-13c-26 0-44-20-44-43 0-24 19-44 43-44l32 0c7 0 13-6 13-13 0-7-6-13-13-13 0 0 0 0 0 0l-33 0c-4 0-8 1-11 3-7 5-17 3-21-3-5-7-3-17 3-21 11-7 20-10 31-10l0-12c0-8 7-15 15-15 9 0 15 7 15 15z"/>
<glyph glyph-name="invoice" unicode="&#106;" d="M360 256l-212 0c-7 0-13-6-13-13l0-160c0-7 6-13 13-13l212 0c7 0 13 6 13 13l0 160c0 7-6 13-13 13z m-198-80l105 0 0-26-105 0z m131 0l53 0 0-26-53 0z m53 27l-53 0 0 26 53 0z m-79 26l0-26-105 0 0 26z m-105-106l105 0 0-26-105 0z m131-26l0 26 53 0 0-26z m154 311l-100 100c-3 2-7 4-11 4l-230 0c-25 0-45-20-45-45l0-422c0-25 20-45 45-45l300 0c25 0 45 20 45 45l0 352c0 4-2 8-4 11z m-96 53l49-49-49 0z m55-431l-300 0c-8 0-15 7-15 15l0 422c0 8 7 15 15 15l215 0 0-85c0-8 7-15 15-15l85 0 0-337c0-8-7-15-15-15z m-197 259l0 6c26 0 45 21 45 44 0 24-20 43-44 43l-32 0c-7 0-13 6-13 14 0 7 6 13 14 13l30 0c5 0 11-2 14-6 6-6 16-7 22-1 6 6 6 15 0 21-9 10-22 16-36 16l0 7c0 8-6 15-15 15-8 0-15-7-15-15l0-7c-26 0-44-20-44-43 0-24 19-44 43-44l32 0c7 0 13-6 13-13 0-7-6-13-13-13 0 0 0 0 0 0l-33 0c-4 0-8 1-11 3-7 5-17 3-21-3-5-7-3-17 3-21 11-7 20-10 31-10l0-6c0-8 7-15 15-15 9 0 15 7 15 15z"/>
<glyph glyph-name="balance-sheet" unicode="&#107;" d="M431 512l-350 0c-30 0-55-25-55-55l0-444c0-7 6-13 13-13l0 0 349 0c7 0 13 6 13 13l0 389 72 0c7 0 13 6 13 13l0 42c0 30-25 55-55 55z m-56-143l1-344-325 0 0 432c0 17 14 30 30 30l303 0c-9-13-9-19-9-118z m26 58l0 30c0 16 13 30 30 30 16 0 29-14 29-30l0-30z m-194-373c0 6 6 12 12 12l21 0c7 0 12-6 12-12 0-6-5-12-12-12l-21 0c-6 0-12 6-12 12z m74 0c0 6 5 12 12 12l15 0c7 0 12-6 12-12 0-6-5-12-12-12l-15 0c-7 0-12 6-12 12z m51 229l-136 0c-7 0-12-5-12-12l0-46-87 0c-7 0-12-5-12-12l0-114c0-6 5-11 12-11l235 0c6 0 11 5 11 11l0 172c0 7-5 12-11 12z m-148-172l-75 0 0 32 75 0z m0 55l-75 0 0 36 75 0z m68-55l-45 0 0 32 45 0z m0 55l-45 0 0 36 45 0z m68-55l-45 0 0 32 45 0z m0 55l-45 0 0 36 45 0z m0 59l-113 0 0 35 113 0z m-169 55l0 12c26 0 45 21 45 44 0 24-20 43-44 43l-32 0c-7 0-13 6-13 14 0 7 6 13 14 13l30 0c5 0 11-2 14-6 6-6 16-7 22-1 6 6 6 15 0 21-9 10-22 16-36 16l0 13c0 8-6 15-15 15-8 0-15-7-15-15l0-13c-26 0-44-20-44-43 0-24 20-44 44-44l31 0c8 0 14-6 14-13 0-7-6-13-14-13 0 0 0 0 0 0l-33 0c-4 0-8 1-11 3-7 5-16 3-21-3-5-7-3-17 4-21 10-8 20-10 30-10l0-12c0-8 7-15 15-15 9 0 15 7 15 15z"/>
<glyph glyph-name="bank" unicode="&#108;" d="M22 10c-6 0-12 5-12 12l0 20c0 14 8 26 20 31l0 31c0 6 6 12 13 12l8 0 0 158-8 0c-7 0-13 6-13 12l0 29-8 0c-4 0-8 2-10 5-4 6-2 13 3 17l234 163c2 1 5 2 7 2 3 0 5-1 7-2l234-163c3-2 5-6 5-10 0-7-5-12-12-12l-8 0 0-29c0-6-6-12-13-12l-8 0 0-63c42-35 53-94 27-142 9-6 14-16 14-27l0-20c0-7-6-12-12-12z m456 24l0 8c0 3-2 6-4 7-5-5-10-10-16-15z m-90 179c-49 0-89-40-89-89 0-50 40-90 89-90 50 0 90 40 90 90 0 49-40 89-90 89z m-345-162c-5 0-9-4-9-9l0-8 284 0c-6 5-12 11-17 17l-258 0z m150 24l0 28c0 7 6 13 12 13l8 0 0 158-8 0c-6 0-12 6-12 12l0 29-37 0 0-29c0-6-5-12-12-12l-8 0 0-158 8 0c7 0 12-6 12-13l0-28z m93 0c-3 5-5 11-7 16l-62 0 0-16z m-154 0l0 16-77 0 0-16z m142 199l-36 0 0-158 36 0z m-162 0l-37 0 0-158 37 0z m187-80c19 24 46 40 77 43l0 37-8 0c-7 0-12 6-12 12l0 29-37 0 0-29c0-6-5-12-12-12l-8 0 0-80z m101 43c13-1 25-5 37-10l0 47-37 0z m57 62l0 16-77 0 0-16z m-162 0l0 16-78 0 0-16z m-163 0l0 16-77 0 0-16z m319 40l-195 136-195-136z m-55-200l-16 0c-5 0-9 4-9 9 0 14 18 13 32 10 7-1 12-5 20-2 11 3 10 17 4 23-6 6-17 6-24 8 0 9-6 16-15 16-9 0-15-8-15-17-18-3-32-19-32-38 0-22 18-39 39-39l16 0c5 0 9-4 9-9 0-4-2-8-6-9-14-5-27 4-41 5-8 0-15-8-15-15 0-6 4-12 9-14 7-3 13-4 21-6 0-9 6-17 15-17 10 0 15 8 15 17 18 3 32 19 32 39 0 21-17 39-39 39z"/>
<glyph glyph-name="bill" unicode="&#109;" d="M22 2c-7 0-14 6-14 15l0 411c0 45 36 82 81 82l334 0c45 0 82-37 82-82l0-100c0-26-22-48-49-48l-85 0 0-263c0-10-8-15-15-15-3 0-6 1-9 3l-33 26-32-26c-3-2-6-3-9-3-4 0-7 1-10 3l-32 26-33-26c-2-2-6-3-9-3-3 0-7 1-9 3l-33 26-32-26c-3-2-6-3-10-3-3 0-6 1-9 3l-32 26-33-26c-2-2-5-3-9-3z m209 63c3 0 7-1 9-3l33-26 32 26c3 2 6 3 10 3 3 0 6-1 9-3l18-15 0 381c0 18 5 35 16 49l2 4-271 0c-29 0-52-24-52-53l0-381 18 15c3 2 6 3 9 3 3 0 7-1 9-3l33-26 33 26c2 2 5 3 9 3 3 0 6-1 9-3l33-26 32 26c2 2 6 3 9 3z m192 416c-29 0-52-24-52-53l0-118 85 0c11 0 19 8 19 18l0 100c0 29-23 53-52 53z m-334-67c-8 0-15 6-15 14 0 9 7 15 15 15l200 0c9 0 15-6 15-15 0-8-6-14-15-14z m0-67c-8 0-15 7-15 15 0 8 7 14 15 14l200 0c9 0 15-6 15-14 0-8-6-15-15-15z m109-219l0 12c26 0 45 21 45 44 0 24-20 43-44 43l-32 0c-7 0-13 6-13 14 0 7 6 13 14 13l30 0c5 0 11-2 14-6 6-6 16-7 22-1 6 6 6 15 0 21-9 10-22 16-36 16l0 13c0 8-6 15-15 15-8 0-15-7-15-15l0-13c-26 0-44-20-44-43 0-24 19-44 43-44l32 0c7 0 13-6 13-13 0-7-6-13-13-13 0 0 0 0 0 0l-33 0c-4 0-8 1-11 3-7 5-17 3-21-3-5-7-3-17 3-21 11-7 20-10 31-10l0-12c0-8 7-15 15-15 9 0 15 7 15 15z"/>
<glyph glyph-name="dollar-bill" unicode="&#110;" d="M447 408l-100 100c-3 2-7 4-11 4l-230 0c-25 0-45-20-45-45l0-422c0-25 20-45 45-45l300 0c25 0 45 20 45 45l0 352c0 4-2 8-4 11z m-96 53l49-49-49 0z m70-416c0-8-7-15-15-15l-300 0c-8 0-15 7-15 15l0 422c0 8 7 15 15 15l215 0 0-85c0-8 7-15 15-15l85 0z m-277 124c0-8 8-16 14-16l197 0c6 0 13 8 13 16 0 8-8 14-13 14l-197 0c-6 0-14-6-14-14z m158-48l-144 0c-6 0-14-6-14-14 0-9 8-16 14-16l144 0c6 0 13 7 13 16 0 8-7 14-13 14z m-90 193c0 0 0 0 0 0l-33 0c-4 0-8 1-11 3-7 5-16 3-21-3-5-7-3-17 4-21 10-8 20-10 30-10l0-12c0-8 7-15 15-15 9 0 15 7 15 15l0 12c27 0 45 21 45 44 0 24-20 43-44 43l-31 0c-8 0-14 6-14 14 0 7 6 13 14 13l30 0c5 0 11-2 14-6 6-6 16-7 22-1 6 6 6 15 0 21-9 10-22 16-36 16l0 13c0 8-6 15-15 15-8 0-15-7-15-15l0-13c-26 0-44-20-44-43 0-24 20-44 44-44l31 0c8 0 14-6 14-13-1-8-7-13-14-13z"/>
<glyph glyph-name="expensesheet" unicode="&#111;" d="M426 512l-340 0c-8 0-15-7-15-15l0-482c0-8 7-15 15-15l340 0c8 0 15 7 15 15l0 482c0 8-7 15-15 15z m-15-482l-310 0 0 452 310 0z m-265 111l113 0c8 0 15 7 15 15 0 8-7 15-15 15l-113 0c-8 0-15-7-15-15 0-8 7-15 15-15z m220 30l-47 0c-8 0-15-7-15-15 0-8 7-15 15-15l47 0c8 0 15 7 15 15 0 8-7 15-15 15z m-220-90l113 0c8 0 15 7 15 15 0 8-7 15-15 15l-113 0c-8 0-15-7-15-15 0-8 7-15 15-15z m220 30l-47 0c-8 0-15-7-15-15 0-8 7-15 15-15l47 0c8 0 15 7 15 15 0 8-7 15-15 15z m-220 90l113 0c8 0 15 7 15 15 0 8-7 15-15 15l-113 0c-8 0-15-7-15-15 0-8 7-15 15-15z m220 30l-47 0c-8 0-15-7-15-15 0-8 7-15 15-15l47 0c8 0 15 7 15 15 0 8-7 15-15 15z m-155 40l0 12c26 0 45 21 45 44 0 24-20 43-44 43l-32 0c-7 0-13 6-13 14 0 7 6 13 14 13l30 0c5 0 11-2 14-6 6-6 16-7 22-1 6 6 6 15 0 21-9 10-22 16-36 16l0 13c0 8-6 15-15 15-8 0-15-7-15-15l0-13c-26 0-44-20-44-43 0-24 19-44 43-44l32 0c7 0 13-6 13-13 0-7-6-13-13-13 0 0 0 0 0 0l-33 0c-4 0-8 1-11 3-7 5-17 3-21-3-5-7-3-17 3-21 11-7 20-10 31-10l0-12c0-8 7-15 15-15 9 0 15 7 15 15z"/>
<glyph glyph-name="investment" unicode="&#112;" d="M511 156c-4 40-17 80-38 114-16 27-35 51-59 70 11 9 18 21 18 36 0 15-7 28-19 37 19 19 29 45 29 73 0 6-3 11-8 13-5 3-11 3-15-1-23-14-51-14-74 0-5 4-11 4-16 0-23-14-51-14-74 0-4 4-10 4-15 1-5-2-8-7-8-13 0-28 10-54 29-73-12-9-19-22-19-37 0-15 7-27 18-36-37-31-66-72-82-119l-123 0c-8 0-15-7-15-15l0-45-25 0c-8 0-15-7-15-15l0-60c0-8 7-15 15-15l25 0 0-45c0-8 7-15 15-15l180 0c8 0 15 7 15 15l0 25c2 0 5 0 7 0l160 0c27 0 53 12 71 32 18 20 26 47 23 73z m-174 313c22-12 47-15 71-8-6-16-16-30-31-40l-80 0c-15 10-25 24-31 40 24-7 49-4 71 8z m65-93c0-8-7-15-15-15l-100 0c-8 0-15 7-15 15 0 8 7 15 15 15l100 0c8 0 15-7 15-15z m-332-185l150 0 0-30-150 0z m-40-90l0 30 150 0 0-30z m190-60l-150 0 0 30 150 0z m246 62c-13-14-31-22-49-22l-160 0c-2 0-5 0-7 0l0 5c0 8-7 15-15 15l-25 0 0 30 25 0c8 0 15 7 15 15l0 60c0 8-7 15-15 15l-25 0c18 45 48 83 87 110l80 0c58-40 96-105 105-178 2-19-4-36-16-50z m-110 13l0 12c26 0 45 21 45 44 0 24-20 43-44 43l-32 0c-7 0-13 6-13 14 0 7 6 13 14 13l30 0c5 0 11-2 14-6 6-6 16-7 22-1 6 6 6 15 0 21-9 10-22 16-36 16l0 13c0 8-6 15-15 15-8 0-15-7-15-15l0-13c-26 0-44-20-44-43 0-24 19-44 43-44l32 0c7 0 13-6 13-13 0-7-6-13-13-13 0 0 0 0 0 0l-33 0c-4 0-8 1-11 3-7 5-17 3-21-3-5-7-3-17 3-21 11-7 20-10 31-10l0-12c0-8 7-15 15-15 9 0 15 7 15 15z"/>
<glyph glyph-name="money" unicode="&#113;" d="M55 92c-14 0-28 5-38 16-10 10-15 23-15 37l0 222c0 14 5 27 15 37 10 10 24 16 38 16l402 0c14 0 28-6 38-16 10-10 15-23 15-37l0-222c0-14-5-27-15-37-10-10-24-16-38-16l-402 0z m420 84c-22-10-39-27-48-48l-1-3 31 0c6 0 11 2 14 6 4 4 6 9 6 14l0 32z m-355 210c-5-20-16-39-31-54-15-14-33-25-53-32l-1 0 0-88 1-1c20-6 38-17 53-31 15-15 26-34 31-54l1-1 270 0 1 1c5 20 16 39 31 54 15 14 33 25 53 31l1 1 0 88-1 0c-20 6-38 17-53 32-15 15-26 34-31 54l-1 1-270 0z m-85-241c0-5 2-10 6-14 3-4 9-6 14-6l31 0-1 3c-9 21-26 38-48 48l-2 1z m392 239c9-21 26-39 48-48l2-1 0 32c0 5-2 10-6 14-3 4-9 6-14 6l-31 0z m-372 3c-6 0-11-2-14-6-4-4-6-9-6-14l0-32 2 1c22 9 39 27 48 48l1 3z m201-203c-5 0-9 1-14 2-14 2-26 9-36 19-10 10-17 23-20 37-3 14-1 28 4 41 6 14 15 25 27 33 11 8 25 12 39 12 19 0 37-8 50-21 14-14 21-32 21-51 0-14-4-28-12-40-8-12-19-21-32-26-8-4-18-6-27-6z m0 111c-2 0-5 0-8-1-7-1-14-5-19-10-6-6-9-13-11-20-1-8 0-16 2-23 3-7 8-13 15-17 6-5 13-7 21-7 10 0 20 4 27 11 8 8 12 18 12 28 0 8-3 15-7 22-4 6-10 11-17 14-5 2-10 3-15 3z m-165-55c-4 0-8 1-11 4-3 3-5 8-5 12 0 4 2 8 5 12 3 3 7 4 11 4l37 0c4 0 8-1 12-4 3-4 4-8 4-12 0-4-1-9-4-12-4-3-8-4-12-4z m293 0c-4 0-8 1-12 4-3 3-4 8-4 12 0 4 1 8 4 12 4 3 8 4 12 4l37 0c4 0 8-1 11-4 3-4 5-8 5-12 0-4-2-9-5-12-3-3-7-4-11-4z"/>
<glyph glyph-name="rupee" unicode="&#114;" d="M372 10c-5 0-8 2-11 4l-232 231c-4 5-5 11-3 17 3 6 8 9 14 9l87 0c43 0 81 27 95 67l6 18-246 0c-8 0-15 7-15 15 0 9 7 15 15 15l246 0-6 19c-14 39-52 66-95 66l-144 0c-9 0-16 7-16 16 0 8 7 15 15 15l347 0c9 0 16-7 16-15 0-9-7-15-16-15l-114 0 17-22c11-16 20-34 23-52l3-11 71 0c9 0 16-7 16-15 0-9-7-16-16-16l-71 0-3-10c-12-61-66-105-128-105l-50 0 205-205c3-3 5-6 5-11 0-4-2-7-5-10l0-1c-3-2-6-4-10-4z"/>
<glyph glyph-name="dollar" unicode="&#115;" d="M253 3c-8 0-15 7-15 15l0 38-16 5c-43 15-73 56-73 102 0 9 7 15 15 15 8 0 15-6 15-15 0-38 28-71 66-77l2 0 2 0c2 0 3 0 4 0l0 0c1 0 1 0 1 0 1 0 2 0 3 0l0 0 1 0 3 0c41 2 74 38 73 79-1 43-36 77-78 77-53 0-99 40-106 94-7 51 23 100 72 116l16 5 0 37c0 8 7 15 15 15 8 0 15-7 15-15l0-36 17-5c46-12 79-55 79-103 0-9-7-15-15-15-8 0-15 6-15 15 0 43-35 78-78 78-43 0-78-35-78-78 0-43 35-78 78-78 55 0 101-42 107-97 5-52-28-101-79-115l-17-5 0-37c1-8-6-15-14-15z"/>
<glyph glyph-name="multicurrency" unicode="&#116;" d="M177 366l-33 0c-8 0-14 7-14 15 0 8 6 14 14 14 0 0 0 0 1 0l31 0c5 0 11-3 15-7 6-6 15-6 21-1 6 6 7 15 1 22-10 10-23 16-37 16 0 0 0 0 0 0l0 0 0 13c0 9-7 15-15 15-9 0-15-6-15-15l0-13c-28 0-46-21-46-44 0-25 20-45 44-45l33 0c8 0 14-6 14-14 0-8-6-14-14-14 0 0 0 0 0 0l-34 0c-4 0-9 1-12 4-7 5-16 3-21-4-5-7-3-16 4-21 10-7 20-9 32-9l0-14c0-8 6-15 15-15 8 0 15 7 15 15l0 14c27 0 45 21 45 44 0 24-20 44-44 44z m141-48c21 100-56 194-157 194-89 0-161-72-161-161 0-101 94-178 194-157-21-100 56-194 157-194 89 0 161 72 161 161 0 101-94 178-194 157z m-288 33c0 72 59 131 131 131 90 0 154-91 122-176-34-16-61-43-77-77-85-32-176 32-176 122z m321-321c-72 0-130 59-130 131 0 72 58 130 130 130 72 0 131-58 131-130 0-72-59-131-131-131z m52 78c-21 7-43 9-65 6 3 10 5 19 7 29l18 0c8 0 15 7 15 15 0 8-7 15-15 15l-18 0c0 5 0 6-1 18-2 19 22 29 34 15 6-6 15-7 21-1 7 5 7 15 2 21-32 36-93 10-87-38 1-13 1-12 1-15l-10 0c-9 0-15-7-15-15 0-8 6-15 15-15l9 0c-2-15-7-29-14-42-7-12 4-26 17-22 25 7 49 9 77 0 8-2 16 2 19 10 2 8-2 16-10 19z m-29 357c29 0 61-23 61-64l0-14-14 13c-6 6-15 6-21 0-6-5-6-15 0-21l39-39c6-6 16-6 22 0l39 39c6 6 6 16 0 21-6 6-16 6-21 0l-14-13 0 14c0 55-42 94-91 94-8 0-15-7-15-15 0-9 7-15 15-15z m-236-418c-29 0-61 23-61 64l0 14 14-13c6-6 15-6 21 0 6 5 6 15 0 21l-39 39c-6 6-16 6-22 0l-39-39c-6-6-6-16 0-21 6-6 16-6 21 0l14 13 0-14c0-55 42-94 91-94 8 0 15 7 15 15 0 9-7 15-15 15z"/>
<glyph glyph-name="form-16" unicode="&#117;" d="M102 512l319 0c26 0 47-21 47-48l0-416c0-27-21-48-47-48l-319 0c-15 0-27 12-27 27l0 38-16 0c-9 0-15 6-15 15 0 8 6 15 15 15l16 0 0 58-16 0c-9 0-15 7-15 15 0 8 6 15 15 15l16 0 0 58-16 0c-9 0-15 7-15 15 0 8 6 15 15 15l16 0 0 58-16 0c-9 0-15 7-15 15 0 8 6 15 15 15l16 0 0 58-16 0c-9 0-15 7-15 15 0 8 6 15 15 15l16 0 0 38c0 15 12 27 27 27z m319-482c10 0 18 8 18 18l0 416c0 10-8 18-18 18l-316 0 0-452z m-258 297l226 0c8 0 15 7 15 15l0 80c0 8-7 15-15 15l-226 0c-8 0-15-7-15-15l0-80c0-8 7-15 15-15z m15 80l196 0 0-50-196 0z m-26-246c-2 0-3 0-4 1-2 0-3 1-4 2-1 1-1 2-2 3-1 2-1 3-1 5l0 58c0 1 0 3 1 4 0 1 1 2 2 3 2 2 4 3 8 3l31 0c1 0 3 0 4 0 1-1 2-2 3-3 1-1 2-2 3-3 0-2 0-3 0-4 0-2 0-3 0-4-1-2-2-3-3-4-1-1-2-2-3-2-1-1-3-1-4-1l-21 0 0-9 15 0c1 0 3-1 4-1 1-1 2-1 3-2 1-1 2-2 3-4 0-1 1-2 1-4 0-1-1-3-1-4-1-1-2-2-3-3-1-1-2-2-3-2-1-1-3-1-4-1l-15 0 0-17c0-2 0-3-1-4 0-2-1-3-2-4-1-1-2-1-3-2-1-1-3-1-4-1z m71 0c-4 0-8 1-11 3-4 1-7 3-10 6-3 3-5 6-7 10-1 4-2 8-2 13l0 16c0 5 1 10 2 14 2 4 4 7 7 10 3 2 6 5 10 6 3 1 7 2 11 2 4 0 8-1 11-2 4-1 7-4 10-6 3-3 5-7 7-11 1-3 2-8 2-13l-21 0c0 5-1 7-3 9-2 1-4 2-6 2-3 0-4-1-6-2-2-2-3-5-3-9l0-16c0-4 1-7 3-8 2-2 3-2 6-2 2 0 4 0 6 2 2 1 3 4 3 8l0 16 21 0 0-16c0-5-1-9-2-13-2-4-4-7-7-10-3-3-6-5-10-6-3-2-7-3-11-3z m48 1c-2 0-3 0-4 1-2 0-3 1-4 2-1 1-2 2-2 3-1 2-1 3-1 4l0 58c0 1 0 2 1 4 0 1 1 2 2 3 1 1 2 2 4 3 1 0 2 0 4 0l23 0c4 0 8 0 12-2 3-2 7-4 9-7 3-3 5-6 7-10 2-4 2-8 2-12 0-4-1-9-2-13-2-4-5-7-8-10l5-6c2-2 3-5 3-7 0-2 0-3-1-5 0-1-1-2-2-3-1-1-2-2-3-2-2-1-3-1-4-1-3 0-6 1-8 3l-11 13-12 0 0-6c0-1 0-3 0-4-1-1-2-2-3-3-1-1-2-2-3-3-2 0-3 0-4 0z m23 37c1 0 2 0 3 1 1 1 2 1 3 2 2 2 3 5 3 7 0 1 0 3-1 4 0 1-1 2-2 3-1 1-2 2-3 2-1 1-2 1-3 1l-13 0 0-20 13 0z m45-37c-2 0-3 0-5 1-1 0-2 1-3 2-1 1-2 2-2 4-1 1-1 2-1 4l0 41c0 4 0 7 2 11 1 3 3 6 5 8 3 2 6 4 9 6 3 1 7 2 10 2 6 0 11-2 16-5 2 1 4 3 7 3 3 1 6 2 8 2 4 0 7-1 11-2 3-2 6-3 8-6 3-2 4-5 6-8 1-4 2-7 2-11l0-41c0-2 0-3-1-4-1-2-1-3-2-4-1-1-2-2-4-2-1-1-2-1-4-1-1 0-3 0-4 1-2 0-3 1-4 2-1 1-2 2-2 4-1 1-1 2-1 4l0 41c0 1-1 2-1 3-1 1-2 1-4 1-1 0-2 0-3-1-1-1-1-2-1-3l0-41c0-2 0-3-1-4-1-2-1-3-2-4-1-1-2-2-4-2-1-1-2-1-4-1-1 0-3 0-4 1-2 0-3 1-4 2-1 1-2 2-2 4-1 1-1 2-1 4l0 41c0 1 0 2-1 3-1 1-2 1-4 1-1 0-2 0-3-1-1-1-1-2-1-3l0-41c0-2-1-3-1-4-1-2-1-3-2-4-1-1-3-2-4-2-1-1-3-1-4-1z m-86-97c-1 0-3 1-4 1-1 1-2 1-3 2-1 1-2 3-3 4 0 1-1 3-1 4l0 39c-1 0-2 0-3 0-1 0-3 0-4 0-1 1-2 2-3 3-1 0-2 2-2 3-1 1-1 3-1 4 0 2 0 4 1 5 1 2 2 3 4 4l13 8c2 1 4 2 6 2 2 0 3-1 4-1 1-1 2-1 3-2 2-2 3-5 3-8l0 0 0 0 0-57c0-2 0-3 0-4-1-2-2-3-2-4-2-2-5-3-8-3z m44 0c-4 0-7 1-11 2-3 2-6 4-9 6-3 3-5 6-7 10-1 3-2 7-2 11 0 6 2 11 5 16l16 29c1 2 2 3 4 4 2 1 3 2 5 2 3 0 6-1 8-3 1-1 2-3 2-4 1-1 1-2 1-3 0-3-1-4-2-6l-4-7c4 0 7-2 9-3 3-2 6-4 8-7 2-2 3-5 5-8 1-3 1-7 1-10 0-4-1-8-2-11-2-4-4-7-6-10-3-2-6-4-10-6-3-2-7-2-11-2z m0 21c1 0 2 0 3 1 1 0 2 1 3 1 1 2 2 4 2 6 0 2-1 4-2 5-2 2-4 3-6 3-1 0-2-1-3-1-1 0-2-1-2-2-2-1-3-3-3-5 0-2 1-4 3-6 1-1 3-2 5-2z"/>
<glyph glyph-name="compensation" unicode="&#118;" d="M263 204c-77 0-140 63-140 140 0 77 63 140 140 140 77 0 140-63 140-140 0-77-63-140-140-140z m0 250c-60 0-110-49-110-110 0-60 50-110 110-110 61 0 110 50 110 110 0 61-49 110-110 110z m20-426c-8 0-17 1-25 2l0 0c0 0-1 0-1 0l0 0-114 32c-2 1-5 1-7 1-5 0-9-1-13-3l-16-9 0-4c-1-8-7-15-15-15l-1 0-73 2c-8 1-15 8-15 16l5 161c0 8 7 14 15 14l0 0 73-2c4 0 8-1 11-4 3-3 4-7 4-11l0-6c16 7 33 10 50 10 20 0 40-5 58-14l7-3c8-5 18-7 28-7l67-2c21-1 40-12 52-30l68 32c7 4 15 6 23 6 19 0 36-10 46-27 4-7 1-16-5-20l-165-107c0 0-1 0-1 0 0-1-1-1-1-1l0 0c-17-8-34-12-53-12l-2 0z m-147 66c5 0 10-1 15-3l114-31c6-2 13-2 19-2 14 0 28 3 40 8l149 96c-3 1-6 2-9 2-4 0-7-1-10-2 0 0 0-1 0-1l0 0 0 0-71-33c1-3 1-6 1-9-1-8-7-14-15-14l-1 0-110 3c-8 0-15 7-14 15 0 8 6 15 15 15l0 0 91-3c-5 12-17 20-30 21l-67 2c-14 0-29 4-41 10l-7 4c-14 7-29 11-44 11-18 0-36-5-51-15l-2-81 1 0c8 4 17 7 27 7z m-59-31l4 131-44 1-3-131z m188 182c-9 0-15 7-15 15l0 13-2 0c-11 0-20 2-29 9-6 4-8 14-3 20 2 4 7 7 12 7 3 0 6-1 8-3 4-2 8-4 11-4l33 0c8 0 13 6 13 13 0 8-5 14-13 14l-31 0c-24 0-43 19-43 43 0 23 19 42 42 42l2 1 0 12c0 8 6 15 15 15 8 0 15-7 15-15l0-12 1-1c13 0 25-6 34-15 6-6 5-16-1-21-2-3-6-4-10-4-4 0-8 1-11 4-3 4-9 7-14 7l-30 0c-7 0-13-6-13-13 0-8 6-14 13-14l31 0c24 0 43-19 43-43 0-23-18-42-42-42l-1-1 0-12c-1-8-7-15-15-15z"/>
<glyph glyph-name="credit-card" unicode="&#119;" d="M319 143c-23 0-45 7-63 22-17-14-40-22-64-22-33 0-64 15-83 41-1 0-2 1-2 2-13 20-20 41-20 62 0 23 7 44 20 63l0 0 1 1c20 26 51 41 84 41 23 0 45-7 64-22 18 15 40 22 63 22 28 0 55-11 75-31 19-20 30-46 30-74 0-28-11-54-30-74-20-20-47-31-75-31z m-45 41c12-9 28-14 45-14 21 0 42 9 57 24 14 15 21 34 21 54 0 43-35 78-78 78-15 0-31-5-44-14 0-1 1-1 1-2l2-2 0 0c10-16 16-32 17-49l0-22c-1-17-7-34-17-48l-2-2c-1-1-1-2-2-3z m-119-4c11-6 24-10 37-10 10 0 24 2 37 10z m102 26c0 0 0 0 0 1l0 0 0 0c2 3 4 6 5 8l-143 0c2-3 4-6 5-9l133 0z m12 37l0 8-155 0 0-8z m-6 36c0 1 0 2-1 2-1 3-2 5-3 7l-1 1-133 0c-2-2-3-5-4-8 0 0-1-1-1-1l143 0z m-34 37c-11 6-24 10-37 10-13 0-26-4-37-10z m-143-222c-20 0-39 8-53 22-14 14-21 32-21 52l0 160c0 20 7 39 21 53 14 14 33 22 53 22l339 0c42 0 76-34 76-75l0-160c0-20-8-38-22-52-14-14-33-22-53-22l-340 0z m0 279c-25 0-45-20-45-45l0-160c0-25 20-44 45-44l340 0c25 0 45 19 45 44l0 160c0 25-20 45-45 45z"/>
<glyph glyph-name="png" unicode="&#120;" d="M467 512l-350 0c-25 0-45-20-45-45l0-76-36 0c-20 0-36-16-36-36l0-198c0-20 16-36 36-36l36 0 0-76c0-25 20-45 45-45l350 0c25 0 45 20 45 45l0 422c0 25-20 45-45 45z m-437-355l0 198c0 3 3 6 6 6l380 0c3 0 6-3 6-6l0-198c0-3-3-6-6-6l-380 0c-3 0-6 3-6 6z m452-112c0-8-7-15-15-15l-350 0c-8 0-15 7-15 15l0 76 314 0c20 0 36 16 36 36l0 198c0 20-16 36-36 36l-314 0 0 76c0 8 7 15 15 15l350 0c8 0 15-7 15-15z m-400 195l0-39-27 0 0 114 45 0c9 0 17-2 23-5 7-3 12-8 16-14 3-6 5-12 5-20 0-11-4-20-12-26-8-7-18-10-32-10z m0 21l18 0c5 0 10 1 12 4 3 2 5 6 5 11 0 5-2 10-5 13-3 3-7 5-12 5l-18 0z m188-60l-27 0-41 71 0-71-27 0 0 114 27 0 41-71 0 71 27 0z m126 14c-4-5-10-8-18-11-8-3-17-5-27-5-15 0-27 5-35 14-9 9-14 22-15 38l0 10c0 11 2 21 6 29 4 9 10 15 17 20 7 4 16 6 26 6 14 0 25-3 33-9 8-7 12-16 13-29l-26 0c-1 6-3 11-6 13-3 3-8 4-13 4-7 0-13-3-16-8-4-6-6-15-6-25l0-7c0-12 2-20 6-26 4-6 10-8 18-8 7 0 13 1 16 4l0 18-19 0 0 19 46 0z"/>
<glyph glyph-name="jpg" unicode="&#121;" d="M467 512l-350 0c-25 0-45-20-45-45l0-76-36 0c-20 0-36-16-36-36l0-198c0-20 16-36 36-36l36 0 0-76c0-25 20-45 45-45l350 0c25 0 45 20 45 45l0 422c0 25-20 45-45 45z m-437-355l0 198c0 3 3 6 6 6l380 0c3 0 6-3 6-6l0-198c0-3-3-6-6-6l-380 0c-3 0-6 3-6 6z m452-112c0-8-7-15-15-15l-350 0c-8 0-15 7-15 15l0 76 314 0c20 0 36 16 36 36l0 198c0 20-16 36-36 36l-314 0 0 76c0 8 7 15 15 15l350 0c8 0 15-7 15-15z m-371 270l28 0 0-78c0-8-2-14-5-20-4-5-8-10-15-13-6-3-12-5-20-5-12 0-22 4-29 10-6 6-10 15-10 26l28 0c0-5 1-9 2-11 2-2 5-3 9-3 4 0 7 1 9 4 2 3 3 7 3 12z m88-75l0-39-27 0 0 114 45 0c9 0 17-2 23-5 7-3 12-8 16-14 4-6 5-12 5-20 0-11-3-20-11-26-8-7-19-10-33-10z m0 21l18 0c6 0 10 1 12 4 3 2 5 6 5 11 0 5-2 10-5 13-2 3-6 5-11 5l-19 0z m186-46c-4-5-10-8-18-11-8-3-17-5-27-5-15 0-27 5-36 14-9 9-13 22-14 38l0 10c0 11 2 21 6 29 4 9 10 15 17 20 7 4 16 6 26 6 14 0 25-3 32-9 8-7 13-16 14-29l-26 0c-1 6-3 11-6 13-3 3-8 4-14 4-6 0-12-3-15-8-4-6-6-15-6-25l0-7c0-12 2-20 6-26 3-6 10-8 18-8 7 0 12 1 16 4l0 18-19 0 0 19 46 0z"/>
<glyph glyph-name="pdf" unicode="&#122;" d="M467 512l-350 0c-25 0-45-20-45-45l0-76-36 0c-20 0-36-16-36-36l0-198c0-20 16-36 36-36l36 0 0-76c0-25 20-45 45-45l350 0c25 0 45 20 45 45l0 422c0 25-20 45-45 45z m-437-355l0 198c0 3 3 6 6 6l380 0c3 0 6-3 6-6l0-198c0-3-3-6-6-6l-380 0c-3 0-6 3-6 6z m452-112c0-8-7-15-15-15l-350 0c-8 0-15 7-15 15l0 76 314 0c20 0 36 16 36 36l0 198c0 20-16 36-36 36l-314 0 0 76c0 8 7 15 15 15l350 0c8 0 15-7 15-15z m-385 195l0-39-27 0 0 114 45 0c9 0 17-2 23-5 7-3 12-8 16-14 4-6 6-12 6-20 0-11-4-20-12-26-8-7-19-10-33-10z m0 21l18 0c6 0 10 1 13 4 2 2 4 6 4 11 0 5-2 10-5 13-2 3-6 5-11 5l-19 0z m93-60l0 114 37 0c10 0 19-3 27-7 8-5 14-11 19-19 4-9 7-18 7-28l0-6c0-10-3-19-7-28-4-8-11-14-19-19-8-5-16-7-26-7z m28 93l0-72 9 0c8 0 14 3 18 8 5 6 7 14 7 25l0 5c0 11-2 20-7 25-4 6-10 9-18 9z m163-48l-44 0 0-45-27 0 0 114 76 0 0-21-49 0 0-27 44 0z"/>
<glyph glyph-name="ppt" unicode="&#65;" d="M467 512l-350 0c-25 0-45-20-45-45l0-76-36 0c-20 0-36-16-36-36l0-198c0-20 16-36 36-36l36 0 0-76c0-25 20-45 45-45l350 0c25 0 45 20 45 45l0 422c0 25-20 45-45 45z m-437-355l0 198c0 3 3 6 6 6l380 0c3 0 6-3 6-6l0-198c0-3-3-6-6-6l-380 0c-3 0-6 3-6 6z m452-112c0-8-7-15-15-15l-350 0c-8 0-15 7-15 15l0 76 314 0c20 0 36 16 36 36l0 198c0 20-16 36-36 36l-314 0 0 76c0 8 7 15 15 15l350 0c8 0 15-7 15-15z m-392 195l0-39-27 0 0 114 45 0c9 0 17-2 23-5 7-3 12-8 16-14 4-6 5-12 5-20 0-11-4-20-12-26-7-7-18-10-32-10z m0 21l18 0c6 0 10 1 12 4 3 2 5 6 5 11 0 5-2 10-5 13-3 3-6 5-11 5l-19 0z m121-21l0-39-28 0 0 114 46 0c8 0 16-2 23-5 6-3 11-8 15-14 4-6 6-12 6-20 0-11-4-20-12-26-8-7-19-10-33-10z m0 21l18 0c5 0 9 1 12 4 2 2 4 6 4 11 0 5-2 10-4 13-3 3-7 5-12 5l-18 0z m182 33l-34 0 0-93-28 0 0 93-33 0 0 21 95 0z"/>
<glyph glyph-name="txt" unicode="&#66;" d="M467 512l-350 0c-25 0-45-20-45-45l0-76-36 0c-20 0-36-16-36-36l0-198c0-20 16-36 36-36l36 0 0-76c0-25 20-45 45-45l350 0c25 0 45 20 45 45l0 422c0 25-20 45-45 45z m-437-355l0 198c0 3 3 6 6 6l380 0c3 0 6-3 6-6l0-198c0-3-3-6-6-6l-380 0c-3 0-6 3-6 6z m452-112c0-8-7-15-15-15l-350 0c-8 0-15 7-15 15l0 76 314 0c20 0 36 16 36 36l0 198c0 20-16 36-36 36l-314 0 0 76c0 8 7 15 15 15l350 0c8 0 15-7 15-15z m-327 249l-34 0 0-93-27 0 0 93-34 0 0 21 95 0z m70-17l19 38 31 0-31-57 32-57-31 0-20 39-19-39-31 0 32 57-31 57 31 0z m165 17l-34 0 0-93-27 0 0 93-34 0 0 21 95 0z"/>
<glyph glyph-name="xls" unicode="&#67;" d="M467 512l-350 0c-25 0-45-20-45-45l0-76-36 0c-20 0-36-16-36-36l0-198c0-20 16-36 36-36l36 0 0-76c0-25 20-45 45-45l350 0c25 0 45 20 45 45l0 422c0 25-20 45-45 45z m-437-355l0 198c0 3 3 6 6 6l380 0c3 0 6-3 6-6l0-198c0-3-3-6-6-6l-380 0c-3 0-6 3-6 6z m452-112c0-8-7-15-15-15l-350 0c-8 0-15 7-15 15l0 76 314 0c20 0 36 16 36 36l0 198c0 20-16 36-36 36l-314 0 0 76c0 8 7 15 15 15l350 0c8 0 15-7 15-15z m-367 232l19 38 31 0-31-57 32-57-31 0-20 39-19-39-31 0 32 57-31 57 31 0z m104-55l47 0 0-21-75 0 0 114 28 0z m134 9c0 4-2 7-5 10-2 2-7 4-15 7-7 2-13 4-17 7-15 7-22 17-22 29 0 7 2 12 5 17 4 5 9 9 16 11 7 3 14 4 23 4 8 0 15-1 22-4 6-3 11-7 15-13 3-5 5-11 5-18l-27 0c0 5-2 8-5 11-2 2-6 4-11 4-5 0-9-1-12-4-3-2-4-5-4-8 0-3 2-5 5-8 3-2 8-5 16-7 8-3 15-5 20-8 12-7 18-17 18-30 0-10-4-17-11-23-8-6-18-9-31-9-9 0-18 2-25 5-8 4-13 8-17 14-4 6-6 12-6 20l28 0c0-6 1-11 5-14 3-3 8-4 15-4 4 0 8 1 11 3 2 2 4 5 4 8z"/>
<glyph glyph-name="zip" unicode="&#68;" d="M467 512l-350 0c-25 0-45-20-45-45l0-76-36 0c-20 0-36-16-36-36l0-198c0-20 16-36 36-36l36 0 0-76c0-25 20-45 45-45l350 0c25 0 45 20 45 45l0 422c0 25-20 45-45 45z m-437-355l0 198c0 3 3 6 6 6l380 0c3 0 6-3 6-6l0-198c0-3-3-6-6-6l-380 0c-3 0-6 3-6 6z m452-112c0-8-7-15-15-15l-350 0c-8 0-15 7-15 15l0 76 314 0c20 0 36 16 36 36l0 198c0 20-16 36-36 36l-314 0 0 76c0 8 7 15 15 15l350 0c8 0 15-7 15-15z m-358 177l54 0 0-21-88 0 0 14 54 79-55 0 0 21 89 0 0-14z m112-21l-27 0 0 114 27 0z m62 39l0-39-27 0 0 114 45 0c9 0 17-2 23-5 7-3 12-8 16-14 4-6 5-12 5-20 0-11-3-20-11-26-8-7-19-10-33-10z m0 21l18 0c6 0 10 1 12 4 3 2 5 6 5 11 0 5-2 10-5 13-2 3-6 5-11 5l-19 0z"/>
<glyph glyph-name="php" unicode="&#69;" d="M467 512l-350 0c-25 0-45-20-45-45l0-76-36 0c-20 0-36-16-36-36l0-198c0-20 16-36 36-36l36 0 0-76c0-25 20-45 45-45l350 0c25 0 45 20 45 45l0 422c0 25-20 45-45 45z m-437-355l0 198c0 3 3 6 6 6l380 0c3 0 6-3 6-6l0-198c0-3-3-6-6-6l-380 0c-3 0-6 3-6 6z m452-112c0-8-7-15-15-15l-350 0c-8 0-15 7-15 15l0 76 314 0c20 0 36 16 36 36l0 198c0 20-16 36-36 36l-314 0 0 76c0 8 7 15 15 15l350 0c8 0 15-7 15-15z m-397 195l0-39-27 0 0 114 45 0c9 0 16-2 23-5 7-3 12-8 16-14 3-6 5-12 5-20 0-11-4-20-12-26-8-7-19-10-32-10z m0 21l18 0c5 0 9 1 12 4 3 2 4 6 4 11 0 5-1 10-4 13-3 3-7 5-12 5l-18 0z m188-60l-27 0 0 47-41 0 0-47-27 0 0 114 27 0 0-45 41 0 0 45 27 0z m61 39l0-39-28 0 0 114 46 0c8 0 16-2 23-5 7-3 12-8 15-14 4-6 6-12 6-20 0-11-4-20-12-26-8-7-19-10-33-10z m0 21l18 0c5 0 9 1 12 4 3 2 4 6 4 11 0 5-1 10-4 13-3 3-7 5-12 5l-18 0z"/>
<glyph glyph-name="doc" unicode="&#70;" d="M467 512l-350 0c-25 0-45-20-45-45l0-76-36 0c-20 0-36-16-36-36l0-198c0-20 16-36 36-36l36 0 0-76c0-25 20-45 45-45l350 0c25 0 45 20 45 45l0 422c0 25-20 45-45 45z m-437-355l0 198c0 3 3 6 6 6l380 0c3 0 6-3 6-6l0-198c0-3-3-6-6-6l-380 0c-3 0-6 3-6 6z m452-112c0-8-7-15-15-15l-350 0c-8 0-15 7-15 15l0 76 314 0c20 0 36 16 36 36l0 198c0 20-16 36-36 36l-314 0 0 76c0 8 7 15 15 15l350 0c8 0 15-7 15-15z m-423 156l0 114 36 0c10 0 19-3 27-7 8-5 15-11 19-19 5-9 7-18 7-28l0-6c0-10-2-19-7-28-4-8-10-14-18-19-8-5-17-7-27-7z m27 93l0-72 10 0c7 0 14 3 18 8 4 6 6 14 6 25l0 5c0 11-2 20-6 25-4 6-11 9-19 9z m188-38c0-12-2-21-6-30-4-8-10-15-17-20-8-4-17-7-26-7-10 0-18 3-26 7-7 5-13 11-18 19-4 8-6 18-6 29l0 6c0 11 2 21 6 30 4 8 10 15 18 19 7 5 16 7 26 7 9 0 18-2 25-7 8-4 14-11 18-19 4-9 6-18 6-29z m-27 4c0 12-2 20-6 26-4 6-9 9-16 9-14 0-21-10-22-31l0-8c0-12 2-20 5-26 4-6 10-9 17-9 7 0 12 3 16 9 4 6 5 14 6 25z m150-20c-1-8-3-15-7-22-4-6-9-10-16-14-7-3-15-5-24-5-15 0-27 5-36 15-8 10-13 24-13 41l0 6c0 11 2 21 6 29 4 9 10 15 17 20 7 4 16 6 25 6 14 0 25-3 34-11 8-7 13-17 14-30l-28 0c0 7-1 12-5 15-3 3-8 5-15 5-7 0-12-3-15-8-3-5-5-13-5-24l0-8c0-12 2-21 5-26 3-5 8-8 16-8 6 0 11 1 14 4 3 3 5 8 5 15z"/>
<glyph glyph-name="vpf" unicode="&#71;" d="M467 512l-350 0c-25 0-45-20-45-45l0-76-36 0c-20 0-36-16-36-36l0-198c0-20 16-36 36-36l36 0 0-76c0-25 20-45 45-45l350 0c25 0 45 20 45 45l0 422c0 25-20 45-45 45z m-437-355l0 198c0 3 3 6 6 6l380 0c3 0 6-3 6-6l0-198c0-3-3-6-6-6l-380 0c-3 0-6 3-6 6z m452-112c0-8-7-15-15-15l-350 0c-8 0-15 7-15 15l0 76 314 0c20 0 36 16 36 36l0 198c0 20-16 36-36 36l-314 0 0 76c0 8 7 15 15 15l350 0c8 0 15-7 15-15z m-259 186l15 0c28 0 50 22 50 50 0 28-22 50-50 50l-30 0c-8 0-15-7-15-15l0-120c0-8 7-15 15-15 9 0 15 7 15 15z m0 70l15 0c11 0 20-9 20-20 0-11-9-20-20-20l-15 0z m100-120c9 0 15 7 15 15l0 45 30 0c9 0 15 7 15 15 0 8-6 15-15 15l-30 0 0 30 37 0c9 0 15 7 15 15 0 8-6 15-15 15l-52 0c-8 0-15-7-15-15l0-120c0-8 7-15 15-15z m-262 127l41-117c2-7 8-10 15-10 6 0 12 4 14 10l41 117c3 7-1 16-8 19-8 3-17-1-20-9l-27-79-28 79c-3 8-11 12-19 9-8-3-12-11-9-19z"/>
<glyph glyph-name="file-blank" unicode="&#72;" d="M447 408l-100 100c-3 2-7 4-11 4l-230 0c-25 0-45-20-45-45l0-422c0-25 20-45 45-45l300 0c25 0 45 20 45 45l0 352c0 4-2 8-4 11z m-96 53l49-49-49 0z m55-431l-300 0c-8 0-15 7-15 15l0 422c0 8 7 15 15 15l215 0 0-85c0-8 7-15 15-15l85 0 0-337c0-8-7-15-15-15z"/>
<glyph glyph-name="file" unicode="&#73;" d="M146 284c-9 0-16 7-16 16 0 9 7 16 16 16l207 0c9 0 16-7 16-16 0-9-7-16-16-16z m0-65c-9 0-16 7-16 16 0 9 7 16 16 16l207 0c9 0 16-7 16-16 0-9-7-16-16-16z m0-65c-9 0-16 7-16 16 0 9 7 16 16 16l207 0c9 0 16-7 16-16 0-9-7-16-16-16z m301 254l-100 100c-3 2-7 4-11 4l-230 0c-25 0-45-20-45-45l0-422c0-25 20-45 45-45l300 0c25 0 45 20 45 45l0 352c0 4-2 8-4 11z m-96 53l49-49-49 0z m55-431l-300 0c-8 0-15 7-15 15l0 422c0 8 7 15 15 15l215 0 0-85c0-8 7-15 15-15l85 0 0-337c0-8-7-15-15-15z"/>
<glyph glyph-name="files" unicode="&#74;" d="M70 1c-16 0-30 14-30 30l0 384c0 16 14 30 30 30l36 0 0 36c0 16 13 30 30 30l204 0c14 0 35-8 46-18l67-63c10-10 19-30 19-45l0-288c0-16-14-30-30-30l-36 0 0-36c0-8-3-15-9-21-6-6-13-9-21-9l-306 0z m1 31l304 0 0 35-239 0c-16 0-30 13-30 30l0 317-35 0z m66 66l304 0 0 286-62 0c-22 0-40 18-40 39l0 57-202 0z m233 326c0-2 1-5 3-6 1-2 3-3 6-3l44 0-53 50 0-41z"/>
<glyph glyph-name="file-remove" unicode="&#75;" d="M280 241l49 46c4 3 6 7 6 12 0 4-2 8-5 12l0 0c-3 3-7 5-11 5-4 0-9-1-12-4l-50-47-47 50c-2 3-6 5-11 5-4 1-8-1-12-4-3-3-5-7-5-11 0-5 1-9 5-12l46-50-50-47c-7-6-7-16-1-23l0 0c3-4 7-5 11-6 5 0 9 2 12 5l50 47 47-51c3-3 7-5 11-5 5 0 9 2 12 5 3 3 5 7 5 11 1 5-1 9-4 12z m167 167l-100 100c-3 2-7 4-11 4l-230 0c-25 0-45-20-45-45l0-422c0-25 20-45 45-45l300 0c25 0 45 20 45 45l0 352c0 4-2 8-4 11z m-96 53l49-49-49 0z m55-431l-300 0c-8 0-15 7-15 15l0 422c0 8 7 15 15 15l215 0 0-85c0-8 7-15 15-15l85 0 0-337c0-8-7-15-15-15z"/>
<glyph glyph-name="file-download" unicode="&#76;" d="M447 408l-100 100c-3 2-7 4-11 4l-230 0c-25 0-45-20-45-45l0-422c0-25 20-45 45-45l300 0c25 0 45 20 45 45l0 352c0 4-2 8-4 11z m-96 53l49-49-49 0z m55-431l-300 0c-8 0-15 7-15 15l0 422c0 8 7 15 15 15l215 0 0-85c0-8 7-15 15-15l85 0 0-337c0-8-7-15-15-15z m-160 135c6-6 15-6 21 0l65 64c5 6 5 16 0 22-6 5-16 5-22 0l-38-39 0 108c0 9-7 15-15 15-9 0-15-6-15-15l0-108-39 39c-6 5-15 5-21 0-6-6-6-16 0-22z m75-39l-129 0c-8 0-15-6-15-15 0-8 7-15 15-15l129 0c8 0 15 7 15 15 0 9-7 15-15 15z"/>
<glyph glyph-name="file-upload" unicode="&#77;" d="M447 408l-100 100c-3 2-7 4-11 4l-230 0c-25 0-45-20-45-45l0-422c0-25 20-45 45-45l300 0c25 0 45 20 45 45l0 352c0 4-2 8-4 11z m-96 53l49-49-49 0z m55-431l-300 0c-8 0-15 7-15 15l0 422c0 8 7 15 15 15l215 0 0-85c0-8 7-15 15-15l85 0 0-337c0-8-7-15-15-15z m-139 237c-6 5-15 5-21 0l-64-65c-6-6-6-15 0-21 6-6 15-6 21 0l39 39 0-109c0-8 6-15 15-15 8 0 15 7 15 15l0 109 38-39c6-6 16-6 22 0 5 6 5 15 0 21z m54 68l-129 0c-8 0-15-6-15-15 0-8 7-15 15-15l129 0c8 0 15 7 15 15 0 9-7 15-15 15z"/>
<glyph glyph-name="file-edit" unicode="&#78;" d="M339 131c-2 0-3 0-4 1l-31 11-30 12-104 104c-15 15-11 41 2 54l0 0c10 8 18 12 27 12 10 0 20-5 28-12l101-101c1-2 22-61 23-62 2-5 1-9-2-13-2-4-6-6-10-6z m-20 35l-5 12-7-7z m-34 17l9 8 9 9c-4 4-8 8-12 12-8 8-17 17-25 25-10 10-20 20-30 30-7 7-14 14-22 22-4 4-9 8-14 8-6 0-12-6-12-12 0-3 2-6 4-9z m162 225l-100 100c-3 2-7 4-11 4l-230 0c-25 0-45-20-45-45l0-422c0-25 20-45 45-45l300 0c25 0 45 20 45 45l0 352c0 4-2 8-4 11z m-96 53l49-49-49 0z m55-431l-300 0c-8 0-15 7-15 15l0 422c0 8 7 15 15 15l215 0 0-85c0-8 7-15 15-15l85 0 0-337c0-8-7-15-15-15z"/>
<glyph glyph-name="file-search" unicode="&#79;" d="M495 408l-100 100c-3 2-7 4-11 4l-230 0c-25 0-45-20-45-45l0-306-84-84c-8-9-13-20-13-32 0-12 5-23 13-32 9-9 20-13 32-13 12 0 23 4 32 13l21 22c5-20 23-35 44-35l300 0c25 0 45 20 45 45l0 352c0 4-2 8-4 11z m-96 53l49-49-49 0z m-286-381c0 0 0 0 0 0l-45-46c-6-5-16-5-22 0-2 3-4 7-4 11 0 4 2 8 4 11l78 77 21-21z m356-35c0-8-7-15-15-15l-300 0c-8 0-15 7-15 15l0 18 38 38c3 3 4 7 4 11 0 4-1 8-4 11l-11 10 47 47c19-14 42-22 67-22 29 0 57 11 78 32 42 43 42 113 0 156-21 20-49 32-78 32-30 0-57-12-78-32-39-40-43-102-10-145l-47-47-6 7 0 306c0 8 7 15 15 15l215 0 0-85c0-8 7-15 15-15l85 0z m-269 223c0 21 8 41 23 56 15 15 35 24 57 24 21 0 41-9 56-24 31-31 31-82 0-113-15-15-35-23-56-23-22 0-42 8-57 23-15 15-23 35-23 57z"/>
<glyph glyph-name="file-attachment" unicode="&#80;" d="M447 408l-100 100c-3 2-7 4-11 4l-230 0c-25 0-45-20-45-45l0-422c0-25 20-45 45-45l300 0c25 0 45 20 45 45l0 352c0 4-2 8-4 11z m-96 53l49-49-49 0z m55-431l-300 0c-8 0-15 7-15 15l0 422c0 8 7 15 15 15l215 0 0-85c0-8 7-15 15-15l85 0 0-337c0-8-7-15-15-15z m-101 306c-20 0-39-8-53-22l-106-106c-18-18-18-46 0-64 8-8 19-13 31-13 12 0 24 5 32 13l106 106c6 6 6 16 0 21-6 6-15 6-21 0l-106-106c-3-2-7-4-11-4-4 0-7 2-10 4-3 3-5 7-5 11 0 4 2 8 5 11l106 106c8 8 20 13 32 13 12 0 23-5 31-13 9-9 14-20 14-32 0-12-5-23-14-32l-127-127c-6-6-6-16 0-21 3-3 7-5 11-5 4 0 7 2 10 5l128 127c14 14 22 33 22 53 0 20-8 39-22 53-14 14-33 22-53 22z"/>
<glyph glyph-name="file-star" unicode="&#81;" d="M204 151c-10 0-18 5-22 13-3 5-3 10-3 16l8 45-33 32c-4 4-7 10-7 17 0 7 2 13 7 17 4 4 9 7 14 8l45 6 20 41c5 9 13 14 23 14 3 0 7-1 10-3 5-2 9-6 12-11l20-41 45-6c7-1 13-5 16-10 4-5 6-12 5-18-1-5-3-10-7-14l-33-32 8-45c1-7-1-13-5-19-4-6-12-10-20-10 0 0 0 0 0 0-4 0-8 1-11 3l-40 21-41-21c-3-2-7-3-11-3z m7 93c6-5 8-13 7-21l-6-37 32 18c4 1 8 2 12 2 4 0 8-1 11-2l33-17-7 36c-1 8 2 16 7 21l27 26-37 5c-8 1-15 6-18 14l-16 32-17-33c-3-7-10-12-18-13l-36-5z m236 164l-100 100c-3 2-7 4-11 4l-230 0c-25 0-45-20-45-45l0-422c0-25 20-45 45-45l300 0c25 0 45 20 45 45l0 352c0 4-2 8-4 11z m-96 53l49-49-49 0z m55-431l-300 0c-8 0-15 7-15 15l0 422c0 8 7 15 15 15l215 0 0-85c0-8 7-15 15-15l85 0 0-337c0-8-7-15-15-15z"/>
<glyph glyph-name="file-code" unicode="&#82;" d="M447 408l-100 100c-3 2-7 4-11 4l-230 0c-25 0-45-20-45-45l0-422c0-25 20-45 45-45l300 0c25 0 45 20 45 45l0 352c0 4-2 8-4 11z m-96 53l49-49-49 0z m55-431l-300 0c-8 0-15 7-15 15l0 422c0 8 7 15 15 15l215 0 0-85c0-8 7-15 15-15l85 0 0-337c0-8-7-15-15-15z m-68 256c-6 6-15 7-22 2-6-6-7-15-2-22l42-50-42-50c-5-7-4-16 2-22 3-2 7-3 10-3 4 0 9 2 12 5l50 60c4 6 4 14 0 20z m-142 2c-7 5-16 4-22-2l-50-60c-4-6-4-14 0-20l50-60c3-3 8-5 12-5 3 0 7 1 10 3 6 6 7 15 2 22l-42 50 42 50c5 7 4 16-2 22z m85 2c-8 3-17-1-19-9l-40-120c-3-8 1-17 9-19 2-1 3-1 5-1 6 0 12 4 14 10l40 120c3 8-1 17-9 19z"/>
<glyph glyph-name="file-refresh" unicode="&#83;" d="M306 150c-9 0-15 6-15 14l0 4c-11-5-23-7-35-7-23 0-44 8-60 24-7 6-13 15-18 27l-1 1 0 0c-2 10-5 21-5 32 0 8 6 14 14 14 9 0 15-6 15-14 0-9 1-16 4-24 2-6 6-12 12-18 11-11 24-16 39-16 3 0 5 0 8 0-1 2-2 4-2 7 0 8 6 14 14 14l30 0c4 0 8-2 10-4 2-2 4-6 4-10l0-30c0-8-8-14-14-14z m20 78c-8 0-15 6-15 14 0 8-1 14-3 23-3 6-8 13-13 18-10 11-24 16-39 16-2 0-4 0-7-1 2-2 3-5 3-7 0-9-7-15-15-15l-30 1c-3 0-7 2-10 5-2 2-4 6-4 10l0 29c0 9 6 15 15 15 8 0 14-6 14-15l0-4c11 5 24 8 35 8 24 0 44-8 60-24l1-1c7-8 12-16 16-25l1-1 0 0c3-10 5-21 5-32 0-8-6-14-14-14z m121 180l-100 100c-3 2-7 4-11 4l-230 0c-25 0-45-20-45-45l0-422c0-25 20-45 45-45l300 0c25 0 45 20 45 45l0 352c0 4-2 8-4 11z m-96 53l49-49-49 0z m55-431l-300 0c-8 0-15 7-15 15l0 422c0 8 7 15 15 15l215 0 0-85c0-8 7-15 15-15l85 0 0-337c0-8-7-15-15-15z"/>
<glyph glyph-name="file-warning" unicode="&#84;" d="M447 408l-100 100c-3 2-7 4-11 4l-230 0c-25 0-45-20-45-45l0-422c0-25 20-45 45-45l300 0c25 0 45 20 45 45l0 352c0 4-2 8-4 11z m-96 53l49-49-49 0z m55-431l-300 0c-8 0-15 7-15 15l0 422c0 8 7 15 15 15l215 0 0-85c0-8 7-15 15-15l85 0 0-337c0-8-7-15-15-15z m-151 205c4 0 8 2 11 4 2 3 4 7 4 11l0 46c0 4-2 8-4 11-3 2-7 4-11 4-4 0-8-2-11-4-2-3-4-7-4-11l0-46c0-4 2-8 4-11 3-2 7-4 11-4z m1-46c8 0 15 7 15 15 0 8-7 15-15 15-9 0-16-7-16-15 0-8 7-15 16-15z m116 26l-75 131c-4 7-10 13-18 18-7 4-15 6-24 6-8 0-16-2-24-6-7-5-13-11-17-18l-75-131c-4-8-6-16-6-24 0-9 2-17 6-24 5-7 11-13 18-18 7-4 15-6 24-6l149 0c9 0 17 2 24 6 7 5 13 11 18 18 4 7 6 15 6 24 0 8-2 16-6 24z m-27-33c-1-3-4-5-6-6-3-2-6-3-9-2l-150 0c-3-1-6 0-9 2-2 1-4 3-6 6-1 3-2 6-2 9 0 3 1 6 2 8l75 132c1 2 4 5 6 6 3 2 6 3 9 3 3 0 6-1 9-3 3-1 5-4 6-6l75-132c2-2 2-5 3-8 0-3-1-6-3-9z"/>
<glyph glyph-name="file-lock" unicode="&#85;" d="M447 408l-100 100c-3 2-7 4-11 4l-230 0c-25 0-45-20-45-45l0-422c0-25 20-45 45-45l300 0c25 0 45 20 45 45l0 352c0 4-2 8-4 11z m-96 53l49-49-49 0z m55-431l-300 0c-8 0-15 7-15 15l0 422c0 8 7 15 15 15l215 0 0-85c0-8 7-15 15-15l85 0 0-337c0-8-7-15-15-15z m-60 215l-5 0 0 35c0 47-38 85-85 85-47 0-85-38-85-85l0-35-5 0c-8 0-15-7-15-15l0-140c0-8 7-15 15-15l180 0c8 0 15 7 15 15l0 140c0 8-7 15-15 15z m-145 35c0 30 25 55 55 55 30 0 55-25 55-55l0-35-110 0z m130-175l-150 0 0 110 150 0z m-75 80c-8 0-15-7-15-15l0-20c0-8 7-15 15-15 8 0 15 7 15 15l0 20c0 8-7 15-15 15z"/>
<glyph glyph-name="file-info" unicode="&#86;" d="M70 1c-9 0-16 7-16 15l0 481c0 8 7 15 16 15l267 0c4 0 8-2 11-5l106-106c3-3 5-7 5-11l0-374c0-8-7-15-16-15l-373 0z m358 31l0 343-91 0c-9 0-16 6-16 15l0 91-236 0 0-449 343 0z m-22 373l-54 55 0-55z m-176-297c-9 0-15 7-15 15 0 9 6 15 15 15l11 0 0 103-11 0c-9 0-15 7-15 15 0 9 6 16 15 16l27 0c8 0 15-7 15-16l0-118 11 0c9 0 16-6 16-15 0-9-7-15-16-15l-53 0z m27 187c-16 0-29 12-29 28 0 16 13 29 29 29 15 0 28-13 28-29 0-16-13-28-28-28z"/>
<glyph glyph-name="folder" unicode="&#87;" d="M465 435l-260 0c-5 0-9 2-12 5l-29 30c-9 9-21 14-34 14l-83 0c-26 0-47-22-47-48l0-360c0-27 21-48 47-48l418 0c26 0 47 21 47 48l0 311c0 26-21 48-47 48z m-418 18l83 0c5 0 9-1 12-5l30-30c9-9 20-14 33-14l260 0c9 0 17-7 17-17l0-37c-5 2-11 3-17 3l-418 0c-6 0-12-1-17-3l0 86c0 10 8 17 17 17z m435-377c0-10-8-17-17-17l-418 0c-9 0-17 7-17 17l0 229c0 10 8 18 17 18l418 0c9 0 17-8 17-18z"/>
<glyph glyph-name="handbook" unicode="&#88;" d="M146 320l220 0c8 0 15 7 15 15l0 80c0 8-7 15-15 15l-220 0c-8 0-15-7-15-15l0-80c0-8 7-15 15-15z m15 80l190 0 0-50-190 0z m309-39c8 0 15 7 15 15l0 60c0 8-7 15-15 15l-29 0 0 46c0 8-7 15-15 15l-370 0c-8 0-15-7-15-15l0-46-15 0c-8 0-15-7-15-15 0-8 7-15 15-15l15 0 0-30-15 0c-8 0-15-7-15-15 0-8 7-15 15-15l15 0 0-30-15 0c-8 0-15-7-15-15 0-8 7-15 15-15l15 0 0-30-15 0c-8 0-15-7-15-15 0-8 7-15 15-15l15 0 0-30-15 0c-8 0-15-7-15-15 0-8 7-15 15-15l15 0 0-30-15 0c-8 0-15-7-15-15 0-8 7-15 15-15l15 0 0-30-15 0c-8 0-15-7-15-15 0-8 7-15 15-15l15 0 0-46c0-8 7-15 15-15l370 0c8 0 15 7 15 15l0 226 29 0c8 0 15 7 15 15l0 60c0 8-7 15-15 15l-29 0 0 30z m-29 60l14 0 0-30-14 0z m-30-391l-340 0 0 31 15 0c8 0 15 7 15 15 0 8-7 15-15 15l-15 0 0 30 15 0c8 0 15 7 15 15 0 8-7 15-15 15l-15 0 0 30 15 0c8 0 15 7 15 15 0 8-7 15-15 15l-15 0 0 30 15 0c8 0 15 7 15 15 0 8-7 15-15 15l-15 0 0 30 15 0c8 0 15 7 15 15 0 8-7 15-15 15l-15 0 0 30 15 0c8 0 15 7 15 15 0 8-7 15-15 15l-15 0 0 30 15 0c8 0 15 7 15 15 0 8-7 15-15 15l-15 0 0 31 340 0z m44 271l0-30-14 0 0 30z"/>
<glyph glyph-name="documents" unicode="&#89;" d="M466 512l-180 0c-8 0-15-7-15-15l0-482c0-8 7-15 15-15l180 0c8 0 15 7 15 15l0 482c0 8-7 15-15 15z m-15-482l-150 0 0 191 150 0z m0 221l-150 0 0 150 150 0z m0 180l-150 0 0 51 150 0z m-75-370c25 0 45 20 45 45 0 25-20 45-45 45-25 0-45-20-45-45 0-25 20-45 45-45z m0 60c8 0 15-7 15-15 0-8-7-15-15-15-8 0-15 7-15 15 0 8 7 15 15 15z m-150 391l-180 0c-8 0-15-7-15-15l0-482c0-8 7-15 15-15l180 0c8 0 15 7 15 15l0 482c0 8-7 15-15 15z m-15-482l-150 0 0 452 150 0z m-75 31c25 0 45 20 45 45 0 25-20 45-45 45-25 0-45-20-45-45 0-25 20-45 45-45z m0 60c8 0 15-7 15-15 0-8-7-15-15-15-8 0-15 7-15 15 0 8 7 15 15 15z m-30 140l60 0c8 0 15 7 15 15l0 160c0 8-7 15-15 15l-60 0c-8 0-15-7-15-15l0-160c0-8 7-15 15-15z m15 160l30 0 0-130-30 0z m225-80l60 0c8 0 15 7 15 15 0 8-7 15-15 15l-60 0c-8 0-15-7-15-15 0-8 7-15 15-15z m0-60l60 0c8 0 15 7 15 15 0 8-7 15-15 15l-60 0c-8 0-15-7-15-15 0-8 7-15 15-15z"/>
<glyph glyph-name="book" unicode="&#90;" d="M436 512l-320 0c-30 0-55-25-55-55l0-402c0-30 25-55 55-55l320 0c8 0 15 7 15 15l0 482c0 8-7 15-15 15z m-295-482l-25 0c-14 0-25 11-25 25l0 353c8-4 16-6 25-6l25 0z m280 0l-250 0 0 372 250 0z m0 402l-305 0c-14 0-25 11-25 25 0 14 11 25 25 25l305 0z"/>
<glyph glyph-name="open-book" unicode="&#48;" d="M497 389c0 0-20 1-49 0l0 60c0 9-8 16-17 15-57-5-131-30-175-77-44 47-118 72-175 77-9 1-17-6-17-15l0-61c-16 0-32 1-48 1-9 1-16-6-16-15l0-274c0-8 6-14 14-15 60-4 160-4 236-37 7-3 13 1 12 0 76 33 176 33 236 37 8 1 14 7 14 15l0 274c0 8-6 15-15 15z m-79 43l0-258c-44-10-99-31-147-74 0 13 0 251 0 258 33 41 95 66 147 74z m-324 0c52-8 114-33 147-74l0-258c-48 43-103 64-147 74z m-64-318l0 245c11-1 22-1 34-1l0-196c0-8 5-14 13-15 34-7 79-21 120-51-59 14-121 16-167 18z m452 0c-46-2-108-4-167-18 41 30 86 44 120 51 8 1 13 7 13 15l0 197c14 1 25 1 34 1z m-280 210c-12 8-32 18-53 21-9 2-16-4-18-12-1-8 4-16 13-17 16-3 32-11 41-17 7-5 16-3 21 4 4 7 3 16-4 21z m-2-85c-10 6-31 18-51 21-9 2-16-4-18-12-1-8 4-16 13-17 15-3 34-13 41-18 7-4 16-2 20 5 5 7 2 17-5 21z m127 60c9 6 25 14 41 17 9 1 14 9 13 17-2 8-9 14-18 12-21-3-41-13-53-21-7-5-8-14-4-21 5-7 15-9 21-4z m36-39c-20-3-41-15-51-21-7-4-10-14-5-21 4-7 13-9 20-5 7 5 26 15 41 18 9 1 14 9 13 17-2 8-9 14-18 12z"/>
<glyph glyph-name="project" unicode="&#49;" d="M285 164c0 16-14 30-30 30-17 0-30-14-30-30 0-3 0-7 1-10l-28-27c-3 1-7 1-10 1-17 0-30-13-30-30 0-16 14-30 30-30 17 0 30 14 30 30 0 4 0 7-1 10l26 26c3-2 8-2 12-2 4 0 8 2 12 3l0 0 29-28c-2-3-2-7-2-10 0-17 14-30 30-30 17 0 30 13 30 30 0 2 0 6-1 9l46 46 0 0c1 0 1-1 2-1 3-1 6-2 9-2 17 0 30 14 30 30 0 17-13 30-30 30-16 0-30-13-30-30 0-2 0-5 1-8l-46-46-1 0c-3 2-7 2-10 2-2 0-6 0-9-1l-31 31c1 2 1 5 1 7z m-94-71l-1 0 0 0c-1-1-3-2-3-2-2 0-5 2-5 5 0 2 3 4 5 4 1 0 2 0 3-1 1-1 1-3 1-3 0-2 0-3 0-3z m64 66c-2 0-5 2-5 5 0 2 3 4 5 4 2 0 5-2 5-4 0-3-3-5-5-5z m156 27c3 0 5-2 5-4 0-3-2-5-5-5-2 0-4 2-4 5 0 2 1 4 4 4z m-87-84c2 0 5-3 5-5 0-2-3-5-5-5-2 0-5 3-5 5 0 2 3 5 5 5z m104 202c7 0 13 5 13 13 0 7-5 13-13 13l-108 0c-6 0-13-5-13-13 0-7 7-13 13-13z m-108-43l108 0c7 0 13 5 13 14 0 6-5 13-13 13l-108 0c-6 0-13-5-13-13 0-7 7-14 13-14z m169 147l-100 100c-2 2-6 4-10 4l-230 0c-25 0-45-20-45-45l0-11c-4-1-8-3-12-4-44-19-73-63-73-111 0-6 5-13 13-13l108 0c7 0 13 5 13 13l0 108c0 7-5 13-13 13-2 0-4 0-6 0l0 5c0 8 6 15 15 15l215 0 0-85c0-8 6-15 15-15l85 0 0-337c0-8-7-15-15-15l-300 0c-9 0-15 7-15 15l0 146c13-5 28-8 43-8 32 1 63 14 86 36 22 23 35 53 35 85 0 32-13 62-35 85-23 24-54 36-86 36-7 0-13-5-13-13l0-94-95 0c-7 0-13-5-13-14 0-32 12-62 35-85 4-4 8-8 13-11l0-163c0-25 20-45 45-45l300 0c25 0 45 20 45 45l0 352c0 4-2 8-5 11z m-363-55l-82 0 0 1c7 41 40 74 81 81l1 0z m268 59l0 49 49-49z m-204-13l1 0c16-3 31-9 43-19l0 0-44-44z m-107-107l0 0 95 0c4 0 7 2 9 4l67 67 0 0c12-16 19-36 19-58 0-52-43-94-95-94-1 0-2 0-3 0-47 0-85 34-92 81z"/>
<glyph glyph-name="transaction-history" unicode="&#50;" d="M507 408l-100 100c-3 2-7 4-11 4l-230 0c-25 0-45-20-45-45l0-198c-67-7-120-65-120-134 0-74 61-135 135-135l330 0c25 0 45 20 45 45l0 352c0 4-2 8-4 11z m-96 53l49-49-49 0z m-380-326c0 58 47 105 105 105 58 0 105-47 105-105 0-58-47-105-105-105-58 0-105 47-105 105z m435-105l-245 0c27 22 45 54 49 90l156 0c8 0 15 7 15 15 0 8-7 15-15 15l-156 0c-2 22-10 42-22 60l178 0c8 0 15 7 15 15 0 8-7 15-15 15l-205 0c-20 16-44 26-70 29l0 198c0 8 7 15 15 15l215 0 0-85c0-8 7-15 15-15l85 0 0-337c0-8-7-15-15-15z m-40 300l-220 0c-8 0-15-7-15-15 0-8 7-15 15-15l220 0c8 0 15 7 15 15 0 8-7 15-15 15z m-250-210c8 0 15 7 15 15 0 8-7 15-15 15l-25 0 0 45c0 8-7 15-15 15-8 0-15-7-15-15l0-60c0-8 7-15 15-15z"/>
<glyph glyph-name="file-add" unicode="&#51;" d="M507 408l-100 100c-3 2-7 4-11 4l-230 0c-25 0-45-20-45-45l0-198c-67-7-120-65-120-134 0-74 61-135 135-135l330 0c25 0 45 20 45 45l0 352c0 4-2 8-4 11z m-96 53l49-49-49 0z m-380-326c0 58 47 105 105 105 58 0 105-47 105-105 0-58-47-105-105-105-58 0-105 47-105 105z m435-105l-245 0c27 22 45 54 49 90l156 0c8 0 15 7 15 15 0 8-7 15-15 15l-156 0c-2 22-10 42-22 60l178 0c8 0 15 7 15 15 0 8-7 15-15 15l-205 0c-20 16-44 26-70 29l0 198c0 8 7 15 15 15l215 0 0-85c0-8 7-15 15-15l85 0 0-337c0-8-7-15-15-15z m-40 300l-220 0c-8 0-15-7-15-15 0-8 7-15 15-15l220 0c8 0 15 7 15 15 0 8-7 15-15 15z m-226-210c4 0 8 2 10 4 3 3 5 7 5 11 0 8-7 15-15 15l-49 0 0 49c0 8-7 15-15 15-8 0-15-7-15-15l0-49-49 0c-8 0-15-7-15-15 0-8 7-15 15-15l49 0 0-49c0-8 7-15 15-15 4 0 8 2 11 5 2 2 4 6 4 10l0 49z"/>
<glyph glyph-name="employee-verification" unicode="&#52;" d="M189 227l-32-32-10 10c-6 6-16 6-22 0-5-5-5-15 0-21l22-21c5-6 15-6 21 0l42 42c6 6 6 16 0 22-6 5-15 5-21 0z m187-25l-120 0c-8 0-15-7-15-15 0-8 7-15 15-15l120 0c8 0 15 7 15 15 0 8-7 15-15 15z m-187-73l-32-32-10 11c-6 6-16 6-22 0-5-6-5-16 0-21l22-22c5-5 15-5 21 0l42 43c6 6 6 15 0 21-6 6-15 6-21 0z m187-17l-120 0c-8 0-15-7-15-15 0-8 7-15 15-15l120 0c8 0 15 7 15 15 0 8-7 15-15 15z m-240 149l140 0c8 0 15 7 15 15l0 10c0 32-18 59-43 74 8 10 13 22 13 36 0 30-25 55-55 55-30 0-55-25-55-55 0-14 5-26 13-36-25-15-43-42-43-74l0-10c0-8 7-15 15-15z m45 135c0 14 11 25 25 25 14 0 25-11 25-25 0-14-11-25-25-25-14 0-25 11-25 25z m25-55c29 0 52-22 55-50l-110 0c3 28 26 50 55 50z m241 67l-100 100c-3 2-7 4-11 4l-230 0c-25 0-45-20-45-45l0-422c0-25 20-45 45-45l300 0c25 0 45 20 45 45l0 352c0 4-2 8-4 11z m-96 53l49-49-49 0z m55-431l-300 0c-8 0-15 7-15 15l0 422c0 8 7 15 15 15l215 0 0-85c0-8 7-15 15-15l85 0 0-337c0-8-7-15-15-15z"/>
<glyph glyph-name="file-ok" unicode="&#53;" d="M507 408l-100 100c-3 2-7 4-11 4l-230 0c-25 0-45-20-45-45l0-198c-67-7-120-65-120-134 0-74 61-135 135-135l330 0c25 0 45 20 45 45l0 352c0 4-2 8-4 11z m-96 53l49-49-49 0z m-380-326c0 58 47 105 105 105 58 0 105-47 105-105 0-58-47-105-105-105-58 0-105 47-105 105z m435-105l-245 0c27 22 45 54 49 90l156 0c8 0 15 7 15 15 0 8-7 15-15 15l-156 0c-2 22-10 42-22 60l178 0c8 0 15 7 15 15 0 8-7 15-15 15l-205 0c-20 16-44 26-70 29l0 198c0 8 7 15 15 15l215 0 0-85c0-8 7-15 15-15l85 0 0-337c0-8-7-15-15-15z m-40 300l-220 0c-8 0-15-7-15-15 0-8 7-15 15-15l220 0c8 0 15 7 15 15 0 8-7 15-15 15z m-230-157c-6 5-16 5-22 0l-59-60-19 20c-6 5-16 5-22 0-5-6-5-16 0-22l30-30c3-3 7-4 11-4 4 0 8 1 11 4l70 70c5 6 5 16 0 22z"/>
<glyph glyph-name="request" unicode="&#54;" d="M499 351c-18 17-46 17-64 0-5-6-40-40-45-45l0 119c0 12-5 23-13 31l-43 43c-8 8-19 13-31 13l-258 0c-25 0-45-20-45-45l0-422c0-25 20-45 45-45l300 0c25 0 45 20 45 45l0 133 109 109c17 18 17 46 0 64z m-199 131c3 0 8 0 13-4l43-43c4-5 4-10 4-13l-60 0z m60-437c0-8-7-15-15-15l-300 0c-8 0-15 7-15 15l0 422c0 8 7 15 15 15l225 0 0-75c0-8 7-15 15-15l75 0 0-116c0 0-44-45-44-45l-21-21c-2-1-3-3-4-6l-21-63c-2-6-1-12 3-16 4-4 10-5 16-3l63 21c3 1 5 2 6 4l2 1z m-34 155l22-22-9-8-31-10 10 31z m43 0l-21 21c11 11 61 61 72 72l21-21z m109 108l-16-15-21 21 15 16c6 6 16 6 22 0 5-6 5-16 0-22z m-193 54l-210 0c-8 0-15-7-15-15 0-8 7-15 15-15l210 0c8 0 15 7 15 15 0 8-7 15-15 15z m-60-60l-150 0c-8 0-15-7-15-15 0-8 7-15 15-15l150 0c8 0 15 7 15 15 0 8-7 15-15 15z m0-60l-150 0c-8 0-15-7-15-15 0-8 7-15 15-15l150 0c8 0 15 7 15 15 0 8-7 15-15 15z m0-60l-150 0c-8 0-15-7-15-15 0-8 7-15 15-15l150 0c8 0 15 7 15 15 0 8-7 15-15 15z m60-92l-90 0c-8 0-15-7-15-15 0-8 7-15 15-15l90 0c8 0 15 7 15 15 0 8-7 15-15 15z"/>
<glyph glyph-name="form" unicode="&#55;" d="M17 2c-4 0-8 2-11 4-2 3-4 7-4 11l0 478c0 4 2 8 4 11 3 2 7 4 11 4l341 0c4 0 8-2 11-4 3-3 5-7 5-11l0-117 59 59c3 3 7 5 11 5 4 0 8-2 11-5l51-51c3-3 4-7 4-11 0-4-1-7-4-10l-132-132 0-216c0-4-2-8-5-11-3-2-6-4-11-4z m15 30l311 0 0 171-76-77c-3-3-7-5-11-5l-51 0c-4 0-8 2-11 5-3 3-4 6-4 11l0 51c0 4 1 8 4 10l149 150 0 132-311 0z m188 149l0-29 30 0 181 181-30 30z m202 203l30-30 22 21-30 30z m-337 10c-4 0-7 2-10 5-3 3-5 6-5 11 0 4 2 7 5 10 2 3 6 5 10 5l205 0c4 0 8-2 11-5 3-3 4-6 4-10 0-4-1-8-4-11-3-3-7-5-11-5z m0-85c-4 0-7 2-10 5-3 2-5 6-5 10 0 4 2 8 5 11 2 3 6 4 10 4l103 0c4 0 8-1 10-4 3-3 5-7 5-11 0-4-2-8-5-10-2-3-6-5-10-5z"/>
<glyph glyph-name="list" unicode="&#56;" d="M361 344l-150 0c-8 0-15-7-15-15 0-8 7-15 15-15l150 0c8 0 15 7 15 15 0 8-7 15-15 15z m0-60l-150 0c-8 0-15-7-15-15 0-8 7-15 15-15l150 0c8 0 15 7 15 15 0 8-7 15-15 15z m0-60l-150 0c-8 0-15-7-15-15 0-8 7-15 15-15l150 0c8 0 15 7 15 15 0 8-7 15-15 15z m-210 90c8 0 15 7 15 15 0 8-7 15-15 15-8 0-15-7-15-15 0-8 7-15 15-15z m0-60c8 0 15 7 15 15 0 8-7 15-15 15-8 0-15-7-15-15 0-8 7-15 15-15z m0-60c8 0 15 7 15 15 0 8-7 15-15 15-8 0-15-7-15-15 0-8 7-15 15-15z m210-30l-150 0c-8 0-15-7-15-15 0-8 7-15 15-15l150 0c8 0 15 7 15 15 0 8-7 15-15 15z m0-60l-150 0c-8 0-15-7-15-15 0-8 7-15 15-15l150 0c8 0 15 7 15 15 0 8-7 15-15 15z m-210 30c8 0 15 7 15 15 0 8-7 15-15 15-8 0-15-7-15-15 0-8 7-15 15-15z m0-60c8 0 15 7 15 15 0 8-7 15-15 15-8 0-15-7-15-15 0-8 7-15 15-15z m296 334l-100 100c-3 2-7 4-11 4l-230 0c-25 0-45-20-45-45l0-422c0-25 20-45 45-45l300 0c25 0 45 20 45 45l0 352c0 4-2 8-4 11z m-96 53l49-49-49 0z m55-431l-300 0c-8 0-15 7-15 15l0 422c0 8 7 15 15 15l215 0 0-85c0-8 7-15 15-15l85 0 0-337c0-8-7-15-15-15z"/>
<glyph glyph-name="notebook" unicode="&#57;" d="M105 1c-15 0-29 6-40 16-10 11-16 25-16 40l0 366c0 15 6 29 16 40 11 10 25 16 40 16l16 0 0 17c0 4 2 8 4 11 3 2 7 4 11 4 4 0 8-2 11-4 2-3 4-7 4-11l0-17 50 0 0 17c0 4 2 8 4 11 3 2 7 4 11 4 4 0 8-2 11-4 2-3 4-7 4-11l0-17 50 0 0 17c0 4 2 8 4 11 3 2 7 4 11 4 4 0 8-2 11-4 2-3 4-7 4-11l0-17 50 0 0 17c0 4 2 8 4 11 3 2 7 4 11 4 4 0 8-2 11-4 2-3 4-7 4-11l0-17 16 0c15 0 29-6 40-16 10-11 16-25 16-40l0-366c0-15-6-29-16-40-11-10-25-16-40-16z m0 448c-7 0-13-3-18-8-5-5-8-11-8-18l0-366c0-7 3-14 8-18 5-5 11-8 18-8l302 0c7 0 14 3 18 8 5 4 8 11 8 18l0 366c0 7-3 13-8 18-4 5-11 8-18 8l-16 0 0-17c0-4-2-8-4-11-3-2-7-4-11-4-4 0-8 2-11 4-2 3-4 7-4 11l0 17-50 0 0-17c0-4-2-8-4-11-3-2-7-4-11-4-4 0-8 2-11 4-2 3-4 7-4 11l0 17-50 0 0-17c0-4-2-8-4-11-3-2-7-4-11-4-4 0-8 2-11 4-2 3-4 7-4 11l0 17-50 0 0-17c0-4-2-8-4-11-3-2-7-4-11-4-4 0-8 2-11 4-2 3-4 7-4 11l0 17z m39-144c-4 0-8 2-11 4-2 3-4 7-4 11 0 4 2 8 4 11 3 2 7 4 11 4l224 0c4 0 8-2 11-4 2-3 4-7 4-11 0-4-2-8-4-11-3-2-7-4-11-4z m0-64c-4 0-8 2-11 4-2 3-4 7-4 11 0 4 2 8 4 11 3 2 7 4 11 4l224 0c4 0 8-2 11-4 2-3 4-7 4-11 0-4-2-8-4-11-3-2-7-4-11-4z m0-64c-4 0-8 2-11 4-2 3-4 7-4 11 0 4 2 8 4 11 3 2 7 4 11 4l224 0c4 0 8-2 11-4 2-3 4-7 4-11 0-4-2-8-4-11-3-2-7-4-11-4z m0-64c-4 0-8 2-11 4-2 3-4 7-4 11 0 4 2 8 4 11 3 2 7 4 11 4l112 0c4 0 8-2 11-4 2-3 4-7 4-11 0-4-2-8-4-11-3-2-7-4-11-4z"/>
<glyph glyph-name="learning-plan" unicode="&#33;" d="M161 368c3-3 7-5 11-5 4 0 8 2 10 5l57 56c6 6 6 16 0 22-6 5-15 5-21 0l-46-46-18 17c-6 6-15 6-21 0-6-6-6-15 0-21z m135-38l-160 0c-8 0-15-7-15-15 0-8 7-15 15-15l160 0c8 0 15 7 15 15 0 8-7 15-15 15z m0-60l-160 0c-8 0-15-7-15-15 0-8 7-15 15-15l160 0c8 0 15 7 15 15 0 8-7 15-15 15z m0-60l-160 0c-8 0-15-7-15-15 0-8 7-15 15-15l160 0c8 0 15 7 15 15 0 8-7 15-15 15z m200 0l-125 0 0 287c0 8-7 15-15 15l-340 0c-8 0-15-7-15-15l0-402c0-52 43-95 95-95l330 0c47 0 85 38 85 85l0 110c0 8-7 15-15 15z m-465-115l0 387 310 0 0-397c0-21 8-40 20-55l-265 0c-36 0-65 29-65 65z m450-10c0-30-25-55-55-55-30 0-55 25-55 55l0 95 110 0z m-405 215c8 0 15 7 15 15 0 8-7 15-15 15-8 0-15-7-15-15 0-8 7-15 15-15z m0-60c8 0 15 7 15 15 0 8-7 15-15 15-8 0-15-7-15-15 0-8 7-15 15-15z m0-60c8 0 15 7 15 15 0 8-7 15-15 15-8 0-15-7-15-15 0-8 7-15 15-15z m220-30l-160 0c-8 0-15-7-15-15 0-8 7-15 15-15l160 0c8 0 15 7 15 15 0 8-7 15-15 15z m-220-30c8 0 15 7 15 15 0 8-7 15-15 15-8 0-15-7-15-15 0-8 7-15 15-15z"/>
<glyph glyph-name="favourite-list" unicode="&#34;" d="M447 408l-100 100c-3 2-7 4-11 4l-230 0c-25 0-45-20-45-45l0-422c0-25 20-45 45-45l300 0c25 0 45 20 45 45l0 352c0 4-2 8-4 11z m-26-363c0-8-7-15-15-15l-300 0c-8 0-15 7-15 15l0 422c0 8 7 15 15 15l225 0 90-91z m-81 337c-1 5-6 9-11 9l-42 6-18 39c-5 9-21 9-26 0l-19-39-41-6c-5 0-10-4-11-9-2-5-1-10 3-14l30-30-7-42c-1-5 1-11 6-14 4-3 10-3 15 0l37 19 37-19c2-1 4-2 7-2 2 0 5 1 8 3 4 3 6 8 6 13l-8 42 31 30c4 4 5 9 3 14z m-59-30c-3-3-4-7-4-11l4-22-18 10c-2 1-5 2-7 2-2 0-5-1-7-2l-18-10 4 22c0 4-1 8-4 11l-16 16 21 4c5 0 9 3 11 7l9 19 9-19c2-4 6-7 11-7l22-4z m-145-130c0 8 7 15 15 15l210 0c8 0 15-7 15-15 0-9-7-15-15-15l-210 0c-8 0-15 6-15 15z m0-60c0 8 7 15 15 15l210 0c8 0 15-7 15-15 0-9-7-15-15-15l-210 0c-8 0-15 6-15 15z m0-60c0 8 7 15 15 15l210 0c8 0 15-7 15-15 0-9-7-15-15-15l-210 0c-8 0-15 6-15 15z"/>
<glyph glyph-name="medical" unicode="&#35;" d="M236 171l-100 0c-8 0-15-7-15-15 0-9 7-15 15-15l100 0c8 0 15 6 15 15 0 8-7 15-15 15z m0 120l-100 0c-8 0-15-7-15-15 0-8 7-15 15-15l100 0c8 0 15 7 15 15 0 8-7 15-15 15z m140-120l-60 0c-8 0-15-7-15-15 0-8 7-15 15-15l60 0c8 0 15 7 15 15 0 8-7 15-15 15z m-140-60l-100 0c-8 0-15-7-15-15 0-8 7-15 15-15l100 0c8 0 15 7 15 15 0 8-7 15-15 15z m140 0l-60 0c-8 0-15-7-15-15 0-8 7-15 15-15l60 0c8 0 15 7 15 15 0 8-7 15-15 15z m-140 119l-100 0c-8 0-15-6-15-15 0-8 7-15 15-15l100 0c8 0 15 7 15 15 0 9-7 15-15 15z m65-14c0-8 7-15 15-15l60 0c8 0 15 7 15 15 0 8-7 15-15 15l-60 0c-8 0-15-7-15-15z m165-200l0 368c0 4-2 7-4 9l-125 111 0 0c-3 3-6 4-9 4l-271 0c-7 0-12-6-12-12l0-480c0-6 5-12 12-12 132 0 265 0 397 0 7 0 12 6 12 12z m-126 452l81-72-81 0z m101-439l-371 0 0 454 246 0 0-99c-1-7 5-12 12-12l114 0z m-211 373l-30 0 0 30c0 3-2 5-5 5l-20 0c-3 0-5-2-5-5l0-30-30 0c-3 0-5-2-5-5l0-20c0-3 2-5 5-5l30 0 0-30c0-3 2-5 5-5l20 0c3 0 5 2 5 5l0 30 30 0c3 0 5 2 5 5l0 20c0 3-2 5-5 5z"/>
<glyph glyph-name="receipt" unicode="&#36;" d="M446 0c-3 0-6 1-9 3l-67 50-49-49c-3-2-6-4-10-4-4 0-8 2-10 4l-48 48-48-48c-2-2-6-4-10-4-4 0-7 2-10 4l-49 49-67-50c-3-2-6-3-9-3-2 0-4 1-6 2-5 2-8 7-8 12l0 484c0 8 6 14 14 14l386 0c8 0 14-6 14-14l0-484c0-5-3-10-8-12-2-1-4-2-6-2z m-193 87c4 0 7-2 10-5l48-47 47 47c3 3 7 5 11 5 3 0 6-1 8-3l54-41 0 440-356 0 0-440 54 41c2 2 5 3 8 3 4 0 8-2 11-5l47-47 48 47c3 3 6 5 10 5z m-96 87c-8 0-15 6-15 14 0 8 7 15 15 15l192 0c8 0 15-7 15-15 0-8-7-14-15-14z m0 97c-8 0-15 6-15 14 0 8 7 14 15 14l192 0c8 0 15-6 15-14 0-8-7-14-15-14z m0 96c-8 0-15 7-15 15 0 8 7 14 15 14l192 0c8 0 15-6 15-14 0-8-7-15-15-15z"/>
<glyph glyph-name="passport" unicode="&#37;" d="M400 512l-321 0c-8 0-15-7-15-15l0-482c0-8 7-15 15-15l321 0c26 0 47 21 47 47l0 418c1 26-21 47-47 47z m18-465c0-9-8-17-18-17l-306 0 0 452 306 0c10 0 17-8 17-17z m-162 369c-71 0-128-58-128-128 0-70 57-127 128-127 70 0 127 57 127 127 0 70-57 128-127 128z m96-113l-41 0c-2 26-6 50-13 70 0 1-1 2-1 3 29-13 50-40 55-73z m-96-112c-2 0-9 5-15 25-5 15-9 35-10 57l50 0c-1-22-5-42-10-57-7-20-14-25-15-25z m-25 112c1 22 4 42 10 57 6 20 13 25 15 25 1 0 8-5 15-25 5-15 8-35 10-57z m-16 73c-1-1-1-2-2-3-7-20-11-44-12-70l-42 0c6 33 27 60 56 73z m-56-103l42 0c1-26 13-72 14-73-29 13-50 41-56 73z m138-73c0 1 12 47 14 73l41 0c-5-32-26-60-55-73z m39-74l-161 0c-8 0-15-6-15-15 0-8 7-15 15-15l161 0c8 0 15 7 15 15 0 9-7 15-15 15z"/>
<glyph glyph-name="file-setting" unicode="&#38;" d="M211 342l0-20c-7-3-13-6-19-11l-17 10c-8 4-17 2-21-6l-30-51c-2-4-3-8-1-12 1-4 3-7 7-9l16-10c0-4 0-7 0-11 0-4 0-7 0-11l-16-10c-4-2-6-5-7-9-2-4-1-8 1-12l30-51c4-8 13-10 21-6l17 10c6-5 12-8 19-11l0-20c0-8 7-15 15-15l60 0c8 0 15 7 15 15l0 20c7 3 13 6 19 11l17-10c8-4 17-2 21 6l30 51c2 4 2 8 1 12-1 4-3 7-7 9l-17 10c1 4 1 7 1 11 0 4 0 7-1 11l17 10c4 2 6 5 7 9 1 4 1 8-1 12l-30 51c-4 8-13 10-21 6l-17-10c-6 5-12 8-19 11l0 20c0 8-7 15-15 15l-60 0c-8 0-15-7-15-15z m30-30l0 15 30 0 0-15c0-6 4-12 10-14 10-4 20-9 28-16 5-5 12-5 17-2l13 7 15-25-12-8c-6-3-9-10-8-16 1-5 2-11 2-16 0-5-1-11-2-16-1-6 2-13 8-16l12-8-15-25-13 7c-5 3-12 3-17-2-8-7-18-12-28-16-6-2-10-8-10-14l0-15-30 0 0 15c0 6-4 12-10 14-11 4-20 9-28 16-5 5-12 5-18 2l-13-7-15 25 13 8c6 3 9 10 8 16-2 5-2 11-2 16 0 5 0 11 2 16 1 6-2 13-8 16l-13 8 15 25 13-7c6-3 13-3 18 2 8 7 17 12 28 16 6 2 10 8 10 14z m15-145c30 0 55 25 55 55 0 30-25 55-55 55-30 0-55-25-55-55 0-30 25-55 55-55z m0 80c14 0 25-11 25-25 0-14-11-25-25-25-14 0-25 11-25 25 0 14 11 25 25 25z m191 161l-100 100c-3 2-7 4-11 4l-230 0c-25 0-45-20-45-45l0-422c0-25 20-45 45-45l300 0c25 0 45 20 45 45l0 352c0 4-2 8-4 11z m-96 53l49-49-49 0z m55-431l-300 0c-8 0-15 7-15 15l0 422c0 8 7 15 15 15l215 0 0-85c0-8 7-15 15-15l85 0 0-337c0-8-7-15-15-15z"/>
<glyph glyph-name="phonebook" unicode="&#39;" d="M427 512l-340 0c-9 0-15-7-15-15l0-45-17 0c-8 0-15-6-15-15 0-8 7-15 15-15l17 0 0-42-17 0c-8 0-15-6-15-15 0-8 7-15 15-15l17 0 0-42-17 0c-8 0-15-6-15-15 0-8 7-15 15-15l17 0 0-42-17 0c-8 0-15-6-15-15 0-8 7-15 15-15l17 0 0-42-17 0c-8 0-15-6-15-15 0-8 7-15 15-15l17 0 0-42-17 0c-8 0-15-6-15-15 0-8 7-15 15-15l17 0 0-47c0-8 6-15 15-15l340 0c25 0 45 20 45 45l0 422c0 25-20 45-45 45z m15-467c0-8-7-15-15-15l-325 0 0 32 19 0c9 0 15 7 15 15 0 9-6 15-15 15l-19 0 0 42 19 0c9 0 15 7 15 15 0 9-6 15-15 15l-19 0 0 42 19 0c9 0 15 7 15 15 0 9-6 15-15 15l-19 0 0 42 19 0c9 0 15 7 15 15 0 9-6 15-15 15l-19 0 0 42 19 0c9 0 15 7 15 15 0 9-6 15-15 15l-19 0 0 42 19 0c9 0 15 7 15 15 0 9-6 15-15 15l-19 0 0 30 325 0c8 0 15-7 15-15z m-120 215c11 10 17 25 17 41 0 33-27 61-60 61-33 0-61-28-61-61 0-16 6-30 17-41-27-16-47-45-47-80l0-15c0-8 7-15 15-15l151 0c8 0 15 7 15 15l0 15c0 34-19 64-47 80z m-43 72c16 0 30-14 30-31 0-17-13-30-30-30-17 0-31 14-31 30 0 17 14 31 31 31z m-61-152c0 33 28 61 61 61 33 0 60-27 60-61z"/>
<glyph glyph-name="tasklist" unicode="&#40;" d="M435 466c-10 10-24 16-39 16l-25 0 0 5c0 14-11 25-25 25l-180 0c-14 0-25-11-25-25l0-5-25 0c-30 0-55-25-55-55l0-372c0-15 6-28 16-39 10-10 24-16 39-16l280 0c30 0 55 25 55 55l0 372c0 15-6 28-16 39z m-264 16l170 0 0-30-170 0z m250-427c0-14-12-25-25-25l-280 0c-7 0-13 3-18 7-4 5-7 11-7 18l0 372c0 14 12 25 25 25l25 0 0-5c0-14 11-25 25-25l180 0c14 0 25 11 25 25l0 5 25 0c7 0 13-3 18-7 4-5 7-11 7-18z m-160 257l107 0c8 0 15 7 15 15 0 8-7 15-15 15l-107 0c-8 0-15-7-15-15 0-8 7-15 15-15z m0-100l107 0c8 0 15 7 15 15 0 8-7 15-15 15l-107 0c-8 0-15-7-15-15 0-8 7-15 15-15z m107-70l-107 0c-8 0-15-7-15-15 0-8 7-15 15-15l107 0c8 0 15 7 15 15 0 8-7 15-15 15z m-171 226l-34-35-8 8c-6 6-16 6-22 0-6-5-6-15 0-21l19-19c3-2 7-4 11-4 4 0 7 2 10 4l45 46c6 5 6 15 0 21-5 6-15 6-21 0z m0-108l-34-34-8 8c-6 6-16 6-22 0-6-6-6-16 0-21l19-19c3-3 7-5 11-5 4 0 7 2 10 5l45 45c6 6 6 15 0 21-5 6-15 6-21 0z m0-100l-34-34-8 8c-6 6-16 6-22 0-6-6-6-16 0-21l19-19c3-3 7-5 11-5 4 0 7 2 10 5l45 45c6 6 6 15 0 21-5 6-15 6-21 0z"/>
<glyph glyph-name="job-application" unicode="&#41;" d="M437 270l-121 0c-8 0-15-7-15-15 0-8 7-15 15-15l121 0c8 0 15 7 15 15 0 8-7 15-15 15z m0-60l-91 0c-8 0-15-7-15-15 0-8 7-15 15-15l91 0c8 0 15 7 15 15 0 8-7 15-15 15z m0-120l-121 0c-8 0-15-7-15-15 0-8 7-15 15-15l121 0c8 0 15 7 15 15 0 8-7 15-15 15z m60 422l-331 0c-8 0-15-7-15-15l0-134-74 74c-18 17-46 17-64 0-17-18-17-46 0-64l138-137 0-131c0 0 0 0 0 0 0-4 2-8 4-11 0 0 0 0 0 0l90-90c3-2 7-4 11-4l241 0c8 0 15 7 15 15l0 482c0 8-7 15-15 15z m-463-96c6 5 16 5 22 0l191-191c-4-3-8-5-12-9-4-4-7-8-9-13-14 14-182 182-192 191-5 6-5 16 0 22z m221-241c-4 6-4 14 1 20 6 5 14 6 20 1l13-34z m-14-124l-39 39 39 0z m241-21l-211 0 0 75c0 8-7 15-15 15l-75 0 0 86 54-54c1-1 3-2 5-3 0 0 0 0 0 0l70-28c2-1 4-1 6-1l121 0c8 0 15 7 15 15 0 8-7 15-15 15l-111 0-24 61c0 0 0 0 0 0-1 2-2 3-3 5 0 0 0 0 0 0 0 0 0 0 0 0l-118 117 0 149 301 0z m-233 278l104 0c9 0 15 7 15 15l0 14c0 23-12 44-30 56 5 7 8 16 8 26 0 25-20 45-45 45-25 0-45-20-45-45 0-10 3-19 8-26-18-12-30-33-30-56l0-14c0-8 7-15 15-15z m37 111c0 8 7 15 15 15 8 0 15-7 15-15 0-8-7-15-15-15-8 0-15 7-15 15z m15-45c20 0 37-16 37-36l-74 0c1 20 17 36 37 36z"/>
<glyph glyph-name="contract" unicode="&#42;" d="M375 476l-105 0c-4 20-22 36-43 36l-64 0c-21 0-39-16-43-36l-105 0c-8 0-15-7-15-15l0-446c0-8 7-15 15-15l360 0c8 0 15 7 15 15l0 446c0 8-7 15-15 15z m-226-8c0 8 6 14 14 14l64 0c8 0 14-6 14-14l0-16-92 0z m211-438l-330 0 0 416 89 0 0-9c0-8 7-15 15-15l122 0c8 0 15 7 15 15l0 9 89 0z m137 401l-60 0c-8 0-15-7-15-15l0-341c0-2 1-5 2-7l30-60c5-11 21-11 26 0l30 60c1 2 2 5 2 7l0 341c0 8-7 15-15 15z m-15-30l0-30-30 0 0 30z m-15-352l-15 30 0 262 30 0 0-262z m-150 138l-90 0c-8 0-15-7-15-15 0-8 7-15 15-15l90 0c8 0 15 7 15 15 0 8-7 15-15 15z m0 179l-241 0c-8 0-15-6-15-15 0-8 7-15 15-15l241 0c8 0 15 7 15 15 0 9-7 15-15 15z m0-60l-241 0c-8 0-15-6-15-15 0-8 7-15 15-15l241 0c8 0 15 7 15 15 0 9-7 15-15 15z m0-60l-241 0c-8 0-15-6-15-15 0-8 7-15 15-15l241 0c8 0 15 7 15 15 0 9-7 15-15 15z m-105-155l-4 0c-2 0-3 1-4 3l-4 13c-3 9-12 16-22 16-10 0-18-6-22-15l-4-9-8 25c-3 9-12 16-22 16 0 0 0 0 0 0-10 0-19-7-22-17l-10-32-16 0c-7 0-13-5-13-12 0-7 6-13 13-13l26 0c5 0 10 4 12 9l10 35 10-31c3-8 10-14 19-14 0 0 1 0 1 0 8 0 16 5 19 13l6 16 3-8c4-12 15-20 28-20l4 0c7 0 13 6 13 13 0 7-6 12-13 12z"/>
<glyph glyph-name="curriculum-vitae" unicode="&#43;" d="M278 270l26-19-10-32c-3-10 9-20 18-13l27 19 27-19c9-7 21 2 18 13l-10 32 27 19c9 7 4 21-7 21l-33 0-11 32c-3 11-18 10-22 0l-10-31-33 0c-11-1-16-15-7-22z m55 0c3 2 4 5 6 7 2-2 3-5 6-7 3-2 6-2 9-3-2-3-4-5-5-8-2-3-1-7-1-10-3 1-6 3-9 3-3 0-6-2-9-3 0 3 1 7 0 10-1 3-4 5-5 8 3 1 6 1 8 3z m-55-144l26-19-10-32c-3-10 9-20 18-13l27 19 27-19c9-7 21 2 18 13l-10 32 27 19c9 7 4 21-7 21l-33 0-11 32c-3 11-18 10-22 0l-10-31-33 0c-11-1-16-15-7-22z m55 0c3 2 4 5 6 7 2-2 3-5 6-7 3-2 6-2 9-3-2-3-4-5-5-8-2-3-1-7-1-10-3 1-6 3-9 3-3 0-6-2-9-3 0 3 1 7 0 10-1 3-4 5-5 8 3 1 6 1 8 3z m-197 177l104 0c9 0 15 7 15 15l0 14c0 23-12 44-30 56 5 7 8 16 8 26 0 25-20 45-45 45-25 0-45-20-45-45 0-10 3-19 8-26-18-12-30-33-30-56l0-14c0-8 7-15 15-15z m37 111c0 8 7 15 15 15 8 0 15-7 15-15 0-8-7-15-15-15-8 0-15 7-15 15z m15-45c20 0 37-16 37-36l-74 0c1 20 17 36 37 36z m-67-117c0 8 7 15 15 15l109 0c8 0 15-7 15-15 0-8-7-15-15-15l-109 0c-8 0-15 7-15 15z m0-76c0 8 7 15 15 15l109 0c8 0 15-7 15-15 0-8-7-15-15-15l-109 0c-8 0-15 7-15 15z m0-76c0 8 7 15 15 15l109 0c8 0 15-7 15-15 0-8-7-15-15-15l-109 0c-8 0-15 7-15 15z m326 308l-100 100c-3 2-7 4-11 4l-230 0c-25 0-45-20-45-45l0-422c0-25 20-45 45-45l300 0c25 0 45 20 45 45l0 352c0 4-2 8-4 11z m-96 53l49-49-49 0z m55-431l-300 0c-8 0-15 7-15 15l0 422c0 8 7 15 15 15l215 0 0-85c0-8 7-15 15-15l85 0 0-337c0-8-7-15-15-15z"/>
<glyph glyph-name="ekyc" unicode="&#44;" d="M392 240l0 257c0 8-7 15-15 15l-260 0c-12 0-23-5-31-13l-73-73c-8-8-13-19-13-31l0-350c0-8 7-15 15-15l298 0c21-19 49-30 79-30 66 0 120 54 120 120 0 66-54 120-120 120z m-302 221l0-39-39 0z m-60-401l0 332 75 0c8 0 15 7 15 15l0 75 242 0 0-246c-31-8-58-29-74-56 0 0-1 0-1 0l-182 0c-8 0-15-7-15-15 0-8 7-15 15-15l171 0c-3-9-4-20-4-30l-167 0c-8 0-15-7-15-15 0-8 7-15 15-15l171 0c3-11 7-21 12-30z m362-30c-50 0-90 40-90 90 0 50 40 90 90 90 50 0 90-40 90-90 0-50-40-90-90-90z m56 131c-6 5-16 5-22 0l-49-50-19 20c-6 5-16 5-22 0-5-6-5-16 0-22l30-30c3-3 7-4 11-4 4 0 8 1 11 4l60 60c5 6 5 16 0 22z m-314 216c0 32 26 58 58 58 32 0 58-26 58-58 0-14-5-28-14-38 34-16 57-51 57-91l0-10c0-13-10-23-23-23l-155 0c-13 0-23 10-23 23l0 10c0 40 23 74 56 91-9 10-14 23-14 38z m58-28c15 0 28 13 28 28 0 15-13 28-28 28-15 0-28-13-28-28 0-15 13-28 28-28z m-2-30c-38 0-68-30-68-68 0-3 2-5 5-5l131 0c3 0 5 2 5 5 0 38-30 68-68 68z"/>
<glyph glyph-name="anniversary" unicode="&#45;" d="M302 319l72 71c23 23 23 60 0 83-20 20-50 22-73 8-22 14-52 12-72-8-23-23-23-60 0-83z m-52 133c11 11 29 11 40 0l12-12 11 12c11 11 29 11 40 0 11-11 11-29 0-40l-51-51-52 51c-11 11-11 29 0 40z m181-298c15 14 24 34 24 56 0 42-34 76-76 76-42 0-76-34-76-76 0-22 9-42 24-56-8-3-17-7-24-13-18 24-44 42-74 51 19 17 31 42 31 70 0 52-42 95-95 95-52 0-95-43-95-95 0-28 12-53 31-70-58-17-101-71-101-135l0-17c0-22 18-40 40-40l442 0c17 0 30 13 30 30l0 4c0 54-33 101-81 120z m-52 102c25 0 46-21 46-46 0-25-21-46-46-46-25 0-46 21-46 46 0 25 21 46 46 46z m-279 6c0 36 29 65 65 65 36 0 65-29 65-65 0-36-29-65-65-65-36 0-65 29-65 65z m146-228l0-4-196 0c-11 0-20 9-20 20l0 7c0 61 49 110 110 110l51 0c37 0 69-18 89-45-21-24-34-54-34-88z m232-4l-198 0c-2 0-4 2-4 4 0 22 7 42 19 59 7 8 14 16 23 23 17 11 37 18 58 18l6 0c55 0 100-45 100-100 0-2-2-4-4-4z"/>
<glyph glyph-name="resign" unicode="&#46;" d="M228 379l-39 0 0 1c26 10 44 35 44 62 0 37-30 66-66 66-36 0-65-29-65-66 0-27 17-52 44-62l-1-1-39 0c-39 0-71-32-71-72l0-100c0-16 5-31 16-44 10-12 23-21 39-25l1 0 0-119c0-5 2-10 6-13 2-2 5-3 9-3l123 0c3 0 6 1 9 3 4 3 6 8 6 13l0 119 1 0c15 4 29 13 39 25 10 13 15 28 15 44l0 100c0 40-32 72-71 72z m-95 63c0 19 15 35 34 35 19 0 34-16 34-35 0-18-15-34-34-34-19 0-34 16-34 34z m135-235c0-15-9-29-23-36l-1 0 0 109c0 8-7 15-16 15-8 0-15-7-15-15l0-248-30 0 0 120c0 8-7 16-16 16-8 0-15-7-15-16l0-120-30 0 0 248c0 8-7 15-16 15-8 0-15-7-15-15l0-109-2 0c-14 7-23 21-23 36l0 100c0 22 18 40 40 40l122 0c22 0 40-18 40-40z m110 107c-4 0-8 1-11 4-6 7-6 17 0 23l56 56-145 0c-8 0-16 7-16 16 0 9 7 16 16 16l146 0-57 56c-6 6-6 16 0 22 3 3 7 5 11 5 4 0 8-2 11-5l83-83c3-2 5-6 6-9 1-6-2-10-6-13-2-2-82-83-83-84-3-2-7-4-11-4z"/>
<glyph glyph-name="family" unicode="&#47;" d="M512 288l0 105c0 65-54 119-119 119-66 0-120-54-120-119l0-92c-5 1-11 2-17 2-10 0-19-2-28-5-15 32-40 49-56 57 21 16 35 41 35 70 0 48-39 87-88 87-48 0-87-39-87-87 0-29 14-54 35-70-40-19-67-60-67-107l0-228c0-11 9-20 20-20 81 0 383 0 472 0 11 0 20 9 20 20l0 164c0 32-12 62-35 84-2 2-3 4-5 5l25 0c8 0 15 7 15 15z m-78 55c0-22-18-40-40-40-24 0-43 19-43 43l0 35c27-6 55-10 83-11z m-129-119c0-27-22-49-49-49-27 0-49 22-49 49 0 27 22 49 49 49 27 0 49-22 49-49z m-243 201c0 31 26 57 57 57 32 0 58-26 58-57 0-32-26-58-58-58-31 0-57 26-57 58z m-32-177c0 49 40 89 89 89 37 0 70-22 83-55-15-15-25-35-25-58 0-26 12-48 30-63-28-16-46-47-46-82l0-49-131 0z m161-169c0 36 29 66 65 66 36 0 65-30 65-66l0-49-130 0z m291 105l0-154-131 0 0 49c0 35-18 66-46 82 18 15 30 37 30 63 0 9-1 17-4 25 17 15 39 24 62 24 23 0 46-9 63-26 17-17 26-39 26-63z m0 119l-31 0c8 11 13 25 13 40l0 42c0 8-7 15-15 15-31 0-62 3-92 11l-17 4c-5 1-9 0-13-3-4-2-6-7-6-11l0-55c0-16 5-31 14-43l-32 0 0 90c0 49 40 89 90 89 49 0 89-40 89-89z"/>
<glyph glyph-name="user" unicode="&#58;" d="M326 277c35 23 58 62 58 106 0 71-57 128-128 128-71 0-128-57-128-128 0-44 23-83 58-106-82-25-141-101-141-190l0-57c0-17 14-30 30-30l363 0c16 0 30 13 30 30l0 57c0 89-60 165-142 190z m-168 106c0 54 44 98 98 98 54 0 98-44 98-98 0-53-44-97-98-97-54 0-98 44-98 97z m280-343c0-6-5-10-10-10l-343 0c-5 0-10 4-10 10l0 47c0 93 76 169 170 169l23 0c94 0 170-76 170-169z"/>
<glyph glyph-name="users" unicode="&#59;" d="M371 300c29 21 47 55 47 94 0 65-53 118-118 118-40 0-75-20-96-50-3 0-5 0-7 0-65 0-118-53-118-118 0-41 20-76 52-98-76-25-131-96-131-180l0-36c0-17 13-30 30-30l349 0c17 0 30 13 30 30l0 20 73 0c17 0 30 13 30 30l0 36c0 88-60 162-141 184z m-71 182c49 0 88-39 88-88 0-46-35-83-79-88 4 12 6 25 6 38 0 51-33 95-78 111 16 17 38 27 63 27z m-191-138c0 46 35 83 79 88 3 0 6 0 9 0 8 0 15-1 22-3 38-10 66-44 66-85 0-13-3-24-7-35-1-1-1-3-2-4-4-8-9-16-16-22-6-7-13-12-21-16-5-3-10-5-16-7-8-3-17-4-26-4-9 0-19 1-27 4-36 12-61 45-61 84z m270-304c0-6-4-10-10-10l-329 0c-5 0-10 4-10 10l0 26c0 67 42 125 101 149 14 5 29 9 45 10 5 1 9 1 14 1l29 0c84 0 152-64 159-146 1-5 1-9 1-14l0-26z m103 50c0-6-4-10-10-10l-63 0c-6 82-64 149-141 170 10 7 18 16 26 26l28 0c89 0 160-72 160-160l0-26z"/>
<glyph glyph-name="candidate" unicode="&#60;" d="M327 278c34 23 57 62 57 106 0 71-57 128-128 128-71 0-128-57-128-128 0-44 23-84 58-107-82-25-141-101-141-190l0-57c0-17 13-30 30-30l363 0c17 0 30 13 30 30l0 57c0 90-59 166-141 191z m-169 106c0 54 44 98 98 98 54 0 98-44 98-98 0-54-44-98-98-98-54 0-98 44-98 98z m83-354l-156 0c-5 0-10 4-10 10l0 47c0 92 74 167 166 169z m197 10c0-6-4-10-10-10l-157 0 0 226c93-1 167-76 167-169z"/>
<glyph glyph-name="employee" unicode="&#61;" d="M327 278c34 23 57 62 57 106 0 71-57 128-128 128-71 0-128-57-128-128 0-44 23-84 58-107-82-25-141-101-141-190l0-57c0-17 13-30 30-30l363 0c17 0 30 13 30 30l0 57c0 90-59 166-141 191z m-169 106c0 54 44 98 98 98 54 0 98-44 98-98 0-54-44-98-98-98-54 0-98 44-98 98z m98-171l27-100-26-23-27 23z m182-173c0-6-4-10-10-10l-343 0c-5 0-10 4-10 10l0 47c0 91 72 165 162 169l-40-149 0 0 0 0 60-57 59 57-40 149c90-4 162-78 162-169z"/>
<glyph glyph-name="manager" unicode="&#62;" d="M327 278c34 23 57 62 57 106 0 71-57 128-128 128-71 0-128-57-128-128 0-44 23-84 58-107-82-25-141-101-141-190l0-57c0-17 13-30 30-30l363 0c17 0 30 13 30 30l0 57c0 90-59 166-141 191z m-82-22l23 0c2 0 4 0 6 0l-17-30-17 30c1 0 3 0 5 0z m-87 128c0 54 44 98 98 98 54 0 98-44 98-98 0-54-44-98-98-98-54 0-98 44-98 98z m280-344c0-6-4-10-10-10l-343 0c-5 0-10 4-10 10l0 47c0 81 57 148 133 165l32-56-46-82 63-63 21 21 42 42-46 82 32 56c76-17 132-85 132-165z m-181 53l-27 27 27 47 27-46z"/>
<glyph glyph-name="skills" unicode="&#63;" d="M51 232l86 0c8 0 15 7 15 15 0 8-7 15-15 15l-87 0 14 13c6 6 6 16 0 22-6 5-16 5-21 0l-39-39c-3-3-4-7-4-11 0-4 1-8 4-11l39-38c5-6 15-6 21 0 6 6 6 16 0 21z m35 120c8 0 15 6 15 15l0 18 60-61c6-6 16-6 21 0 6 6 6 16 0 21l-61 61 19 0c9 0 15 7 15 15 0 9-6 15-15 15l-54 0c-4 0-8-2-11-4-2-3-4-7-4-11l0-54c0-9 7-15 15-15z m141 91l13 12 0-85c0-8 6-15 15-15 8 0 15 7 15 15l0 86 13-13c6-6 15-6 21 0 6 6 6 15 0 21l-38 38c-3 3-7 5-11 5-4 0-8-2-11-5l-38-38c-6-6-6-15 0-21 6-6 15-6 21 0z m123-118l61 61 0-19c0-9 7-15 15-15 8 0 15 6 15 15l0 54c0 4-2 8-5 11-3 2-6 4-11 4l-54 0c-8 0-15-6-15-15 0-8 7-15 15-15l18 0-60-60c-6-6-6-15 0-21 6-6 15-6 21 0z m157-67l-39 39c-5 5-15 5-21 0-6-6-6-16 0-22l13-12-86 0c-8 0-14-7-14-15 0-8 6-15 14-15l87 0-14-14c-6-5-6-15 0-21 6-6 16-6 21 0l39 38c3 3 4 7 4 11 0 4-1 8-4 11z m-200-97c15 14 24 33 24 55 0 42-34 76-75 76-42 0-76-34-76-76 0-22 9-41 24-55-48-20-81-66-81-121l0-4c0-16 13-30 30-30l205 0c17 0 30 14 30 30l0 4c0 55-33 101-81 121z m-51 101c25 0 45-21 45-46 0-25-20-46-45-46-26 0-46 21-46 46 0 25 20 46 46 46z m98-226l-197 0c-2 0-4 2-4 4 0 56 44 100 100 100l6 0c55 0 99-44 99-100 0-2-1-4-4-4z"/>
<glyph glyph-name="employee-transfer" unicode="&#64;" d="M508 231c0 0 0 0 0 1 0 0 0 0 1 0 0 1 0 1 0 1 0 0 0 0 0 1 1 0 1 0 1 0 0 0 0 1 0 1 0 0 0 0 0 1 0 0 0 0 1 0 0 0 0 1 0 1 0 0 0 0 0 0 0 1 0 1 0 2 0 0 0 0 0 0 0 4-1 8-4 12l-89 88c-2 3-6 4-10 4-4 0-7-1-10-4-3-3-4-6-4-10 0-4 1-8 4-11l63-63-152 0c-8 0-15-7-15-15 0-8 6-14 15-14l152 0-63-64c-6-6-6-15 0-20 2-3 6-5 10-5 4 0 8 2 10 5l89 88c0 0 0 1 1 1z m-440 96c0 50 40 90 90 90 50 0 90-40 90-90 0-28-13-54-34-70 59-23 100-80 100-146l0-30c0-13-11-24-24-24l-264 0c-13 0-24 11-24 24l0 30c0 66 41 123 100 146-21 16-34 42-34 70z m90-60c33 0 60 27 60 60 0 33-27 60-60 60-33 0-60-27-60-60 0-33 27-60 60-60z m126-171l0 14c0 70-57 127-127 127-70 0-127-57-127-127l0-14c0-5 4-9 9-9l236 0c5 0 9 4 9 9z"/>
<glyph glyph-name="user-edit" unicode="&#91;" d="M269 44c-5 0-8 2-10 5-3 3-4 9-2 15l27 84 4 6 146 152c3 3 7 5 11 5 4 0 7-2 10-5l53-54c3-3 4-7 4-11 0-4-1-8-4-11-48-50-144-149-147-153l-9-5-76-27c-3-1-5-1-7-1z m26 40l28 10-19 19z m23 58l32-33 126 131-31 34z m-290-51c-13 0-24 11-24 24l0 32c0 34 10 66 30 94 18 27 45 47 75 59l2 0-2 2c-22 17-35 44-35 73 0 52 42 94 94 94 52 0 94-42 94-94 0-29-13-56-35-73l-2-2 2 0c48-19 84-59 99-107l-25-26c-10 65-68 114-134 114-75 0-135-61-135-135l0-15c0-6 4-10 10-10l234 0-10-30-238 0z m140 349c-35 0-64-29-64-65 0-35 28-64 64-64 36 0 65 29 65 64 0 36-29 65-65 65z"/>
<glyph glyph-name="face-id" unicode="&#93;" d="M17 422c-8 0-15 7-15 15l0 55c0 10 8 18 18 18l56 0c8 0 15-7 15-15 0-9-7-16-15-16l-43 0 0-42c0-8-7-15-16-15z m478 0c-9 0-15 7-15 15l0 42-44 0c-8 0-15 7-15 16 0 8 7 15 15 15l56 0c10 0 18-8 18-18l0-55c0-8-7-15-15-15z m-475-421c-10 0-18 8-18 18l0 53c0 9 7 16 15 16 9 0 16-7 16-16l0-41 43 0c8 0 15-6 15-15 0-8-7-15-15-15z m415 0c-8 0-14 7-14 15 0 9 7 16 15 16l44 0 0 41c0 8 6 15 15 15 8 0 15-7 15-15l0-54c0-10-8-18-18-18z m-269 345c0 50 40 90 90 90 50 0 90-40 90-90 0-28-13-54-34-70 59-23 100-80 100-146l0-30c0-13-11-24-24-24l-264 0c-13 0-24 11-24 24l0 30c0 66 41 123 100 146-21 16-34 42-34 70z m90-60c33 0 60 27 60 60 0 33-27 60-60 60-33 0-60-27-60-60 0-33 27-60 60-60z m126-171l0 14c0 70-57 127-127 127-70 0-127-57-127-127l0-14c0-5 4-9 9-9l236 0c5 0 9 4 9 9z"/>
<glyph glyph-name="user-status" unicode="&#94;" d="M508 159c-2 16-6 32-12 47-1 4-4 6-8 8-2 1-5 1-7 1l-29-3c-3 4-7 8-10 12l7 30c1 6-1 12-7 15-6 5-13 9-21 12-7 3-15 5-22 7-6 2-13-1-16-6l-10-15-6-11-16-1-17 24c-6 9-12 8-15 6-3-1-5-1-8-3-13 8-28 14-43 18 28 21 47 56 47 94 0 65-53 118-118 118-65 0-118-53-118-118 0-40 21-76 52-97-76-25-130-96-130-180l0-36c0-17 13-30 29-30l223 0c6-7 12-13 20-19 1-1 2-2 3-2 4-2 10-2 14 1l30 19 3-2 7-35c1-4 4-8 9-10 1-1 2-1 4-1 16-2 33-2 49 2 7 1 11 6 12 12l5 34c1 1 3 2 5 3l31-15 0-1c6-2 12-1 16 3 12 12 23 25 30 40 3 5 2 12-2 17l-22 22c1 4 2 8 3 12l29 14c6 2 9 8 9 14z m-399 235c0 49 40 88 88 88 49 0 88-39 88-88 0-48-39-88-88-88-48 0-88 40-88 88z m132-308c-1-1-2-3-3-5l-198 0c-5 0-10 4-10 10l0 26c0 67 42 125 101 148 38 13 87 14 128 6 7-2 14-4 21-6-2-2-4-4-7-5-4-4-6-10-4-16l10-31c-3-3-5-7-7-10l-31 0c-7 0-12-4-14-10-6-16-8-32-8-49 0-6 3-11 9-13 10-5 22-8 33-12 0-2 1-4 1-6z m209 68c-9-4-8-13-10-21-2-10-8-20 0-28l20-21c-4-5-7-10-12-15l-28 14c-4 2-8 2-11 0-3 0-5-2-7-3-1-1-2-1-3-1-2-1-3-2-5-3-6-2-13-5-14-13l-4-32c-6-1-13-1-19-1l-7 32c-1 10-9 11-17 14-4 2-8 4-12 5-3 1-6 0-9-2l-28-17c-5 4-9 9-13 14l4 5 16 20c7 8 1 17-1 25-3 7-3 14-11 18l-30 11c0 6 1 12 3 18l29 0c6 0 11 4 13 9 4 6 8 13 13 18 3 4 4 10 2 15l-9 28c3 2 6 4 9 5 2 2 5 3 7 4l16-22c2-2 4-3 6-4 6-3 15-1 22-1 0 0 1 0 1 0 2 1 4 1 6 1 2 0 5 0 7 0 5 1 9 3 13 8l15 23c2-1 5-2 8-3 2-2 5-3 7-4l-6-27c-3-10 8-19 14-26 4-5 8-12 14-14 2-1 4-2 7-2l27 3c2-5 3-11 4-17z m-60 52c-2 1-3 1-4 2-12 4-25 4-36 1-19-5-35-18-43-37-14-32 1-69 33-83 12-5 25-6 37-3 12 2 23 8 32 17 5 5 10 12 13 20 14 32 0 69-32 83z m5-71c-3-8-9-14-16-18-9-4-19-4-28 0-16 7-24 27-17 44 6 13 18 20 31 20 4 0 9 0 13-2 17-8 25-27 17-44z"/>
<glyph glyph-name="user-schedule" unicode="&#95;" d="M372 280c-17 0-32-3-47-8-17 10-35 18-54 24 29 21 47 55 47 94 0 65-53 118-118 118-65 0-118-53-118-118 0-41 20-76 52-98-76-25-131-96-131-180l0-36c0-17 13-30 30-30l235 0c26-28 63-46 104-46 77 0 140 63 140 140 0 77-63 140-140 140z m-260 110c0 49 39 88 88 88 49 0 88-39 88-88 0-49-39-88-88-88-49 0-88 39-88 88z m-69-314c-5 0-10 4-10 10l0 26c0 67 42 125 101 149 38 13 87 14 129 6 10-3 20-7 30-12-37-25-61-67-61-115 0-23 6-45 16-64z m329-46c-21 0-40 6-57 16-13 8-24 18-32 30-13 18-21 40-21 64 0 42 24 79 59 98 10 5 21 9 33 11 6 1 12 1 18 1 61 0 110-49 110-110 0-61-49-110-110-110z m58 121l-38 0 0 56c0 8-7 15-15 15-8 0-15-7-15-15l0-71c0-8 7-15 15-15l53 0c8 0 15 7 15 15 0 8-7 15-15 15z"/>
<glyph glyph-name="perspective" unicode="&#96;" d="M256 0c-9 0-15 7-15 15l0 40-2 0c-48 4-92 24-126 58-34 34-55 78-59 126l0 2-39 0c-8 0-15 6-15 15 0 9 7 15 15 15l39 0 0 2c4 48 25 92 59 126 34 34 78 54 126 58l1 0 0 40c1 8 7 15 16 15 9 0 15-7 15-15l0-40 2 0c47-4 92-25 125-59 33-33 54-77 58-125l0-2 41 0c8 0 15-6 15-15 0-9-7-16-15-16l-41 0 0-1c-4-48-25-92-58-126-33-33-77-54-125-58l-2 0 0-40c0-4-1-8-4-11-3-2-7-4-11-4z m-1 427c-80 0-150-57-167-135-6-26-5-57 2-82 22-74 89-125 165-125 94 0 171 77 171 171 0 94-77 171-171 171z m-58-119c0 32 26 58 58 58 32 0 58-26 58-58 0-14-5-28-14-38 34-16 57-51 57-91l0-10c0-13-10-23-23-23l-155 0c-13 0-23 10-23 23l0 10c0 40 23 74 56 91-9 10-14 23-14 38z m58-28c15 0 28 13 28 28 0 15-13 28-28 28-15 0-28-13-28-28 0-15 13-28 28-28z m-2-30c-38 0-68-30-68-68 0-3 2-5 5-5l131 0c3 0 5 2 5 5 0 38-30 68-68 68z"/>
<glyph glyph-name="user-profile" unicode="&#123;" d="M437 437c-48 48-113 75-181 75-68 0-133-27-181-75-48-48-75-113-75-181 0-68 27-133 75-181 48-48 113-75 181-75 68 0 133 27 181 75 48 48 75 113 75 181 0 68-27 133-75 181z m-25-344c-42-41-97-63-156-63-58 0-114 22-156 63l-1 0 0 1c23 68 86 113 157 113 71 0 134-45 157-113l0-1z m-231 219c0 41 34 75 75 75 41 0 75-34 75-75 0-41-34-75-75-75-41 0-75 34-75 75z m255-192l-1-1 0 1c-22 50-64 89-116 106l-1 1 1 1c26 20 42 51 42 84 0 58-47 105-105 105-58 0-105-47-105-105 0-33 16-64 42-84l1-1-2-1c-51-17-93-56-115-106l0-1-1 1c-30 39-46 86-46 136 0 125 101 226 226 226 125 0 226-101 226-226 0-50-16-97-46-136z"/>
<glyph glyph-name="pep-talk" unicode="&#124;" d="M407 408l-202 0c-9 0-15-7-15-15 0-8 6-15 15-15l202 0c8 0 15 7 15 15 0 8-7 15-15 15z m-101-68l-101 0c-9 0-15-6-15-15 0-8 6-14 15-14l101 0c8 0 15 6 15 14 0 9-7 15-15 15z m187 139c-9 8-21 13-33 13l-309 0c-12 0-24-5-32-13-9-9-14-20-14-32l0-166c-28-11-48-39-48-71 0-22 9-42 24-56-47-19-81-66-81-120l0-4c0-17 13-30 30-30l206 0c17 0 30 13 30 30l0 4c0 54-33 101-81 120 15 14 24 34 24 56l21 0 63-95c3-4 8-7 13-7 5 0 9 3 12 7l63 95 79 0c13 0 24 4 33 13 8 8 13 20 13 32l0 192c0 12-5 23-13 32z m-360-223c25 0 46-21 46-46 0-25-21-46-46-46-25 0-46 21-46 46 0 25 21 46 46 46z m103-222c0-2-2-4-4-4l-198 0c-2 0-4 2-4 4 0 55 45 100 100 100l6 0c55 0 100-45 100-100z m240 221c0-4-1-8-4-11-3-3-7-5-12-5l-87 0c-2 0-5 0-7-2-2-1-4-2-5-4l-55-83-56 83c-1 2-3 3-5 4-2 2-4 2-7 2l-35 0c-11 27-37 46-68 47l0 160c0 5 2 9 5 12 3 3 7 4 11 4l309 0c5 0 9-1 12-4 3-3 4-7 4-12z"/>
<glyph glyph-name="employee-cycle" unicode="&#125;" d="M256 10l0 0c-14 0-27 5-37 15-10 10-15 23-15 37 0 3 0 7 1 10l0 2-85 49-1-1c-5-5-11-8-18-11-5-2-11-3-17-3-2 0-4 1-6 1-8 1-16 4-22 8-7 4-13 10-17 17-4 7-6 15-7 23 0 8 1 16 4 24 3 7 8 14 14 19 5 4 11 8 18 10l1 0 0 97-1 0c-6 2-12 6-18 10-6 6-10 12-13 20-3 7-4 15-4 23 1 8 3 16 7 22 4 7 10 13 17 17 6 5 14 8 22 9 2 0 4 0 6 0 6 0 12-1 17-3 7-2 13-6 18-10l1-1 84 48 0 2c-1 3-1 7-1 10l0 1c1 13 6 26 16 35 10 10 23 15 36 15 14 0 27-5 37-15 9-9 15-22 16-35l0-1c0-3-1-7-2-11l0-1 85-49 1 1c5 5 11 8 18 11 6 2 12 3 17 3 2 0 4 0 6 0 8-1 16-4 23-9 7-4 12-10 16-17 4-7 7-15 7-23 1-8-1-16-4-23-3-8-8-15-14-20-5-4-11-7-18-10l-1 0 0-95 1-1c6-2 13-5 18-10 6-5 11-12 14-19 3-7 4-16 4-23-1-8-3-16-7-23-4-7-10-13-16-18-7-4-14-7-22-8-2 0-5 0-7 0-6 0-12 1-17 2-6 3-13 6-18 11l-1 0-85-49 0-1c2-7 2-14 0-20-1-8-4-16-9-22-5-6-12-11-19-15-7-3-15-5-22-5z m-3 75c-4-1-7-2-10-4-3-2-6-6-8-10-2-4-2-9-1-14 1-4 3-8 6-11 3-4 7-6 12-7 1 0 3 0 4 0 3 0 6 1 9 2 4 2 8 4 10 8 3 4 4 8 4 13 0 6-2 12-7 16-4 5-10 7-16 7l-3 0z m-118 283l0-1c1-4 2-7 2-11 0-12-4-23-12-33-6-8-16-14-26-17l-1 0 0-95 2-1c5-1 10-4 15-8 6-4 11-9 15-15 3-7 6-13 6-21 1-6 1-12-1-17l0-2 85-48 1 1c4 4 9 7 14 10 5 2 10 3 15 4l2 0 0 0 4 0c7 0 14-1 21-4 6-3 11-6 15-10l1-1 85 49-1 1c-1 6-1 12-1 18 1 7 3 13 7 20 4 6 9 11 14 15 5 4 10 6 16 8l1 0 0 96-1 0c-10 3-19 9-25 18-8 9-12 20-12 32 0 4 1 7 2 11l0 1-85 49-2-1c-4-4-9-7-14-9-7-3-14-5-21-5-7 0-14 2-20 5-6 2-11 5-15 9l-1 1z m-51-184c-4 0-9-2-12-4-4-3-7-6-9-11-2-4-2-8-1-13 1-5 3-9 6-12 4-3 8-5 12-6 1 0 3 0 4 0 3 0 6 0 9 1 5 2 8 5 11 9 2 4 3 8 3 13 0 6-2 12-6 16-5 4-11 7-17 7z m344 0c-5 0-9-2-13-4-3-3-6-6-8-11-2-4-2-9-1-13 1-4 3-8 6-12 4-3 8-5 12-6 1 0 3 0 4 0 3 0 6 0 9 1 5 2 8 5 11 9 2 4 4 8 4 13 0 3-1 6-2 9-1 3-3 5-5 7-3 2-5 4-8 5-3 1-5 2-8 2l-1 0z m-344 195c-4 0-9-2-12-4-4-3-7-6-9-10-2-5-2-9-1-14 1-5 3-9 6-12 4-3 8-5 12-6 1 0 3 0 4 0 3 0 6 0 9 1 5 2 8 5 11 9 2 4 3 8 3 13 0 3 0 6-1 9-1 2-3 5-5 7-3 2-5 4-8 5-3 1-6 2-9 2z m344 0c-5 0-9-2-13-4-3-3-6-6-8-11-2-4-2-9-1-13 1-4 3-8 6-12 4-3 8-5 12-6 1 0 3 0 4 0 3 0 6 0 9 2 5 1 8 4 11 8 2 4 3 8 3 13 0 3 0 6-1 9-2 3-3 5-5 7-3 3-5 4-8 5-3 1-6 2-8 2l-1 0z m-172 99c-4 0-8-2-11-4-4-2-7-5-9-8-2-4-3-8-3-12 0-4 1-8 3-11 2-4 5-6 9-9 3-2 7-3 11-3l1 0c3 0 7 1 11 3 3 2 6 4 8 7l0 1 0 1 1 1 0 0c2 3 3 7 3 10 0 7-3 12-7 17-5 4-11 6-17 7z m-59-165c0 32 26 58 58 58 32 0 58-26 58-58 0-14-5-28-14-38 34-16 57-51 57-91l0-10c0-13-10-23-23-23l-155 0c-13 0-23 10-23 23l0 10c0 40 23 74 56 91-9 10-14 23-14 38z m58-28c15 0 28 13 28 28 0 15-13 28-28 28-15 0-28-13-28-28 0-15 13-28 28-28z m-2-30c-38 0-68-30-68-68 0-3 2-5 5-5l131 0c3 0 5 2 5 5 0 38-30 68-68 68z"/>
<glyph glyph-name="employee-search" unicode="&#126;" d="M317 512c-108 0-195-87-195-195 0-48 18-93 47-127l-34-34c-17 8-37 5-51-8l-71-71c-17-18-17-46 0-64 18-17 46-17 64 0l71 71c13 14 16 34 8 51l34 34c34-29 79-47 127-47 108 0 195 87 195 195 0 108-87 195-195 195z m-191-407l-70-71c-6-5-16-5-22 0-5 6-5 16 0 22l71 70c6 6 15 6 21 0 0 0 0 0 0 0 0 0 0 0 0 0 6-6 6-15 0-21z m191 47c-91 0-165 74-165 165 0 91 74 165 165 165 91 0 165-74 165-165 0-91-74-165-165-165z m-60 231c0 32 26 58 58 58 32 0 58-26 58-58 0-14-5-28-14-38 34-16 57-51 57-91l0-10c0-13-10-23-23-23l-155 0c-13 0-23 10-23 23l0 10c0 40 23 74 56 91-9 10-14 23-14 38z m58-28c15 0 28 13 28 28 0 15-13 28-28 28-15 0-28-13-28-28 0-15 13-28 28-28z m-2-30c-38 0-68-30-68-68 0-3 2-5 5-5l131 0c3 0 5 2 5 5 0 38-30 68-68 68z"/>
<glyph glyph-name="star-employee" unicode="&#92;" d="M140 58l26 31c8 8 3 21-7 24l-40 9-21 35c-6 9-20 10-26 0l-21-35-39-9c-11-3-16-16-8-24l26-31-3-41c-1-11 10-19 20-15l38 16 37-16c11-4 22 4 21 15z m-27 14c-2-3-4-7-3-11l1-22-20 9c-4 1-8 1-12 0l-20-9 1 23c1 4-1 7-3 11l-15 17 22 5c4 1 7 3 9 6l12 20 12-20c2-3 5-5 9-6l22-5z m198-14l26 31c7 8 3 21-8 24l-39 9-22 35c-5 9-19 10-25 0l-21-35-40-9c-11-3-15-16-8-24l27-31-3-41c-1-11 10-19 20-15l38 16 37-16c11-4 22 4 21 15z m-27 14c-3-3-4-7-4-11l2-22-21 9c-3 1-7 1-11 0l-21-9 2 22c0 4-1 8-4 11l-14 17 22 6c4 1 7 3 9 6l12 19 11-19c2-3 6-5 10-6l21-6z m197-14l27 31c7 8 3 21-8 24l-40 9-21 35c-5 9-19 10-25 0l-22-35-39-9c-11-3-15-16-8-24l26-31-3-41c-1-11 10-19 21-15l37 16 38-16c10-4 21 4 21 15z m-26 14c-3-3-4-7-4-11l2-22-21 9c-4 1-8 1-11 0l-21-9 2 22c0 4-1 8-4 11l-14 17 21 6c4 1 7 3 10 6l11 19 12-19c2-3 5-5 9-6l22-6z m-199 439c-91 0-165-73-165-164 0-41 15-79 40-108 7-8 15-16 24-23 28-21 63-34 101-34 37 0 72 13 100 34 9 7 17 15 24 23 25 29 40 67 40 108 0 91-74 164-164 164z m0-299c-34 0-65 13-89 33 17 29 49 49 86 49l5 0c37 0 69-20 86-49-24-20-55-33-88-33z m-46 158c0 25 20 46 46 46 25 0 45-21 45-46 0-26-20-46-45-46-26 0-46 20-46 46z m155-102c-14 21-34 37-58 46 15 14 24 34 24 56 0 42-34 76-75 76-42 0-76-34-76-76 0-22 9-42 24-56-24-9-44-25-58-46-16 22-25 49-25 79 0 74 60 135 135 135 74 0 134-61 134-135 0-30-9-57-25-79z"/>
<glyph glyph-name="user-skills" unicode="&#57344;" d="M140 333l27 31c7 8 3 22-8 24l-40 10-21 35c-6 9-20 9-26 0l-21-35-39-10c-11-2-16-16-8-24l26-31-3-41c-1-11 10-19 21-15l37 16 38-16c10-4 21 4 21 15z m-27 15c-2-3-3-7-3-11l2-22-21 8c-4 2-8 2-12 0l-20-8 2 22c0 4-1 8-4 11l-15 17 22 5c4 1 7 3 10 7l11 19 12-19c2-4 5-6 9-7l22-5z m369-15l26 31c8 8 3 22-8 24l-39 10-21 35c-6 9-20 9-26 0l-21-35-40-10c-11-2-15-16-8-24l27-31-4-41c0-11 11-19 21-15l38 16 37-16c11-4 22 4 21 15z m-27 15c-3-3-4-7-4-11l2-22-20 8c-4 2-8 2-12 0l-21-8 2 22c0 4-1 8-3 11l-15 17 22 5c4 1 7 3 9 7l12 19 12-19c2-4 5-6 9-7l22-5z m-144 49l27 31c7 9 3 22-8 25l-40 9-21 35c-6 9-20 10-26 0l-21-35-40-9c-11-3-15-16-8-25l27-31-3-40c-1-11 10-20 20-15l38 15 38-15c10-5 21 4 20 15z m-27 15c-2-3-4-7-3-11l1-22-20 8c-4 2-8 2-12 0l-20-8 1 22c1 4-1 8-3 11l-15 17 22 5c4 1 7 4 9 7l12 19 12-19c2-3 5-6 9-7l22-5z m-104-195c0 42 34 76 76 76 42 0 76-34 76-76 0-22-9-42-24-56 47-19 81-66 81-120l0-4c0-17-13-30-30-30l-206 0c-17 0-30 13-30 30l0 4c0 54 34 101 81 120-15 14-24 34-24 56z m76-46c25 0 46 21 46 46 0 25-21 46-46 46-25 0-46-21-46-46 0-25 21-46 46-46z m3-30l-6 0c-55 0-100-45-100-100 0-2 2-4 4-4l198 0c2 0 4 2 4 4 0 55-45 100-100 100z"/>
<glyph glyph-name="people" unicode="&#57345;" d="M462 403c11 12 18 28 18 45 0 35-28 63-63 63-35 0-64-28-64-63 0-17 7-33 19-45-9-4-24-14-36-32-11 18-27 28-35 32 11 12 18 28 18 45 0 35-28 63-63 63-35 0-63-28-63-63 0-17 7-33 18-45-8-4-24-14-35-32-12 18-27 28-36 32 12 12 19 28 19 45 0 35-29 63-64 63-35 0-63-28-63-63 0-17 7-33 18-45-22-12-50-31-50-75l0-48c0-8 7-15 15-15l482 0c8 0 15 7 15 15l0 48c0 44-28 63-50 75z m-79 45c0 18 15 33 34 33 18 0 33-15 33-33 0-19-15-33-33-33-19 0-34 14-34 33z m-160 0c0 18 15 33 33 33 18 0 33-15 33-33 0-19-15-33-33-33-18 0-33 14-33 33z m-161 0c0 18 15 33 33 33 19 0 34-15 34-33 0-19-15-33-34-33-18 0-33 14-33 33z m-32-120c0 36 29 57 65 57 37 0 66-21 66-57l0-33-131 0z m161 0c0 36 28 57 65 57 37 0 65-21 65-57l0-33-130 0z m291-33l-131 0 0 33c0 36 29 57 66 57 36 0 65-21 65-57z m-20-156c11 12 18 28 18 45 0 35-28 63-63 63-35 0-64-28-64-63 0-17 7-33 19-45-9-4-24-14-36-32-11 18-27 28-35 32 11 12 18 28 18 45 0 35-28 63-63 63-35 0-63-28-63-63 0-17 7-33 18-45-8-4-24-14-35-32-12 18-27 28-36 32 12 12 19 28 19 45 0 35-29 63-64 63-35 0-63-28-63-63 0-17 7-33 18-45-22-12-50-31-50-75l0-48c0-8 7-15 15-15l482 0c8 0 15 7 15 15l0 48c0 44-28 63-50 75z m-79 45c0 18 15 33 34 33 18 0 33-15 33-33 0-19-15-33-33-33-19 0-34 14-34 33z m-160 0c0 18 15 33 33 33 18 0 33-15 33-33 0-19-15-33-33-33-18 0-33 14-33 33z m-161 0c0 18 15 33 33 33 19 0 34-15 34-33 0-19-15-33-34-33-18 0-33 14-33 33z m-32-120c0 36 29 57 65 57 37 0 66-21 66-57l0-33-131 0z m161 0c0 36 28 57 65 57 37 0 65-21 65-57l0-33-130 0z m291-33l-131 0 0 33c0 36 29 57 66 57 36 0 65-21 65-57z"/>
<glyph glyph-name="team" unicode="&#57346;" d="M410 334c19 17 31 42 31 70 0 52-42 95-95 95-42 0-78-28-90-66-13 38-49 66-91 66-52 0-95-43-95-95 0-28 12-53 31-70-58-17-101-71-101-135l0-17c0-22 18-40 40-40l67 0c-14-26-16-53-16-81 0-22 18-40 40-40l251 0c22 0 40 18 40 40 0 28-2 55-15 81l65 0c22 0 40 18 40 40l0 17c0 64-43 118-102 135z m-64 135c36 0 65-29 65-65 0-36-29-65-65-65-5 0-10 1-14 2-11 14-26 25-43 31-5 9-8 20-8 32 0 36 29 65 65 65z m-90-121c5 0 10-1 15-2 28-6 50-32 50-63 0-36-29-65-65-65-36 0-65 29-65 65 0 36 29 65 65 65z m-156 56c0 36 29 65 65 65 36 0 65-29 65-65 0-12-3-23-9-33-16-6-30-17-40-30-40-10-81 21-81 63z m-50-232c-11 0-20 9-20 20 0 62 45 117 110 117l25 0c-3-8-4-17-4-26 0-23 8-44 22-61 3-3 6-6 9-9-25-8-48-22-65-41z m322-121l-231 0c-11 0-20 9-20 20 0 26 5 50 21 71 20 28 52 46 89 46l51 0c65 0 110-55 110-117 0-11-9-20-20-20z m90 121l-76 0c-18 19-40 34-66 41 3 3 6 6 9 9 14 17 22 38 22 61 0 9-1 18-4 26l25 0c65 0 110-55 110-117 0-11-9-20-20-20z"/>
<glyph glyph-name="human-resources" unicode="&#57347;" d="M240 372c-4 0-7 2-10 4l-31 31c-6 6-6 16 0 22 3 2 7 4 11 4 4 0 7-2 10-4l21-21 49 50c3 2 6 4 10 4 4 0 8-2 11-4 6-6 6-16 0-22l-60-60c-3-3-7-4-11-4z m-197-108c0 32 26 58 58 58 32 0 58-26 58-58 0-14-5-28-14-38 19-9 35-24 45-43 5 3 10 5 15 7-15 14-24 34-24 56 0 42 34 76 76 76 42 0 76-34 76-76 0-22-9-42-24-56 4-1 9-3 13-6 10 18 25 33 43 42-9 10-14 23-14 38 0 32 26 58 58 58 32 0 58-26 58-58 0-14-5-28-14-38 34-16 57-51 57-91l0-10c0-13-10-23-23-23l-101 0c3-10 4-21 4-32l0-4c0-17-13-30-30-30l-206 0c-17 0-30 13-30 30l0 4c0 11 1 22 4 32l-104 0c-13 0-23 10-23 23l0 10c0 40 23 74 56 91-9 10-14 23-14 38z m58-28c15 0 28 13 28 28 0 15-13 28-28 28-15 0-28-13-28-28 0-15 13-28 28-28z m3-30l-5 0c-38 0-68-30-68-68 0-3 2-5 5-5l104 0c7 12 15 23 25 32 1 0 1 1 1 1-10 23-34 40-62 40z m305 30c15 0 28 13 28 28 0 15-13 28-28 28-15 0-28-13-28-28 0-15 13-28 28-28z m3-30l-5 0c-27 0-50-16-61-38 1-1 2-2 3-3 10-9 18-20 25-32l101 0c3 0 5 2 5 5 0 38-30 68-68 68z m-155-6c25 0 46 21 46 46 0 25-21 46-46 46-25 0-46-21-46-46 0-25 21-46 46-46z m3-30l-6 0c-20 0-38-6-54-16-19-12-33-30-41-52-3-10-5-21-5-32 0-2 2-4 4-4l198 0c2 0 4 2 4 4 0 11-2 22-5 32-5 14-12 26-22 36-6 7-14 13-22 18-15 9-32 14-51 14z"/>
<glyph glyph-name="employee-master" unicode="&#57348;" d="M502 310l-31 12c-4 14-10 27-16 39l13 31c3 6 2 12-3 17l-56 56c-5 5-11 6-17 3l-31-13c-12 6-25 12-39 16l-12 31c-2 6-8 10-14 10l-80 0c-6 0-12-4-14-10l-12-31c-14-4-27-10-39-16l-31 13c-6 3-12 2-17-3l-56-56c-5-5-6-11-3-17l13-31c-6-12-12-25-16-39l-31-12c-6-2-10-8-10-14l0-80c0-6 4-12 10-14l31-12c4-14 10-27 16-39l-13-31c-3-6-2-12 3-17l56-56c5-5 11-6 17-3l31 13c12-6 25-12 39-16l12-31c2-6 8-10 14-10l80 0c6 0 12 4 14 10l12 31c14 4 27 10 39 16l31-13c6-3 12-2 17 3l56 56c5 5 6 11 3 17l-13 31c6 12 12 25 16 39l31 12c6 2 10 8 10 14l0 80c0 6-4 12-10 14z m-20-84l-29-11c-4-2-8-5-9-10-4-16-11-32-19-46-2-4-3-9-1-13l13-29-42-42-29 13c-4 2-9 1-13-1-14-8-30-15-46-19-5-1-8-5-10-9l-11-29-60 0-11 29c-2 4-5 8-10 9-16 4-32 11-46 19-4 2-9 3-13 1l-29-13-42 42 13 29c2 4 1 9-1 13-8 14-15 30-19 46-1 5-5 8-9 10l-29 11 0 60 29 11c4 2 8 5 9 10 4 16 11 32 19 46 2 4 3 9 1 13l-13 29 42 42 29-13c4-2 9-1 13 1 14 8 30 15 46 19 5 1 8 5 10 9l11 29 60 0 11-29c2-4 5-8 10-9 16-4 32-11 46-19 4-2 9-3 13-1l29 13 42-42-13-29c-2-4-1-9 1-13 8-14 15-30 19-46 1-5 5-8 9-10l29-11z m-226 195c-91 0-165-74-165-165 0-91 74-165 165-165 91 0 165 74 165 165 0 91-74 165-165 165z m73-279c-21-13-46-21-73-21-27 0-52 8-72 21l0 11c0 40 32 73 72 73 40 0 73-33 73-73z m-108 149c0 19 16 35 35 35 19 0 35-16 35-35 0-19-16-35-35-35-19 0-35 16-35 35z m137-124c-5 34-26 63-56 78 12 12 19 28 19 46 0 36-29 65-65 65-36 0-65-29-65-65 0-18 7-34 19-46-30-15-51-44-56-78-20 24-33 55-33 89 0 74 61 135 135 135 74 0 135-61 135-135 0-34-13-65-33-89z"/>
<glyph glyph-name="add-users" unicode="&#57349;" d="M415 245c-8 0-15 7-15 15l0 65-65 0c-8 0-15 7-15 15 0 8 7 15 15 15l65 0 0 65c0 8 7 15 15 15 8 0 15-7 15-15l0-65 65 0c8 0 15-7 15-15 0-8-7-15-15-15l-65 0 0-65c0-8-7-15-15-15z m-349 101c0 50 40 90 90 90 50 0 90-40 90-90 0-28-13-54-34-70 59-23 100-80 100-146l0-30c0-13-11-24-24-24l-264 0c-13 0-24 11-24 24l0 30c0 66 41 123 100 146-21 16-34 42-34 70z m90-60c33 0 60 27 60 60 0 33-27 60-60 60-33 0-60-27-60-60 0-33 27-60 60-60z m126-171l0 14c0 70-57 127-127 127-70 0-127-57-127-127l0-14c0-5 4-9 9-9l236 0c5 0 9 4 9 9z"/>
<glyph glyph-name="interview" unicode="&#57350;" d="M456 139c16 14 26 34 26 57 0 41-34 75-75 75-5 0-10-1-15-2l0 32 45 0c25 0 45 20 45 45l0 120c0 25-20 46-45 46l-211 0c-20 0-36-14-42-31l-109 0c-25 0-45-20-45-45l0-90c0-25 20-45 45-45l15 0 0-32c-34-6-60-37-60-73 0-23 10-43 26-57-33-18-56-53-56-94l0-30c0-8 7-15 15-15l180 0c8 0 15 7 15 15l0 30c0 41-23 76-56 94 16 14 26 34 26 57 0 31-19 57-45 69l36 36 140 0 48-48c-17-14-27-34-27-57 0-23 10-43 26-57-33-18-56-53-56-94l0-30c0-8 7-15 15-15l180 0c8 0 15 7 15 15l0 30c0 41-23 76-56 94z m-276-94l0-15-150 0 0 15c0 42 34 76 75 76 41 0 75-34 75-76z m-43 183c8-8 13-20 13-32 0-25-20-45-45-45-25 0-45 20-45 45 0 25 20 45 45 45 0 0 0 0 0 0 12 0 24-5 32-13z m28 103c-4 0-8-2-11-4l-34-35 0 24c0 8-7 15-15 15l-30 0c-8 0-15 7-15 15l0 90c0 8 7 15 15 15l106 0 0-30-76 0c-8 0-15-7-15-15 0-8 7-15 15-15l76 0 0-45c0-5 1-10 3-15z m242-90c25 0 45-20 45-45 0-25-20-45-45-45-25 0-45 20-45 45 0 25 20 45 45 45z m-79 86c-3 2-7 4-11 4l-91 0c-8 0-15 7-15 15l0 120c0 9 7 16 15 16l211 0c8 0 15-7 15-16l0-120c0-8-7-15-15-15l-60 0c-8 0-15-7-15-15l0-24z m154-297l-150 0 0 15c0 42 34 76 75 76 41 0 75-34 75-76z m-75 421l-151 0c-8 0-15-7-15-15 0-8 7-15 15-15l151 0c8 0 15 7 15 15 0 8-7 15-15 15z m0-60l-151 0c-8 0-15-7-15-15 0-8 7-15 15-15l151 0c8 0 15 7 15 15 0 8-7 15-15 15z"/>
<glyph glyph-name="user-group" unicode="&#57351;" d="M43 341c0 32 26 58 58 58 32 0 58-26 58-58 0-14-5-28-14-38 19-9 35-24 45-43 5 3 10 5 15 7-15 14-24 34-24 56 0 42 34 76 76 76 42 0 76-34 76-76 0-22-9-42-24-56 4-1 9-3 13-6 10 18 25 33 43 42-9 10-14 23-14 38 0 32 26 58 58 58 32 0 58-26 58-58 0-14-5-28-14-38 34-16 57-51 57-91l0-10c0-13-10-23-23-23l-101 0c3-10 4-21 4-32l0-4c0-17-13-30-30-30l-206 0c-17 0-30 13-30 30l0 4c0 11 1 22 4 32l-104 0c-13 0-23 10-23 23l0 10c0 40 23 74 56 91-9 10-14 23-14 38z m58-28c15 0 28 13 28 28 0 15-13 28-28 28-15 0-28-13-28-28 0-15 13-28 28-28z m3-30l-5 0c-38 0-68-30-68-68 0-3 2-5 5-5l104 0c7 12 15 23 25 32 1 0 1 1 1 1-10 23-34 40-62 40z m305 30c15 0 28 13 28 28 0 15-13 28-28 28-15 0-28-13-28-28 0-15 13-28 28-28z m3-30l-5 0c-27 0-50-16-61-38 1-1 2-2 3-3 10-9 18-20 25-32l101 0c3 0 5 2 5 5 0 38-30 68-68 68z m-155-6c25 0 46 21 46 46 0 25-21 46-46 46-25 0-46-21-46-46 0-25 21-46 46-46z m3-30l-6 0c-20 0-38-6-54-16-19-12-33-30-41-52-3-10-5-21-5-32 0-2 2-4 4-4l198 0c2 0 4 2 4 4 0 11-2 22-5 32-5 14-12 26-22 36-6 7-14 13-22 18-15 9-32 14-51 14z"/>
<glyph glyph-name="meeting" unicode="&#57352;" d="M451 284c13 13 21 31 21 51 0 41-34 75-75 75-41 0-75-34-75-75 0-20 8-38 21-51-36-14-61-49-61-89l0-15-78 0c-9 10-21 18-35 24 13 13 21 31 21 51 0 41-34 75-75 75-41 0-75-34-75-75 0-20 8-38 21-51-36-14-61-49-61-89l0-100c0-8 7-15 15-15l482 0c8 0 15 7 15 15l0 180c0 40-25 75-61 89z m-336 16c25 0 45-20 45-45 0-25-20-45-45-45-25 0-45 20-45 45 0 25 20 45 45 45z m85-270l-170 0 0 85c0 36 29 65 65 65l40 0c36 0 65-29 65-65z m197 350c25 0 45-20 45-45 0-25-20-45-45-45-25 0-45 20-45 45 0 25 20 45 45 45z m85-350l-252 0 0 60 252 0z m0 90l-252 0c-1 11-3 21-7 30l259 0z m0 60l-170 0 0 15c0 36 29 65 65 65l5 0 0-35c0-8 7-15 15-15 8 0 15 7 15 15l0 35 5 0c36 0 65-29 65-65z m-467 202l174 0 55-56c10-9 26-2 26 11l0 160c0 8-7 15-15 15l-240 0c-8 0-15-7-15-15l0-100c0-8 7-15 15-15z m15 100l210 0 0-109-34 35c-3 2-7 4-11 4l-165 0z"/>
</font>
</defs>
</svg>
