<svg width="7" height="6" viewBox="0 0 7 6" fill="none" xmlns="http://www.w3.org/2000/svg">
<path d="M2.53613 5.39998C2.42516 5.39998 2.31974 5.35442 2.24484 5.27471L0.322263 3.30176C0.244584 3.22204 0.200195 3.11385 0.200195 2.99998C0.200195 2.8861 0.244584 2.77791 0.322263 2.6982C0.402717 2.61563 0.505366 2.57293 0.616337 2.57293C0.727308 2.57293 0.829955 2.61563 0.910409 2.6982L2.53891 4.36937L6.08998 0.725243C6.17044 0.642681 6.27308 0.599976 6.38405 0.599976C6.49503 0.599976 6.59767 0.642681 6.67813 0.725243C6.75858 0.807805 6.8002 0.913143 6.8002 1.02702C6.8002 1.1409 6.75858 1.24624 6.67813 1.3288L2.83298 5.27756C2.7553 5.35727 2.64988 5.39998 2.53613 5.39998Z" fill="#1BA39C"/>
</svg>
