<svg width="20" height="20" viewBox="0 0 20 20" fill="none" xmlns="http://www.w3.org/2000/svg">
<path d="M18.6562 19.9337C18.4961 19.9337 18.3438 19.8674 18.2305 19.7505L12.375 13.6803L12.3242 13.7115C11.0977 14.5341 9.66797 14.9707 8.18359 14.9707C4.08203 14.9707 0.742188 11.6374 0.742188 7.54384C0.742188 3.45028 4.08594 0.116943 8.19141 0.116943C12.293 0.116943 15.6328 3.45028 15.6328 7.54774C15.6328 9.57893 14.8203 11.4776 13.3516 12.8928L13.3008 12.9396L19.082 18.9396C19.3047 19.1735 19.2969 19.5438 19.0664 19.77C18.9531 19.8752 18.8086 19.9337 18.6562 19.9337ZM8.19141 1.29043C4.73828 1.29043 1.92578 4.09745 1.92578 7.54384C1.92578 10.9902 4.73828 13.7973 8.19141 13.7973C11.6445 13.7973 14.457 10.9902 14.457 7.54384C14.457 4.09745 11.6445 1.29043 8.19141 1.29043Z" fill="#1BA39C"/>
</svg>
