<svg width="8" height="6" viewBox="0 0 8 6" fill="none" xmlns="http://www.w3.org/2000/svg">
<path d="M2.62914 5.6086C2.55394 5.6086 2.48558 5.57877 2.43363 5.5206L0.317225 3.21179C0.265272 3.15512 0.236561 3.07905 0.236561 2.99851C0.236561 2.91648 0.263905 2.84191 0.317225 2.78523C0.369178 2.72856 0.438905 2.69723 0.512733 2.69723C0.587928 2.69723 0.656287 2.72706 0.708241 2.78523L2.62777 4.87927L6.66508 0.476425C6.71703 0.419749 6.78676 0.388428 6.86058 0.388428C6.93441 0.388428 7.00414 0.419749 7.05609 0.476425C7.10805 0.533101 7.13812 0.610658 7.13812 0.689706C7.13812 0.768754 7.10805 0.846311 7.05609 0.902987L2.82601 5.51911C2.77406 5.57728 2.70433 5.6086 2.62914 5.6086Z" fill="#F5F5F5"/>
</svg>
