<svg width="16" height="15" viewBox="0 0 16 15" fill="none" xmlns="http://www.w3.org/2000/svg">
<path d="M11.2861 6.21973C12.124 5.58984 12.666 4.58496 12.666 3.45703C12.666 1.54688 11.1191 0 9.20898 0C8.04004 0 7.00586 0.580078 6.38184 1.4707C6.32031 1.46777 6.25586 1.46484 6.19141 1.46484C4.28125 1.46484 2.73438 3.01172 2.73438 4.92188C2.73438 6.1084 3.33203 7.15723 4.24316 7.77832C2.02246 8.51074 0.419922 10.5996 0.419922 13.0664V14.1211C0.419922 14.6074 0.8125 15 1.29883 15H11.5234C12.0098 15 12.4023 14.6074 12.4023 14.1211V13.5352H14.541C15.0273 13.5352 15.4199 13.1426 15.4199 12.6562V11.6016C15.4199 9.02344 13.665 6.85254 11.2861 6.21973ZM9.20898 0.878906C10.6328 0.878906 11.7871 2.0332 11.7871 3.45703C11.7871 4.79297 10.7705 5.8916 9.46973 6.02344C9.58691 5.67773 9.64844 5.30859 9.64844 4.92188C9.64844 3.42188 8.69043 2.14453 7.35449 1.66699C7.82324 1.18066 8.48242 0.878906 9.20898 0.878906ZM3.61328 4.92188C3.61328 3.58594 4.62988 2.4873 5.93066 2.35547C6.01562 2.34961 6.10352 2.34375 6.19141 2.34375C6.41699 2.34375 6.63672 2.37305 6.84473 2.42871C7.95215 2.71875 8.76953 3.72656 8.76953 4.92188C8.76953 5.28809 8.69336 5.63672 8.55566 5.9502C8.54102 5.98535 8.52344 6.02051 8.50586 6.05566C8.38574 6.29883 8.23047 6.51855 8.0459 6.71191C7.86426 6.89941 7.65332 7.06055 7.4248 7.18652C7.27539 7.26855 7.11719 7.33594 6.95312 7.38574C6.71289 7.45898 6.45801 7.5 6.19434 7.5C5.91309 7.5 5.64062 7.45605 5.38867 7.37109C4.35742 7.03418 3.61328 6.06445 3.61328 4.92188ZM11.5234 13.8281C11.5234 13.9893 11.3916 14.1211 11.2305 14.1211H1.5918C1.43066 14.1211 1.29883 13.9893 1.29883 13.8281V13.0664C1.29883 11.0918 2.51758 9.4043 4.24316 8.71289C4.66211 8.5459 5.11328 8.43457 5.58203 8.39648C5.71387 8.38477 5.84863 8.37891 5.9834 8.37891H6.18848H6.83301C9.28223 8.37891 11.2949 10.2598 11.5029 12.6562C11.5146 12.791 11.5205 12.9287 11.5205 13.0664V13.5352V13.8281H11.5234ZM14.541 12.3633C14.541 12.5244 14.4092 12.6562 14.248 12.6562H12.3877C12.2119 10.2598 10.5215 8.28516 8.26855 7.6875C8.55566 7.4707 8.81055 7.20996 9.01855 6.91406H9.21191H9.85645C12.4463 6.91406 14.5439 9.01172 14.5439 11.6016V12.3633H14.541Z" fill="#1BA39C"/>
</svg>
