<svg width="11" height="10" viewBox="0 0 11 10" fill="none" xmlns="http://www.w3.org/2000/svg">
<path d="M3.8457 9.09961C3.72754 9.09961 3.62012 9.05273 3.53848 8.96133L0.212695 5.3332C0.131055 5.24414 0.0859375 5.12461 0.0859375 4.99805C0.0859375 4.86914 0.128906 4.75195 0.212695 4.66289C0.294336 4.57383 0.403906 4.52461 0.519922 4.52461C0.638086 4.52461 0.745508 4.57148 0.827148 4.66289L3.84355 7.95352L10.1879 1.03477C10.2695 0.945703 10.3791 0.896484 10.4951 0.896484C10.6111 0.896484 10.7207 0.945703 10.8023 1.03477C10.884 1.12383 10.9312 1.2457 10.9312 1.36992C10.9312 1.49414 10.884 1.61602 10.8023 1.70508L4.15508 8.95898C4.07344 9.05039 3.96387 9.09961 3.8457 9.09961Z" fill="white"/>
</svg>
