<svg width="15" height="15" viewBox="0 0 15 15" fill="none" xmlns="http://www.w3.org/2000/svg">
<rect x="0.35" y="0.35" width="14.3" height="14.3" rx="7.15" stroke="#777777" stroke-width="0.7"/>
<path d="M10.707 5.08594L10.4375 6.01172H5L5.26953 5.08594H10.707ZM8.26953 11.5312L5.16992 7.91016L5.16406 7.18359H6.59375C7.00781 7.18359 7.34961 7.11523 7.61914 6.97852C7.89258 6.83789 8.09766 6.64844 8.23438 6.41016C8.37109 6.17188 8.43945 5.9043 8.43945 5.60742C8.43945 5.27539 8.375 4.98438 8.24609 4.73438C8.11719 4.48047 7.91406 4.2832 7.63672 4.14258C7.36328 3.99805 7.00391 3.92578 6.55859 3.92578H5.01172L5.28711 3H6.55859C7.23828 3 7.79883 3.10352 8.24023 3.31055C8.68555 3.51367 9.01758 3.81055 9.23633 4.20117C9.45508 4.5918 9.56445 5.06445 9.56445 5.61914C9.56445 6.0957 9.47266 6.52344 9.28906 6.90234C9.10938 7.27734 8.81055 7.57227 8.39258 7.78711C7.97852 8.00195 7.41992 8.10938 6.7168 8.10938L9.59961 11.4609V11.5312H8.26953ZM10.707 3L10.4375 3.92578H6.05469L6.32422 3H10.707Z" fill="#777777"/>
</svg>
