<svg width="16" height="16" viewBox="0 0 16 16" fill="none" xmlns="http://www.w3.org/2000/svg">
<circle cx="8" cy="8" r="8" fill="#1BA39C"/>
<g clip-path="url(#clip0_3639_15946)">
<path d="M4.42728 11.9496C4.34307 11.9496 4.26354 11.9168 4.20272 11.8559C4.1419 11.7949 4.10759 11.7152 4.10759 11.6309C4.10759 11.5449 4.14034 11.4652 4.20116 11.4043L7.55866 8.00273L4.16373 4.6418C4.10291 4.58086 4.0686 4.50117 4.0686 4.4168C4.0686 4.33086 4.10135 4.25117 4.16217 4.19023C4.22299 4.1293 4.30252 4.09492 4.38673 4.09492C4.4725 4.09492 4.55203 4.12773 4.61285 4.18867L8.00623 7.55117L11.3622 4.14805C11.423 4.08711 11.5025 4.05273 11.5867 4.05273C11.6725 4.05273 11.752 4.08555 11.8129 4.14648C11.8737 4.20742 11.908 4.28867 11.908 4.37305C11.908 4.45898 11.8752 4.53867 11.8144 4.59961L8.46003 7.99961L11.8565 11.3637C11.9173 11.4246 11.9516 11.5043 11.9516 11.5887C11.9516 11.6746 11.9189 11.7543 11.8581 11.8152C11.7973 11.8762 11.7177 11.9105 11.6335 11.9105C11.5477 11.9105 11.4682 11.8777 11.4074 11.8168L8.0109 8.4543L4.65652 11.8543C4.5957 11.9152 4.51617 11.9496 4.43196 11.9496H4.42728Z" fill="white" stroke="white"/>
</g>
<defs>
<clipPath id="clip0_3639_15946">
<rect width="8" height="8" fill="white" transform="translate(4 4)"/>
</clipPath>
</defs>
</svg>
