<svg width="17" height="17" viewBox="0 0 17 17" fill="none" xmlns="http://www.w3.org/2000/svg">
<path d="M0.907691 16.8937C0.728744 16.8937 0.559738 16.8239 0.430498 16.6944C0.301258 16.5649 0.228354 16.3956 0.228354 16.2163C0.228354 16.0337 0.297944 15.8644 0.427184 15.7349L7.56188 8.50654L0.347652 1.36455C0.218412 1.23506 0.145508 1.06572 0.145508 0.886426C0.145508 0.703809 0.215098 0.534473 0.344338 0.40498C0.473578 0.275488 0.642584 0.202441 0.821531 0.202441C1.00379 0.202441 1.1728 0.272168 1.30204 0.40166L8.51295 7.54697L15.6443 0.315332C15.7736 0.18584 15.9426 0.112793 16.1215 0.112793C16.3038 0.112793 16.4728 0.18252 16.602 0.312012C16.7313 0.441504 16.8042 0.61416 16.8042 0.793457C16.8042 0.976074 16.7346 1.14541 16.6054 1.2749L9.47728 8.4999L16.6948 15.6485C16.8241 15.778 16.897 15.9474 16.897 16.1267C16.897 16.3093 16.8274 16.4786 16.6981 16.6081C16.5689 16.7376 16.3999 16.8106 16.2209 16.8106C16.0387 16.8106 15.8697 16.7409 15.7404 16.6114L8.5229 9.46611L1.39483 16.6911C1.26559 16.8206 1.09658 16.8937 0.917633 16.8937H0.907691Z" fill="#231F20"/>
</svg>
