<svg width="20" height="18" viewBox="0 0 20 18" fill="none" xmlns="http://www.w3.org/2000/svg">
<path d="M18.0001 17.4219C17.6798 17.4219 17.4219 17.1641 17.4219 16.8438V14.6016H17.418C16.7188 14.3555 16.2462 13.6875 16.2462 12.9453C16.2462 12.2031 16.7188 11.5391 17.418 11.2891H17.4219V5.97656L15.8673 6.52734V10.3555C15.8673 10.9844 15.211 11.5117 13.918 11.9336C12.7891 12.3008 11.3946 12.5039 9.99617 12.5039C8.59773 12.5039 7.2032 12.3008 6.07429 11.9336C4.78132 11.5117 4.12507 10.9844 4.12507 10.3555V6.52734L0.382884 5.19922C0.152415 5.11719 -0.00383464 4.89844 7.16124e-05 4.65234C7.16124e-05 4.40625 0.156322 4.1875 0.38679 4.10938L9.80085 0.789062C9.86335 0.765625 9.92585 0.757812 9.99226 0.757812C10.0587 0.757812 10.1212 0.769531 10.1837 0.789062L19.5977 4.10938C19.8282 4.19141 19.9844 4.41016 19.9844 4.65234C19.9844 4.89844 19.8321 5.11719 19.6016 5.19922L18.5782 5.5625V11.2852H18.5821C19.2813 11.5313 19.754 12.1992 19.754 12.9414C19.754 13.6836 19.2813 14.3477 18.5821 14.5977H18.5782V16.8398C18.5782 17.1602 18.3165 17.4219 18.0001 17.4219ZM18.0001 12.3438C17.668 12.3438 17.4024 12.6133 17.4024 12.9414C17.4024 13.2695 17.6719 13.5391 18.0001 13.5391C18.3282 13.5391 18.5977 13.2695 18.5977 12.9414C18.5977 12.6133 18.3282 12.3438 18.0001 12.3438ZM5.27351 10.2695C5.42976 10.4258 5.8946 10.6875 6.69929 10.918C7.66804 11.1953 8.83601 11.3477 9.98835 11.3477C11.1407 11.3477 12.3087 11.1953 13.2774 10.918C14.086 10.6875 14.5509 10.4258 14.7032 10.2734L14.7071 10.2695V6.9375L10.1876 8.54687C10.1251 8.57031 10.0587 8.58203 9.99226 8.58203C9.92585 8.58203 9.85945 8.57031 9.79695 8.54687L5.27351 6.9375V10.2695ZM2.30867 4.65625L9.99226 7.38672L17.6759 4.65625L9.99226 1.94531L2.30867 4.65625Z" fill="#777777"/>
</svg>
