<svg width="14" height="16" viewBox="0 0 14 16" fill="none" xmlns="http://www.w3.org/2000/svg">
<path d="M3.25938 15.875C2.7125 15.875 2.2 15.6625 1.81562 15.2781C1.43125 14.8906 1.21875 14.3781 1.21875 13.8344V3.12812H0.625C0.5 3.12812 0.38125 3.07812 0.29375 2.99062C0.20625 2.9 0.15625 2.78125 0.15625 2.65625C0.15625 2.53125 0.20625 2.4125 0.29375 2.325C0.384375 2.2375 0.503125 2.1875 0.625 2.1875H4.44063L4.47188 2.06875C4.60313 1.50937 4.91875 1.00625 5.35625 0.65C5.82187 0.271875 6.40312 0.0625 7 0.0625C7.59375 0.0625 8.175 0.271875 8.64062 0.65C9.07812 1.0125 9.39375 1.51562 9.525 2.06562L9.55625 2.1875H13.375C13.5 2.1875 13.6188 2.2375 13.7063 2.325C13.7969 2.41563 13.8438 2.53125 13.8438 2.65625C13.8438 2.78125 13.7937 2.9 13.7063 2.9875C13.6156 3.07812 13.5 3.125 13.375 3.125H12.7812V13.8313C12.7812 14.3781 12.5687 14.8906 12.1844 15.275C11.8 15.6594 11.2875 15.8719 10.7406 15.8719H3.25938V15.875ZM2.15937 13.8344C2.15937 14.1281 2.275 14.4031 2.48125 14.6125C2.6875 14.8188 2.96875 14.9344 3.25938 14.9344H10.7406C11.0344 14.9344 11.3094 14.8188 11.5188 14.6125C11.725 14.4062 11.8406 14.125 11.8406 13.8344V3.12812H2.15937V13.8344ZM7 1.00312C6.65625 1.00312 6.32812 1.10938 6.04688 1.30938C5.80937 1.48125 5.62187 1.70625 5.50625 1.95938L5.4 2.18438H8.59375L8.4875 1.95938C8.3625 1.69688 8.18437 1.47813 7.95 1.30938C7.67188 1.10938 7.34375 1.00312 7 1.00312Z" fill="#1BA39C"/>
<path d="M5.40625 12.1562C5.28125 12.1562 5.1625 12.1062 5.075 12.0188C4.98438 11.9281 4.9375 11.8125 4.9375 11.6875V6.375C4.9375 6.25 4.9875 6.13125 5.075 6.04375C5.16562 5.95312 5.28125 5.90625 5.40625 5.90625C5.53125 5.90625 5.65 5.95625 5.7375 6.04375C5.82812 6.13437 5.875 6.25 5.875 6.375V11.6875C5.875 11.8125 5.825 11.9313 5.7375 12.0188C5.65 12.1094 5.53125 12.1562 5.40625 12.1562Z" fill="#1BA39C"/>
<path d="M8.59375 12.1562C8.46875 12.1562 8.35 12.1062 8.2625 12.0188C8.17188 11.9281 8.125 11.8125 8.125 11.6875V6.375C8.125 6.25 8.175 6.13125 8.2625 6.04375C8.35312 5.95312 8.46875 5.90625 8.59375 5.90625C8.71875 5.90625 8.8375 5.95625 8.925 6.04375C9.01562 6.13437 9.0625 6.25 9.0625 6.375V11.6875C9.0625 11.8125 9.0125 11.9313 8.925 12.0188C8.8375 12.1094 8.71875 12.1562 8.59375 12.1562Z" fill="#1BA39C"/>
</svg>
