<svg width="18" height="18" viewBox="0 0 18 18" fill="none" xmlns="http://www.w3.org/2000/svg">
<path d="M2.32734 17.5941C1.18125 17.5941 0.246094 16.6625 0.246094 15.5129L0.246094 11.4629C0.246094 11.0656 0.569531 10.7422 0.966797 10.7422C1.36406 10.7422 1.6875 11.0656 1.6875 11.4629L1.6875 15.5129C1.6875 15.8645 1.97578 16.1527 2.32734 16.1527H15.6691C16.0207 16.1527 16.309 15.8645 16.309 15.5129V11.4629C16.309 11.0656 16.6324 10.7422 17.0297 10.7422C17.427 10.7422 17.7504 11.0656 17.7504 11.4629V15.5129C17.7504 16.6625 16.8152 17.5941 15.6691 17.5941H2.32734Z" fill="#1BA39C"/>
<path d="M9.02481 0.383594C8.62754 0.383594 8.3041 0.707031 8.3041 1.1043V10.9375L6.26855 8.90195C6.13145 8.76484 5.95215 8.69102 5.75879 8.69102C5.56543 8.69102 5.38613 8.76484 5.24902 8.90195C5.11191 9.03906 5.03809 9.21836 5.03809 9.41172C5.03809 9.60508 5.11191 9.78437 5.24902 9.92148L8.51504 13.1875C8.65215 13.3246 8.83145 13.3984 9.02481 13.3984C9.21816 13.3984 9.39746 13.3246 9.53457 13.1875L12.8006 9.92148C12.9377 9.78437 13.0115 9.60508 13.0115 9.41172C13.0115 9.21836 12.9377 9.03906 12.8006 8.90195C12.6635 8.76484 12.4842 8.69102 12.2908 8.69102C12.0975 8.69102 11.9182 8.76484 11.7811 8.90195L9.74551 10.9375V1.10781C9.74551 0.707031 9.42207 0.383594 9.02481 0.383594Z" fill="#1BA39C"/>
</svg>
