<svg width="15" height="14" viewBox="0 0 15 14" fill="none" xmlns="http://www.w3.org/2000/svg">
<path d="M13.5001 13.3164C13.2598 13.3164 13.0665 13.123 13.0665 12.8828V11.2012H13.0635C12.5391 11.0166 12.1846 10.5156 12.1846 9.95898C12.1846 9.40234 12.5391 8.9043 13.0635 8.7168H13.0665V4.73242L11.9004 5.14551V8.0166C11.9004 8.48828 11.4083 8.88379 10.4385 9.2002C9.59185 9.47559 8.54595 9.62793 7.49712 9.62793C6.4483 9.62793 5.4024 9.47559 4.55572 9.2002C3.58599 8.88379 3.0938 8.48828 3.0938 8.0166V5.14551L0.287163 4.14941C0.114312 4.08789 -0.00287598 3.92383 5.37093e-05 3.73926C5.37093e-05 3.55469 0.117241 3.39063 0.290093 3.33203L7.35064 0.841797C7.39752 0.824219 7.44439 0.818359 7.49419 0.818359C7.544 0.818359 7.59087 0.827148 7.63775 0.841797L14.6983 3.33203C14.8711 3.39355 14.9883 3.55762 14.9883 3.73926C14.9883 3.92383 14.8741 4.08789 14.7012 4.14941L13.9336 4.42188V8.71387H13.9366C14.461 8.89844 14.8155 9.39941 14.8155 9.95606C14.8155 10.5127 14.461 11.0107 13.9366 11.1982H13.9336V12.8799C13.9336 13.1201 13.7374 13.3164 13.5001 13.3164ZM13.5001 9.50781C13.251 9.50781 13.0518 9.70996 13.0518 9.95606C13.0518 10.2021 13.254 10.4043 13.5001 10.4043C13.7461 10.4043 13.9483 10.2021 13.9483 9.95606C13.9483 9.70996 13.7461 9.50781 13.5001 9.50781ZM3.95513 7.95215C4.07232 8.06934 4.42095 8.26563 5.02447 8.43848C5.75103 8.64648 6.62701 8.76074 7.49126 8.76074C8.35552 8.76074 9.2315 8.64648 9.95806 8.43848C10.5645 8.26563 10.9131 8.06934 11.0274 7.95508L11.0303 7.95215V5.45312L7.64068 6.66016C7.5938 6.67773 7.544 6.68652 7.49419 6.68652C7.44439 6.68652 7.39459 6.67773 7.34771 6.66016L3.95513 5.45312V7.95215ZM1.7315 3.74219L7.49419 5.79004L13.2569 3.74219L7.49419 1.70898L1.7315 3.74219Z" fill="#777777"/>
</svg>
