<svg width="16" height="11" viewBox="0 0 16 11" fill="none" xmlns="http://www.w3.org/2000/svg">
<path d="M8.02563 7.95508C6.66626 7.95508 5.55884 6.84766 5.55884 5.48828C5.55884 4.12891 6.66626 3.02148 8.02563 3.02148C9.38501 3.02148 10.4924 4.12891 10.4924 5.48828C10.4924 6.84766 9.38501 7.95508 8.02563 7.95508ZM8.02563 3.8916C7.14673 3.8916 6.43188 4.60645 6.43188 5.48535C6.43188 6.36426 7.14673 7.0791 8.02563 7.0791C8.90454 7.0791 9.61938 6.36426 9.61938 5.48535C9.61938 4.60645 8.90454 3.8916 8.02563 3.8916Z" fill="#1BA39C"/>
<path d="M8.02563 10.4541C5.06665 10.4541 2.29517 8.67871 0.613525 5.70215C0.540283 5.57031 0.540283 5.40625 0.613525 5.27441C2.29517 2.29785 5.06665 0.519531 8.02563 0.519531C10.9846 0.519531 13.7561 2.29492 15.4377 5.27148C15.511 5.40332 15.511 5.56738 15.4377 5.69922C13.7561 8.67871 10.9846 10.4541 8.02563 10.4541ZM1.51001 5.50293C3.03931 8.05762 5.47388 9.58105 8.02563 9.58105C10.5774 9.58105 13.012 8.05762 14.5413 5.50293L14.55 5.48535L14.5413 5.46777C13.012 2.91602 10.5774 1.39258 8.02563 1.39258C5.47388 1.39258 3.03931 2.91602 1.51001 5.4707L1.50122 5.48828L1.51001 5.50293Z" fill="#1BA39C"/>
</svg>
