<svg width="20" height="21" viewBox="0 0 20 21" fill="none" xmlns="http://www.w3.org/2000/svg">
<path d="M7.69922 20.3047C7.41406 20.3047 7.10938 20.082 7.10938 19.7188V12.1016C7.10938 11.2539 6.74609 10.4414 6.10938 9.875L2.6875 6.83203C1.10547 5.42578 0.195312 3.40234 0.195312 1.28125C0.195312 0.957031 0.457031 0.695312 0.78125 0.695312H19.2188C19.543 0.695312 19.8047 0.957031 19.8047 1.28125C19.8047 3.40234 18.8945 5.42578 17.3125 6.83203L13.8906 9.875C13.2539 10.4414 12.8906 11.2539 12.8906 12.1016V16.6484C12.8906 16.8477 12.793 17.0273 12.6289 17.1328L8.01953 20.207C7.92188 20.2695 7.8125 20.3047 7.69922 20.3047ZM1.41797 2.08594C1.61328 3.58203 2.33984 4.95312 3.46875 5.95703L6.89062 9C7.77344 9.78516 8.28125 10.9141 8.28125 12.1016V18.625L11.7188 16.332V12.0977C11.7188 10.9102 12.2266 9.78125 13.1094 8.99609L16.5312 5.95312C17.6562 4.95703 18.3828 3.58203 18.582 2.08594L18.6094 1.86328H1.39453L1.41797 2.08594Z" fill="#1BA39C"/>
</svg>
