<svg width="30" height="31" viewBox="0 0 30 31" fill="none" xmlns="http://www.w3.org/2000/svg">
<path d="M11.5488 30.2617C11.1211 30.2617 10.6641 29.9265 10.6641 29.3795V17.9113C10.6641 16.635 10.1191 15.4118 9.16406 14.559L4.03125 9.97758C1.6582 7.86036 0.292969 4.81392 0.292969 1.62045C0.292969 1.13232 0.685547 0.738281 1.17188 0.738281H28.8281C29.3145 0.738281 29.707 1.13232 29.707 1.62045C29.707 4.81392 28.3418 7.86036 25.9688 9.97758L20.8359 14.559C19.8809 15.4118 19.3359 16.635 19.3359 17.9113V24.7569C19.3359 25.0569 19.1895 25.3274 18.9434 25.4862L12.0293 30.1147C11.8828 30.2088 11.7188 30.2617 11.5488 30.2617ZM2.12695 2.83197C2.41992 5.08446 3.50977 7.14874 5.20313 8.6602L10.3359 13.2416C11.6602 14.4237 12.4219 16.1234 12.4219 17.9113V27.7328L17.5781 24.2806V17.9054C17.5781 16.1175 18.3398 14.4179 19.6641 13.2357L24.7969 8.65432C26.4844 7.15462 27.5742 5.08446 27.873 2.83197L27.9141 2.49675H2.0918L2.12695 2.83197Z" fill="#1BA39C"/>
</svg>
