<svg width="13" height="16" viewBox="0 0 13 16" fill="none" xmlns="http://www.w3.org/2000/svg">
<path d="M0.87793 15.4766C0.634766 15.4766 0.435547 15.2773 0.435547 15.0342C0.435547 14.791 0.634766 14.5918 0.87793 14.5918H1.88574V2.69727C1.88574 2.4541 2.08496 2.25488 2.32813 2.25488H2.76172V1.00098C2.76172 0.757812 2.96094 0.558594 3.2041 0.558594H6.56152C6.80469 0.558594 7.00391 0.757812 7.00391 1.00098V2.25195H10.6748C10.918 2.25195 11.1172 2.45117 11.1172 2.69434V14.5889H12.125C12.3682 14.5889 12.5674 14.7881 12.5674 15.0312C12.5674 15.2744 12.3682 15.4736 12.125 15.4736H0.87793V15.4766ZM10.2324 14.5918V3.13672H2.77344V14.5889H4.61035V12.4502H4.35547C4.1123 12.4502 3.91309 12.251 3.91309 12.0078C3.91309 11.7646 4.1123 11.5654 4.35547 11.5654H8.65039C8.89355 11.5654 9.09277 11.7646 9.09277 12.0078C9.09277 12.251 8.89355 12.4502 8.65039 12.4502H8.39844V14.5889H10.2324V14.5918ZM7.51074 14.5918V12.4531H5.49219V14.5918H7.51074ZM6.11914 2.25195V1.44336H3.64941V2.25195H6.11914ZM7.65137 10.4873C7.4082 10.4873 7.20898 10.2881 7.20898 10.0449C7.20898 9.80176 7.4082 9.60254 7.65137 9.60254H8.19629C8.43945 9.60254 8.63867 9.80176 8.63867 10.0449C8.63867 10.2881 8.43945 10.4873 8.19629 10.4873H7.65137ZM4.78027 10.4873C4.53711 10.4873 4.33789 10.2881 4.33789 10.0449C4.33789 9.80176 4.53711 9.60254 4.78027 9.60254H5.32227C5.56543 9.60254 5.76465 9.80176 5.76465 10.0449C5.76465 10.2881 5.56543 10.4873 5.32227 10.4873H4.78027ZM7.65137 8.6709C7.4082 8.6709 7.20898 8.47168 7.20898 8.22852C7.20898 7.98535 7.4082 7.78613 7.65137 7.78613H8.19629C8.43945 7.78613 8.63867 7.98535 8.63867 8.22852C8.63867 8.47168 8.43945 8.6709 8.19629 8.6709H7.65137ZM4.78027 8.6709C4.53711 8.6709 4.33789 8.47168 4.33789 8.22852C4.33789 7.98535 4.53711 7.78613 4.78027 7.78613H5.32227C5.56543 7.78613 5.76465 7.98535 5.76465 8.22852C5.76465 8.47168 5.56543 8.6709 5.32227 8.6709H4.78027ZM7.65137 6.85742C7.4082 6.85742 7.20898 6.6582 7.20898 6.41504C7.20898 6.17188 7.4082 5.97266 7.65137 5.97266H8.19629C8.43945 5.97266 8.63867 6.17188 8.63867 6.41504C8.63867 6.6582 8.43945 6.85742 8.19629 6.85742H7.65137ZM4.78027 6.85742C4.53711 6.85742 4.33789 6.6582 4.33789 6.41504C4.33789 6.17188 4.53711 5.97266 4.78027 5.97266H5.32227C5.56543 5.97266 5.76465 6.17188 5.76465 6.41504C5.76465 6.6582 5.56543 6.85742 5.32227 6.85742H4.78027ZM7.65137 5.04395C7.4082 5.04395 7.20898 4.84473 7.20898 4.60156C7.20898 4.3584 7.4082 4.15918 7.65137 4.15918H8.19629C8.43945 4.15918 8.63867 4.3584 8.63867 4.60156C8.63867 4.84473 8.43945 5.04395 8.19629 5.04395H7.65137ZM4.78027 5.04395C4.53711 5.04395 4.33789 4.84473 4.33789 4.60156C4.33789 4.3584 4.53711 4.15918 4.78027 4.15918H5.32227C5.56543 4.15918 5.76465 4.3584 5.76465 4.60156C5.76465 4.84473 5.56543 5.04395 5.32227 5.04395H4.78027Z" fill="#777777"/>
</svg>
