<svg width="33" height="31" viewBox="0 0 33 31" fill="none" xmlns="http://www.w3.org/2000/svg">
<path d="M16.9704 18.8387C11.9946 18.8387 7.95342 14.7975 7.95342 9.82168C7.95986 4.85234 12.0075 0.804688 16.9704 0.804688C21.9462 0.804688 25.9874 4.8459 25.9874 9.82168C25.9874 14.7975 21.9462 18.8387 16.9704 18.8387ZM16.9704 2.74473C13.071 2.75117 9.89346 5.92227 9.89346 9.81523C9.89346 13.7146 13.071 16.8857 16.9704 16.8857C20.8698 16.8857 24.0474 13.7146 24.0474 9.81523C24.0474 5.91582 20.8698 2.74473 16.9704 2.74473Z" fill="white"/>
<path d="M18.2532 30.2211C17.7053 30.2146 17.1639 30.1566 16.629 30.0535H16.6225C16.6032 30.0535 16.5839 30.0471 16.5645 30.0406H16.5581L9.21687 27.9781C9.06218 27.933 8.9075 27.9137 8.73992 27.9137C8.45632 27.9137 8.16628 27.9846 7.91492 28.1199L6.87722 28.6807L6.86433 28.9643C6.85144 29.4928 6.42605 29.9053 5.89753 29.9053H5.8782L1.14089 29.7764C0.612377 29.7635 0.186986 29.3188 0.193432 28.7838L0.496361 18.4068C0.509252 17.8783 0.934643 17.4658 1.46316 17.4658H1.48249L6.21335 17.5947C6.46472 17.6012 6.70964 17.7043 6.89011 17.8912C7.07058 18.0781 7.16726 18.3295 7.16082 18.5873L7.15437 18.9676C8.15984 18.5357 9.26199 18.3102 10.3577 18.3102C11.6532 18.3102 12.9487 18.626 14.1089 19.2254L14.5471 19.451C15.095 19.7346 15.7137 19.8957 16.3454 19.9086L20.6573 20.0246C22.0302 20.0633 23.2934 20.7723 24.0346 21.9131L28.3917 19.857C28.8686 19.6186 29.3778 19.4961 29.8999 19.4961C31.1245 19.4961 32.2524 20.16 32.8518 21.2234C33.1032 21.6682 32.9614 22.2354 32.5425 22.5189L21.9141 29.4154C21.8948 29.4283 21.8755 29.4412 21.8497 29.4477C21.8303 29.4605 21.811 29.467 21.7981 29.4734L21.7917 29.4799C20.7153 29.9697 19.5616 30.2275 18.3692 30.234H18.2532V30.2211ZM8.74636 25.9672C9.06218 25.9672 9.39089 26.0123 9.73894 26.1025L17.0479 28.1521C17.4862 28.2359 17.9116 28.2746 18.3048 28.2746C19.2007 28.2746 20.0772 28.0877 20.9087 27.7203L30.4606 21.5457C30.2866 21.4748 30.0997 21.4361 29.9063 21.4361C29.6743 21.4361 29.4616 21.4877 29.2747 21.5844C29.2682 21.5844 29.2682 21.5908 29.2618 21.5908L29.2554 21.5973L29.236 21.6037L24.6985 23.75C24.7243 23.9498 24.7307 24.1367 24.7243 24.3172C24.7114 24.8457 24.286 25.2582 23.7575 25.2582H23.7382L16.6419 25.0584C16.1134 25.0455 15.688 24.6008 15.6944 24.0658C15.7073 23.5373 16.1327 23.1184 16.6612 23.1184H16.6805L22.5844 23.2795C22.2364 22.4932 21.4823 21.9904 20.6057 21.9582L16.2938 21.8422C15.3786 21.8164 14.4634 21.5779 13.6577 21.1654L13.2001 20.9334C12.3171 20.4758 11.3309 20.2309 10.3448 20.2309C9.19109 20.2309 8.06316 20.5531 7.08347 21.159L6.94812 26.4184L7.01257 26.3861C7.54753 26.1219 8.14695 25.9672 8.74636 25.9672ZM4.96296 27.9266L5.19499 19.5025L2.41062 19.4252L2.17859 27.8492L4.96296 27.9266Z" fill="white"/>
<path d="M17.0544 16.1897C16.5259 16.1897 16.094 15.7578 16.094 15.2293V14.4301H15.9909C15.2562 14.4172 14.7019 14.2432 14.1347 13.8436C13.7028 13.5406 13.5933 12.9412 13.8962 12.5094C14.0767 12.2516 14.3667 12.0969 14.6825 12.0969C14.8759 12.0969 15.0692 12.1549 15.2304 12.2709C15.456 12.4256 15.7073 12.5094 15.9458 12.5158H18.0599C18.5304 12.5158 18.9107 12.1356 18.9107 11.665C18.9107 11.1945 18.5304 10.8143 18.0599 10.8143H16.0489C14.5214 10.8143 13.2839 9.57032 13.2839 8.04922C13.2839 6.54747 14.4763 5.33575 15.9974 5.28419L16.094 5.27774V4.47852C16.094 3.95001 16.5259 3.51817 17.0544 3.51817C17.5829 3.51817 18.0148 3.95001 18.0148 4.47852V5.27774L18.1114 5.28419C18.93 5.32286 19.7357 5.69024 20.3093 6.30899C20.6702 6.69571 20.6509 7.30157 20.2642 7.66251C20.0837 7.83008 19.8517 7.92032 19.6132 7.92032C19.3489 7.92032 19.0911 7.81075 18.9107 7.61739C18.6657 7.35313 18.3306 7.20489 17.9954 7.19844H16.0683C15.5849 7.19844 15.2046 7.57227 15.2046 8.04922C15.2046 8.51973 15.5849 8.90001 16.0554 8.90001H18.0663C19.5939 8.90001 20.8314 10.144 20.8314 11.665C20.8314 13.1668 19.639 14.3785 18.1179 14.4301L18.0212 14.4365V15.2357C18.0083 15.7578 17.5829 16.1897 17.0544 16.1897Z" fill="white"/>
</svg>
