<svg width="20" height="16" viewBox="0 0 20 16" fill="none" xmlns="http://www.w3.org/2000/svg">
<path d="M7.28516 15.1641C7.38672 15.1641 7.48828 15.1445 7.58594 15.1055C7.68359 15.0664 7.76953 15.0078 7.84766 14.9336C7.92188 14.8594 7.98047 14.7695 8.01953 14.6719C8.05859 14.5742 8.07812 14.4727 8.07812 14.3633C8.07812 14.2578 8.05469 14.1562 8.01562 14.0586C7.97266 13.9609 7.91406 13.875 7.83984 13.8008L2.82812 8.78906H19.0898C19.3008 8.78906 19.5 8.70703 19.6484 8.55859C19.7969 8.41016 19.8828 8.21094 19.8828 8C19.8828 7.78906 19.8008 7.58984 19.6523 7.44141C19.5039 7.29297 19.3047 7.21094 19.0938 7.21094H2.82422L7.83203 2.19531C7.97656 2.04688 8.05469 1.84766 8.05469 1.64062C8.05469 1.43359 7.96875 1.23438 7.82422 1.08594C7.67578 0.9375 7.48047 0.855469 7.26953 0.855469H7.26172C7.05469 0.855469 6.85937 0.933594 6.71094 1.07813L0.347656 7.44141C0.199219 7.58984 0.117188 7.78906 0.117188 8C0.117188 8.21094 0.199219 8.41016 0.347656 8.55859L6.71094 14.9219C6.78516 15 6.87109 15.0586 6.96875 15.1016C7.06641 15.1445 7.16797 15.1641 7.27344 15.1641H7.28516Z" fill="#1BA39C"/>
</svg>
