<svg width="20" height="20" viewBox="0 0 20 20" fill="none" xmlns="http://www.w3.org/2000/svg">
<path d="M4.02734 19.8516C2.9625 19.8516 1.96094 19.4367 1.20742 18.6832C0.454297 17.9258 0.0390625 16.9242 0.0390625 15.8633C0.0390625 14.7984 0.453906 13.7973 1.20742 13.0434L6.0082 8.24258C6.76172 7.48906 7.76328 7.07422 8.82812 7.07422C9.89297 7.07422 10.8945 7.48906 11.648 8.24258C11.7598 8.3543 11.8215 8.50352 11.8215 8.66211C11.8215 8.8207 11.7598 8.96953 11.648 9.08164C11.5387 9.19141 11.3863 9.25391 11.2305 9.25391C11.0727 9.25391 10.9242 9.19258 10.8129 9.08164C10.2844 8.55313 9.58086 8.26172 8.83203 8.26172C8.08711 8.26172 7.38359 8.55273 6.85117 9.08125L2.04648 13.882C1.51758 14.4109 1.22656 15.1145 1.22656 15.8633C1.22656 16.6082 1.51758 17.3117 2.04609 17.8441C2.575 18.373 3.27852 18.6641 4.02734 18.6641C4.77226 18.6641 5.47578 18.373 6.0082 17.8445L8.40703 15.4457C8.5168 15.3363 8.66875 15.2734 8.82461 15.2734C8.98242 15.2734 9.13086 15.3348 9.24219 15.4457C9.35195 15.5555 9.41445 15.7074 9.41445 15.8633C9.41445 16.0211 9.35312 16.1695 9.24219 16.2809L6.84375 18.6793C6.09101 19.4352 5.09101 19.8516 4.02734 19.8516Z" fill="#1BA39C"/>
<path d="M10.625 13.25C9.56015 13.25 8.55859 12.8352 7.80508 12.0816C7.69336 11.9699 7.63164 11.8207 7.63164 11.6621C7.63164 11.5035 7.69336 11.3547 7.80508 11.2426C7.91484 11.1332 8.0668 11.0703 8.22266 11.0703C8.38047 11.0703 8.52891 11.1316 8.64023 11.2426C9.16875 11.7711 9.87226 12.0625 10.6211 12.0625C11.366 12.0625 12.0695 11.7715 12.602 11.243L17.8793 5.96523C18.4078 5.43672 18.6992 4.7332 18.6992 3.98438C18.6992 3.23945 18.4082 2.53594 17.8797 2.00352C17.3508 1.47461 16.6473 1.18359 15.8984 1.18359C15.1535 1.18359 14.45 1.47461 13.9176 2.00312L11.0422 4.88633C10.9328 4.9957 10.7805 5.05859 10.625 5.05859C10.4695 5.05859 10.3172 4.9957 10.2074 4.88633C10.0977 4.77656 10.0352 4.62461 10.0352 4.46875C10.0352 4.31094 10.0965 4.1625 10.2074 4.05117L13.0863 1.17227C13.8387 0.416406 14.8387 0 15.9023 0C16.9672 0 17.9687 0.414844 18.7223 1.16836C19.475 1.92148 19.8895 2.92344 19.8887 3.99023C19.8879 5.05508 19.4738 6.0543 18.7223 6.80391L13.4449 12.0852C12.6898 12.8363 11.6887 13.25 10.625 13.25Z" fill="#1BA39C"/>
</svg>
