<svg width="26" height="22" viewBox="0 0 26 22" fill="none" xmlns="http://www.w3.org/2000/svg">
<path d="M21.3426 18.7453H17.6312V13.6404C17.6312 12.4231 17.6065 10.856 15.7009 10.856C13.7679 10.856 13.4721 12.1824 13.4721 13.5518V18.745H9.76076V8.24722H13.3236V9.68186H13.3735C13.7301 9.14639 14.2454 8.70588 14.8644 8.40725C15.4835 8.10862 16.1832 7.96305 16.889 7.98605C20.6507 7.98605 21.3442 10.1592 21.3442 12.9864L21.3426 18.7453ZM5.57294 6.81232C4.38342 6.81249 3.41895 5.96566 3.41875 4.92092C3.41856 3.87618 4.38264 3.02909 5.57215 3.02892C6.76167 3.02866 7.72615 3.87549 7.72634 4.92023C7.72644 5.42194 7.49963 5.90314 7.09579 6.25797C6.69195 6.6128 6.14417 6.81221 5.57294 6.81232ZM7.42869 18.7454H3.71337V8.24722H7.42859V18.7453L7.42869 18.7454ZM23.1929 0.00160118H1.84842C0.83962 -0.00836757 0.0123286 0.70139 0 1.58741V20.4123C0.0119373 21.2987 0.83913 22.0092 1.84832 21.9999H23.1929C24.2043 22.0109 25.0347 21.3004 25.0487 20.4123V1.58594C25.0343 0.698211 24.2038 -0.0114613 23.1929 0.000140241" fill="#0A66C2"/>
</svg>
