<svg width="16" height="13" viewBox="0 0 16 13" fill="none" xmlns="http://www.w3.org/2000/svg">
<path d="M15.8657 6.775C15.8688 6.77187 15.8719 6.76875 15.875 6.7625C15.8813 6.75312 15.8875 6.74687 15.8938 6.7375C15.8969 6.73125 15.9 6.725 15.9063 6.71875C15.9094 6.7125 15.9157 6.70625 15.9188 6.7C15.9219 6.69375 15.925 6.68437 15.9282 6.67812C15.9313 6.67188 15.9344 6.66562 15.9375 6.65937C15.9407 6.65312 15.9438 6.64375 15.9469 6.6375C15.95 6.63125 15.95 6.625 15.9532 6.61875C15.9563 6.60937 15.9563 6.6 15.9594 6.59375C15.9594 6.5875 15.9625 6.58437 15.9625 6.57812C15.9657 6.56562 15.9657 6.55312 15.9688 6.54062C15.9688 6.5375 15.9688 6.5375 15.9688 6.53437C15.9813 6.40312 15.9375 6.26562 15.8375 6.16562L13.075 3.40312C12.9875 3.31562 12.875 3.26875 12.7531 3.26875C12.6313 3.26875 12.5156 3.31562 12.4313 3.40312C12.3438 3.49062 12.2969 3.60312 12.2969 3.725C12.2969 3.84687 12.3438 3.9625 12.4313 4.04687L14.4188 6.03437H9.64062C9.39062 6.03437 9.18437 6.2375 9.18437 6.49062C9.18437 6.74375 9.3875 6.94687 9.64062 6.94687H14.4125L12.4281 8.93125C12.25 9.10937 12.25 9.39687 12.4281 9.575C12.5125 9.6625 12.6281 9.70937 12.75 9.70937C12.8719 9.70937 12.9875 9.6625 13.0719 9.575L15.8313 6.81562C15.8438 6.8 15.8563 6.7875 15.8657 6.775Z" fill="#777777"/>
<path fill-rule="evenodd" clip-rule="evenodd" d="M2.12495 3.78125C2.12495 2.22795 3.38416 0.96875 4.93747 0.96875C6.49077 0.96875 7.74998 2.22795 7.74998 3.78125C7.74998 4.67172 7.33615 5.46553 6.69031 5.98087C8.51669 6.68485 9.81249 8.45673 9.81249 10.5312V11.4687C9.81249 11.883 9.4767 12.2187 9.06249 12.2187H0.812443C0.398227 12.2187 0.062439 11.883 0.062439 11.4687V10.5312C0.062439 8.45673 1.35825 6.68485 3.18462 5.98087C2.53878 5.46553 2.12495 4.67172 2.12495 3.78125ZM4.93747 5.65625C5.973 5.65625 6.81248 4.81678 6.81248 3.78125C6.81248 2.74572 5.973 1.90625 4.93747 1.90625C3.90193 1.90625 3.06246 2.74572 3.06246 3.78125C3.06246 4.81678 3.90193 5.65625 4.93747 5.65625ZM8.87499 11.0055V10.5625C8.87499 8.37062 7.09811 6.59375 4.90621 6.59375C2.71432 6.59375 0.937444 8.37062 0.937444 10.5625V11.0055C0.937444 11.1578 1.0609 11.2812 1.21318 11.2812H8.59925C8.75154 11.2812 8.87499 11.1578 8.87499 11.0055Z" fill="#777777"/>
</svg>
