<svg width="13" height="14" viewBox="0 0 13 14" fill="none" xmlns="http://www.w3.org/2000/svg">
<path d="M6.5 13.8359C6.21563 13.8359 5.98203 13.5762 5.98203 13.2535V7.55781H0.693164C0.393555 7.55781 0.152344 7.30625 0.152344 7C0.152344 6.69375 0.393555 6.44219 0.693164 6.44219H5.98457V0.746484C5.98203 0.423828 6.21563 0.164062 6.5 0.164062C6.78438 0.164062 7.01797 0.423828 7.01797 0.746484V6.44492H12.3094C12.6064 6.44492 12.8502 6.69375 12.8502 7.00273C12.8502 7.31172 12.609 7.56055 12.3094 7.56055H7.01797V13.259C7.01797 13.5762 6.78438 13.8359 6.5 13.8359Z" fill="#1BA39C"/>
</svg>
