<svg width="20" height="20" viewBox="0 0 20 20" fill="none" xmlns="http://www.w3.org/2000/svg">
<path d="M5.17578 19.9219C4.78906 19.9219 4.47266 19.6055 4.47266 19.2188V17.1133H2.24219C1.05078 17.1133 0.078125 16.1406 0.078125 14.9492V8.53516C0.078125 7.33984 1.05078 6.37109 2.24219 6.37109H4.46875V0.78125C4.46875 0.394531 4.78516 0.078125 5.17188 0.078125H14.8281C15.2148 0.078125 15.5312 0.394531 15.5312 0.78125V6.36719H17.7578C18.9531 6.36719 19.9219 7.33984 19.9219 8.53125V14.9414C19.9219 16.1367 18.9492 17.1055 17.7578 17.1055H15.5312V19.2148C15.5312 19.6016 15.2148 19.918 14.8281 19.918H5.17578V19.9219ZM5.63672 18.7539H14.3672V13.0781H5.63672V18.7539ZM1.24609 14.9492C1.24609 15.5 1.69531 15.9492 2.24609 15.9492H4.47266V13.0781H1.24609V14.9492ZM15.5312 15.9453H17.7578C18.3086 15.9453 18.7578 15.4961 18.7578 14.9453V13.0742H15.5312V15.9453ZM2.24219 7.53516C1.69141 7.53516 1.24219 7.98438 1.24219 8.53516V11.9062H18.7578V8.53516C18.7578 7.98438 18.3086 7.53516 17.7578 7.53516H2.24219ZM5.63672 6.36719H14.3672V1.24609H5.63672V6.36719Z" fill="#1BA39C"/>
<path d="M16.5234 10.3125C16.847 10.3125 17.1094 10.0502 17.1094 9.72656C17.1094 9.40296 16.847 9.14062 16.5234 9.14062C16.1998 9.14062 15.9375 9.40296 15.9375 9.72656C15.9375 10.0502 16.1998 10.3125 16.5234 10.3125Z" fill="#1BA39C"/>
</svg>
