<svg width="16" height="15" viewBox="0 0 16 15" fill="none" xmlns="http://www.w3.org/2000/svg">
<path d="M0.90742 5.77251C0.589098 5.77251 0.329004 5.51242 0.329004 5.1941V0.578416C0.329004 0.260093 0.589098 0 0.90742 0H5.5231C5.84143 0 6.10152 0.260093 6.10152 0.578416V5.1941C6.10152 5.51242 5.84143 5.77251 5.5231 5.77251H0.90742ZM4.94469 4.61568V1.15683H1.48584V4.61568H4.94469Z" fill="#1BA39C"/>
<path d="M10.1194 5.77251C9.80105 5.77251 9.54096 5.51242 9.54096 5.1941V0.578416C9.54096 0.260093 9.80105 0 10.1194 0H14.7351C15.0534 0 15.3135 0.260093 15.3135 0.578416V5.1941C15.3135 5.51242 15.0534 5.77251 14.7351 5.77251H10.1194ZM14.1566 4.61568V1.15683H10.6978V4.61568H14.1566Z" fill="#1BA39C"/>
<path d="M0.891893 15C0.57357 15 0.313477 14.7399 0.313477 14.4216V9.8059C0.313477 9.48758 0.57357 9.22748 0.891893 9.22748H5.50758C5.8259 9.22748 6.08599 9.48758 6.08599 9.8059V14.4216C6.08599 14.7399 5.8259 15 5.50758 15H0.891893ZM4.92916 13.8432V10.3843H1.47031V13.8432H4.92916Z" fill="#1BA39C"/>
<path d="M0.891893 8.09006C0.57357 8.09006 0.317359 7.82609 0.317359 7.5C0.317359 7.17391 0.57357 6.90994 0.891893 6.90994H3.19391C3.51223 6.90994 3.76845 7.17391 3.76845 7.5C3.76845 7.82609 3.51223 8.09006 3.19391 8.09006H0.891893Z" fill="#1BA39C"/>
<path d="M14.7351 15C14.4167 15 14.1605 14.7399 14.1605 14.4216V11.5334H13.0115V12.1118C13.0115 12.4301 12.7552 12.6902 12.4369 12.6902C12.1186 12.6902 11.8624 12.4301 11.8624 12.1118V11.5334H7.829C7.51068 11.5334 7.25447 11.2733 7.25447 10.955V8.06677H5.52699C5.20866 8.06677 4.95245 7.80668 4.95245 7.48835C4.95245 7.17003 5.20866 6.90994 5.52699 6.90994H7.829C8.14733 6.90994 8.40354 7.17003 8.40354 7.48835V10.3766H9.55261V9.79814C9.55261 9.47981 9.80882 9.21972 10.1271 9.21972C10.4455 9.21972 10.7017 9.47981 10.7017 9.79814V10.3766H14.7312C15.0495 10.3766 15.3057 10.6366 15.3057 10.955V14.4216C15.3096 14.573 15.2514 14.7166 15.1466 14.8253C15.0379 14.9379 14.8903 15 14.7351 15Z" fill="#1BA39C"/>
<path d="M7.79795 15C7.47962 15 7.22341 14.7399 7.22341 14.4216V13.2647C7.22341 12.9464 7.47962 12.6863 7.79795 12.6863C8.11627 12.6863 8.37248 12.9464 8.37248 13.2647V13.8432H10.0961C10.4144 13.8432 10.6706 14.1033 10.6706 14.4216C10.6706 14.7399 10.4144 15 10.0961 15H7.79795Z" fill="#1BA39C"/>
<path d="M14.7351 9.2236C14.4167 9.2236 14.1566 8.96351 14.1566 8.64519V8.06677H13.0037V8.64519C13.0037 8.96351 12.7436 9.2236 12.4253 9.2236C12.107 9.2236 11.8469 8.96351 11.8469 8.64519V8.06677H10.1155C9.79717 8.06677 9.53708 7.80668 9.53708 7.48835C9.53708 7.17003 9.79717 6.90994 10.1155 6.90994H14.7312C15.0495 6.90994 15.3096 7.17003 15.3096 7.48835V8.64519C15.3096 8.80047 15.2552 8.9441 15.1466 9.05279C15.0379 9.16149 14.8903 9.2236 14.7351 9.2236Z" fill="#1BA39C"/>
<path d="M7.81348 5.77251C7.48739 5.77251 7.22341 5.51242 7.22341 5.1941V0.578416C7.22341 0.260093 7.48739 0 7.81348 0C8.13956 0 8.40354 0.260093 8.40354 0.578416V5.1941C8.40354 5.51242 8.13956 5.77251 7.81348 5.77251Z" fill="#1BA39C"/>
<path d="M3.19779 12.6786C2.88335 12.6786 2.63102 12.4262 2.63102 12.1118C2.63102 11.7974 2.88335 11.545 3.19779 11.545C3.51223 11.545 3.76456 11.7974 3.76456 12.1118C3.76456 12.4262 3.51223 12.6786 3.19779 12.6786Z" fill="#1BA39C"/>
<path d="M3.2172 3.45497C2.90276 3.45497 2.65043 3.20264 2.65043 2.8882C2.65043 2.57376 2.90276 2.32143 3.2172 2.32143C3.53164 2.32143 3.78397 2.57376 3.78397 2.8882C3.78397 3.20264 3.52776 3.45497 3.2172 3.45497Z" fill="#1BA39C"/>
<path d="M12.4292 3.45109C12.1147 3.45109 11.8624 3.19876 11.8624 2.88432C11.8624 2.56988 12.1147 2.31755 12.4292 2.31755C12.7397 2.31755 12.9959 2.56988 12.9959 2.88432C12.9959 3.19876 12.7436 3.45109 12.4292 3.45109Z" fill="#1BA39C"/>
<path d="M12.4292 15C12.1147 15 11.8624 14.736 11.8624 14.4099C11.8624 14.0838 12.1147 13.8199 12.4292 13.8199C12.7397 13.8199 12.9959 14.0838 12.9959 14.4099C12.9959 14.736 12.7436 15 12.4292 15Z" fill="#1BA39C"/>
</svg>
