<svg width="20" height="16" viewBox="0 0 20 16" fill="none" xmlns="http://www.w3.org/2000/svg">
<path d="M12.7148 15.1641C12.6133 15.1641 12.5117 15.1445 12.4141 15.1055C12.3164 15.0664 12.2305 15.0078 12.1523 14.9336C12.0781 14.8594 12.0195 14.7695 11.9805 14.6719C11.9414 14.5742 11.9219 14.4727 11.9219 14.3633C11.9219 14.2578 11.9453 14.1562 11.9844 14.0586C12.0273 13.9609 12.0859 13.875 12.1602 13.8008L17.1719 8.78906H0.910156C0.699219 8.78906 0.5 8.70703 0.351562 8.55859C0.203125 8.41016 0.117188 8.21094 0.117188 8C0.117188 7.78906 0.199219 7.58984 0.347656 7.44141C0.496094 7.29297 0.695312 7.21094 0.90625 7.21094H17.1758L12.168 2.19531C12.0234 2.04688 11.9453 1.84766 11.9453 1.64062C11.9453 1.43359 12.0312 1.23438 12.1758 1.08594C12.3242 0.9375 12.5195 0.855469 12.7305 0.855469H12.7383C12.9453 0.855469 13.1406 0.933594 13.2891 1.07813L19.6523 7.44141C19.8008 7.58984 19.8828 7.78906 19.8828 8C19.8828 8.21094 19.8008 8.41016 19.6523 8.55859L13.2891 14.9219C13.2148 15 13.1289 15.0586 13.0312 15.1016C12.9336 15.1445 12.832 15.1641 12.7266 15.1641H12.7148Z" fill="white"/>
</svg>
