<svg width="61" height="60" viewBox="0 0 61 60" fill="none" xmlns="http://www.w3.org/2000/svg">
<path d="M30.5 0C13.9802 0 0.5 13.4823 0.5 30C0.5 46.5199 13.9823 60 30.5 60C47.0198 60 60.5 46.5177 60.5 30C60.5 13.4801 47.0177 0 30.5 0ZM30.5 56.4844C15.8964 56.4844 4.01562 44.6036 4.01562 30C4.01562 15.3964 15.8964 3.51562 30.5 3.51562C45.1036 3.51562 56.9844 15.3964 56.9844 30C56.9844 44.6036 45.1036 56.4844 30.5 56.4844Z" fill="white"/>
<path d="M25.6797 42C25.1248 42 24.5977 41.7722 24.2232 41.3737L14.6103 31.5089C14.2219 31.1103 14 30.5694 14 30C14 29.4306 14.2219 28.8897 14.6103 28.4911C15.0126 28.0783 15.5259 27.8648 16.0807 27.8648C16.6356 27.8648 17.1488 28.0783 17.5511 28.4911L25.6936 36.847L43.4489 18.6263C43.8512 18.2135 44.3644 18 44.9193 18C45.4741 18 45.9874 18.2135 46.3897 18.6263C46.7919 19.0391 47 19.5658 47 20.1352C47 20.7046 46.7919 21.2313 46.3897 21.6441L27.1639 41.3879C26.7755 41.7865 26.2484 42 25.6797 42Z" fill="white"/>
</svg>
