<svg width="20" height="20" viewBox="0 0 20 20" fill="none" xmlns="http://www.w3.org/2000/svg">
<path d="M2.34375 19.8438C1.13672 19.8438 0.15625 18.8633 0.15625 17.6562V2.34375C0.15625 1.13672 1.13672 0.15625 2.34375 0.15625H15.0825C16.3453 0.15625 17.5563 0.657878 18.4492 1.55078V1.55078C19.3421 2.44368 19.8438 3.65472 19.8438 4.91748V17.6562C19.8438 18.8633 18.8633 19.8438 17.6562 19.8438H2.34375ZM16.7188 18.5938H17.6562C18.1719 18.5938 18.5938 18.1719 18.5938 17.6562V4.91382C18.5938 3.98356 18.2242 3.09139 17.5664 2.43359V2.43359C16.9086 1.7758 16.0084 1.40625 15.0781 1.40625V1.40625V1.40625C15.0781 4.40498 12.6472 6.83594 9.64844 6.83594H8.71094C5.7122 6.83594 3.28125 4.40498 3.28125 1.40625V1.40625H2.34375C1.82812 1.40625 1.40625 1.82812 1.40625 2.34375V17.6562C1.40625 18.1719 1.82812 18.5938 2.34375 18.5938H3.28125V18.2812C3.28125 14.5706 6.28934 11.5625 10 11.5625V11.5625C13.7107 11.5625 16.7188 14.5706 16.7188 18.2813V18.5938ZM4.53125 18.5938H15.4688V18.2813C15.4688 15.2609 13.0203 12.8125 10 12.8125V12.8125C6.97969 12.8125 4.53125 15.2609 4.53125 18.2812V18.5938ZM4.53125 1.40625C4.53125 3.71463 6.40256 5.58594 8.71094 5.58594H9.64844C11.9568 5.58594 13.8281 3.71463 13.8281 1.40625V1.40625H4.53125V1.40625Z" fill="#1BA39C"/>
</svg>
