<svg width="18" height="18" viewBox="0 0 18 18" fill="none" xmlns="http://www.w3.org/2000/svg">
<path d="M14.0238 17.7574C11.9883 17.7574 10.3289 16.1016 10.3289 14.0625C10.3289 13.732 10.3746 13.398 10.466 13.0711L10.5152 12.8883L6.9082 11.0918L6.79219 11.2395C6.09258 12.143 5.00273 12.6809 3.8707 12.6809C1.83516 12.6809 0.175781 11.0215 0.175781 8.98594C0.175781 6.95039 1.83164 5.29102 3.8707 5.29102C5.00273 5.29102 6.09258 5.82891 6.79219 6.73242L6.9082 6.88008L10.5152 5.08359L10.466 4.90078C10.3746 4.57383 10.3289 4.23984 10.3289 3.90937C10.3289 1.87031 11.9883 0.210937 14.0273 0.210937C16.0629 0.210937 17.7223 1.8668 17.7223 3.90586C17.7223 5.94141 16.0664 7.60078 14.0273 7.60078C12.8953 7.60078 11.8055 7.06289 11.1059 6.15938L10.9898 6.01172L7.3793 7.81172L7.42852 7.99453C7.51992 8.32148 7.56562 8.65547 7.56562 8.98594C7.56562 9.31641 7.51992 9.65039 7.42852 9.97734L7.3793 10.1602L10.9898 11.9602L11.1059 11.8125C11.8055 10.909 12.8953 10.3711 14.0273 10.3711C16.0629 10.3711 17.7223 12.027 17.7223 14.066C17.7188 16.098 16.0629 17.7574 14.0238 17.7574ZM14.0238 11.4117C12.5613 11.4117 11.3695 12.6 11.3695 14.066C11.3695 15.5285 12.5578 16.7203 14.0238 16.7203C15.4863 16.7203 16.6781 15.532 16.6781 14.066C16.6781 12.6 15.4898 11.4117 14.0238 11.4117ZM3.8707 6.33164C2.4082 6.33164 1.21641 7.51992 1.21641 8.98594C1.21641 10.4484 2.40469 11.6402 3.8707 11.6402C5.33672 11.6402 6.52148 10.4484 6.52148 8.98594C6.52148 7.52344 5.3332 6.33164 3.8707 6.33164ZM14.0238 1.25508C12.5613 1.25508 11.3695 2.44336 11.3695 3.90937C11.3695 5.37539 12.5578 6.56367 14.0238 6.56367C15.4863 6.56367 16.6781 5.37539 16.6781 3.90937C16.6781 2.44336 15.4898 1.25508 14.0238 1.25508Z" fill="#1BA39C"/>
</svg>
