<svg width="14" height="15" viewBox="0 0 14 15" fill="none" xmlns="http://www.w3.org/2000/svg">
<path d="M3.51953 14.8828C3.00684 14.8828 2.52637 14.6836 2.16602 14.3232C1.80566 13.96 1.60645 13.4795 1.60645 12.9697V2.93262H1.0498C0.932617 2.93262 0.821289 2.88574 0.739258 2.80371C0.657227 2.71875 0.610352 2.60742 0.610352 2.49023C0.610352 2.37305 0.657227 2.26172 0.739258 2.17969C0.824219 2.09766 0.935547 2.05078 1.0498 2.05078H4.62695L4.65625 1.93945C4.7793 1.41504 5.0752 0.943359 5.48535 0.609375C5.92188 0.254883 6.4668 0.0585938 7.02637 0.0585938C7.58301 0.0585938 8.12793 0.254883 8.56445 0.609375C8.97461 0.949219 9.27051 1.4209 9.39355 1.93652L9.42285 2.05078H13.0029C13.1201 2.05078 13.2314 2.09766 13.3135 2.17969C13.3984 2.26465 13.4424 2.37305 13.4424 2.49023C13.4424 2.60742 13.3955 2.71875 13.3135 2.80078C13.2285 2.88574 13.1201 2.92969 13.0029 2.92969H12.4463V12.9668C12.4463 13.4795 12.2471 13.96 11.8867 14.3203C11.5264 14.6807 11.0459 14.8799 10.5332 14.8799H3.51953V14.8828ZM2.48828 12.9697C2.48828 13.2451 2.59668 13.5029 2.79004 13.6992C2.9834 13.8926 3.24707 14.001 3.51953 14.001H10.5332C10.8086 14.001 11.0664 13.8926 11.2627 13.6992C11.4561 13.5059 11.5645 13.2422 11.5645 12.9697V2.93262H2.48828V12.9697ZM7.02637 0.94043C6.7041 0.94043 6.39648 1.04004 6.13281 1.22754C5.91016 1.38867 5.73438 1.59961 5.62598 1.83691L5.52637 2.04785H8.52051L8.4209 1.83691C8.30371 1.59082 8.13672 1.38574 7.91699 1.22754C7.65625 1.04004 7.34863 0.94043 7.02637 0.94043Z" fill="#1BA39C"/>
<path d="M5.53223 11.3965C5.41504 11.3965 5.30371 11.3496 5.22168 11.2676C5.13672 11.1826 5.09277 11.0742 5.09277 10.957V5.97656C5.09277 5.85938 5.13965 5.74805 5.22168 5.66602C5.30664 5.58105 5.41504 5.53711 5.53223 5.53711C5.64941 5.53711 5.76074 5.58398 5.84277 5.66602C5.92773 5.75098 5.97168 5.85938 5.97168 5.97656V10.957C5.97168 11.0742 5.9248 11.1855 5.84277 11.2676C5.76074 11.3525 5.64941 11.3965 5.53223 11.3965Z" fill="#1BA39C"/>
<path d="M8.52051 11.3965C8.40332 11.3965 8.29199 11.3496 8.20996 11.2676C8.125 11.1826 8.08105 11.0742 8.08105 10.957V5.97656C8.08105 5.85938 8.12793 5.74805 8.20996 5.66602C8.29492 5.58105 8.40332 5.53711 8.52051 5.53711C8.6377 5.53711 8.74902 5.58398 8.83105 5.66602C8.91602 5.75098 8.95996 5.85938 8.95996 5.97656V10.957C8.95996 11.0742 8.91309 11.1855 8.83105 11.2676C8.74902 11.3525 8.6377 11.3965 8.52051 11.3965Z" fill="#1BA39C"/>
</svg>
