<svg width="12" height="7" viewBox="0 0 12 7" fill="none" xmlns="http://www.w3.org/2000/svg">
<path d="M6 6.43203C6.12422 6.43203 6.24141 6.38516 6.32812 6.29609L11.7234 0.898438C11.8102 0.811719 11.8594 0.694531 11.8594 0.570312C11.8594 0.446094 11.8102 0.328906 11.7234 0.242188C11.6367 0.155469 11.5195 0.10625 11.3953 0.10625C11.2687 0.10625 11.1516 0.155469 11.0648 0.244531L6 5.30703L0.932812 0.239844C0.843749 0.150781 0.726562 0.101562 0.604687 0.101562C0.478124 0.101562 0.360936 0.150781 0.276562 0.2375C0.0960922 0.417969 0.0960922 0.713281 0.276562 0.896094L5.66953 6.29375C5.75859 6.38281 5.87578 6.43203 6 6.43203Z" fill="#EF627A"/>
</svg>
