<svg width="12" height="7" viewBox="0 0 12 7" fill="none" xmlns="http://www.w3.org/2000/svg">
<path d="M6 0.567968C5.87578 0.567968 5.75859 0.614843 5.67188 0.703906L0.276563 6.10156C0.189844 6.18828 0.140625 6.30547 0.140625 6.42969C0.140625 6.55391 0.189844 6.67109 0.276563 6.75781C0.363281 6.84453 0.480469 6.89375 0.604688 6.89375C0.73125 6.89375 0.848438 6.84453 0.935156 6.75547L6 1.69297L11.0672 6.76016C11.1563 6.84922 11.2734 6.89844 11.3953 6.89844C11.5219 6.89844 11.6391 6.84922 11.7234 6.7625C11.9039 6.58203 11.9039 6.28672 11.7234 6.10391L6.33047 0.70625C6.24141 0.617187 6.12422 0.567968 6 0.567968Z" fill="#5EC394"/>
</svg>
