<svg width="16" height="16" viewBox="0 0 16 16" fill="none" xmlns="http://www.w3.org/2000/svg">
<g clip-path="url(#clip0_2411_190177)">
<path d="M2.06547 15.6375C1.04853 15.6375 0.21875 14.8094 0.21875 13.7875V10.1875C0.21875 9.83437 0.50574 9.54688 0.85824 9.54688C1.21074 9.54688 1.49773 9.83437 1.49773 10.1875V13.7875C1.49773 14.1 1.75353 14.3562 2.06547 14.3562H13.9038C14.2158 14.3562 14.4716 14.1 14.4716 13.7875V10.1875C14.4716 9.83437 14.7586 9.54688 15.1111 9.54688C15.4636 9.54688 15.7506 9.83437 15.7506 10.1875V13.7875C15.7506 14.8094 14.9208 15.6375 13.9038 15.6375H2.06547Z" fill="#1BA39C"/>
<path d="M8.00817 11.9093C7.65567 11.9093 7.36868 11.6218 7.36868 11.2687V2.52808L5.56251 4.33745C5.44086 4.45933 5.28176 4.52495 5.11019 4.52495C4.93862 4.52495 4.77953 4.45933 4.65787 4.33745C4.53621 4.21558 4.4707 4.0562 4.4707 3.88433C4.4707 3.71245 4.53621 3.55308 4.65787 3.4312L7.55585 0.528076C7.67751 0.406201 7.8366 0.340576 8.00817 0.340576C8.17974 0.340576 8.33884 0.406201 8.4605 0.528076L11.3585 3.4312C11.4801 3.55308 11.5456 3.71245 11.5456 3.88433C11.5456 4.0562 11.4801 4.21558 11.3585 4.33745C11.2368 4.45933 11.0777 4.52495 10.9062 4.52495C10.7346 4.52495 10.5755 4.45933 10.4538 4.33745L8.64766 2.52808V11.2656C8.64766 11.6218 8.36067 11.9093 8.00817 11.9093Z" fill="#1BA39C"/>
</g>
<defs>
<clipPath id="clip0_2411_190177">
<rect width="15.9716" height="16" fill="white"/>
</clipPath>
</defs>
</svg>
